<svg width="23" height="32" viewBox="0 0 23 32" fill="none" xmlns="http://www.w3.org/2000/svg">
<path d="M11.2455 18.4298L6.24633 13.4221C4.64797 11.8211 3.75002 9.64953 3.75002 7.38522C3.75002 5.12098 4.64797 2.94945 6.24633 1.34836L7.58998 0.00244141L12.592 5.01291C14.1891 6.61425 15.086 8.78535 15.0855 11.049C15.0849 13.3125 14.187 15.4832 12.5892 17.0838L11.2455 18.4298Z" fill="url(#paint0_linear_2598_5874)"/>
<path d="M9.90252 5.01329L14.9073 0L16.251 1.34592C17.0432 2.13881 17.6717 3.08031 18.1005 4.11665C18.5294 5.15298 18.7501 6.26379 18.7501 7.38564C18.7501 8.50747 18.5294 9.61829 18.1005 10.6546C17.6717 11.6909 17.0432 12.6324 16.251 13.4253L11.249 18.4358L9.90252 17.0871C8.30414 15.4859 7.40619 13.3144 7.40619 11.0502C7.40619 8.78588 8.30414 6.61436 9.90252 5.01329Z" fill="url(#paint1_linear_2598_5874)"/>
<path d="M1.93236 32C1.33695 32 0.866043 31.8632 0.519626 31.5894C0.173209 31.3101 0 30.9386 0 30.4749V30.1983C0 30.1425 0.027064 30.1145 0.0811917 30.1145H0.332886C0.387013 30.1145 0.414077 30.1425 0.414077 30.1983V30.4497C0.414077 30.7961 0.552103 31.0754 0.828154 31.2877C1.1042 31.5 1.4831 31.6062 1.96484 31.6062C2.4141 31.6062 2.75781 31.5112 2.99597 31.3212C3.23413 31.1257 3.35321 30.8576 3.35321 30.5168C3.35321 30.3101 3.29908 30.1313 3.19083 29.9805C3.08798 29.824 2.9256 29.6788 2.70368 29.5447C2.48717 29.4106 2.17864 29.257 1.77809 29.0838C1.3559 28.8995 1.03655 28.7458 0.820035 28.6229C0.608937 28.5 0.438434 28.3464 0.308528 28.162C0.178621 27.9721 0.113668 27.7291 0.113668 27.433C0.113668 26.9749 0.265226 26.6229 0.568341 26.3771C0.876869 26.1257 1.30177 26 1.84305 26C2.43304 26 2.89583 26.1397 3.23142 26.419C3.56701 26.6983 3.73481 27.0726 3.73481 27.5419V27.7346C3.73481 27.7905 3.70775 27.8184 3.65362 27.8184H3.38569C3.33156 27.8184 3.3045 27.7905 3.3045 27.7346V27.567C3.3045 27.2151 3.17459 26.933 2.91478 26.7207C2.65496 26.5028 2.2896 26.3939 1.81869 26.3939C1.40732 26.3939 1.09067 26.4832 0.86875 26.662C0.646826 26.8352 0.535865 27.0866 0.535865 27.4162C0.535865 27.6397 0.587286 27.8212 0.690128 27.9609C0.792971 28.1006 0.939116 28.2235 1.12856 28.3296C1.32342 28.4302 1.62112 28.5643 2.02167 28.7319C2.42221 28.8995 2.74427 29.0615 2.98785 29.2179C3.23684 29.3687 3.4317 29.5475 3.57243 29.7542C3.71316 29.9609 3.78353 30.2095 3.78353 30.5C3.78353 30.9525 3.62114 31.3157 3.29638 31.5894C2.97161 31.8632 2.51694 32 1.93236 32ZM6.4956 31.6062C6.75 31.6062 6.96652 31.5475 7.14514 31.4302C7.32917 31.3073 7.47261 31.1397 7.57545 30.9274C7.60252 30.8771 7.6377 30.8631 7.681 30.8855L7.8921 30.9944C7.94081 31.0224 7.95435 31.0587 7.93269 31.1034C7.81361 31.3771 7.62417 31.595 7.36435 31.757C7.10995 31.919 6.80955 32 6.46313 32C6.08423 32 5.76217 31.9051 5.49695 31.7151C5.23172 31.5252 5.0504 31.2654 4.95297 30.9358C4.90966 30.7961 4.87989 30.6397 4.86365 30.4665C4.84742 30.2933 4.8393 30.0754 4.8393 29.8129C4.8393 29.5391 4.842 29.3324 4.84742 29.1928C4.85824 29.0531 4.87719 28.9246 4.90425 28.8073C4.99085 28.4553 5.16677 28.1732 5.432 27.9609C5.70263 27.7486 6.03281 27.6425 6.42253 27.6425C6.86638 27.6425 7.22091 27.7626 7.48614 28.0028C7.75137 28.2374 7.91646 28.5643 7.98141 28.9833C7.99765 29.0894 8.00847 29.2151 8.01389 29.3603C8.0193 29.5 8.022 29.676 8.022 29.8883C8.022 29.9441 7.99494 29.9721 7.94081 29.9721H5.29397C5.27232 29.9721 5.26149 29.9833 5.26149 30.0056C5.26149 30.3631 5.27502 30.6006 5.30209 30.7179C5.36163 30.9916 5.49424 31.2095 5.69993 31.3715C5.91102 31.528 6.17625 31.6062 6.4956 31.6062ZM5.31833 28.9078C5.29126 29.014 5.27232 29.2319 5.26149 29.5615C5.26149 29.5838 5.27232 29.595 5.29397 29.595H7.55921C7.58086 29.595 7.59169 29.5838 7.59169 29.5615C7.59169 29.2821 7.57816 29.0726 7.55109 28.933C7.49155 28.6648 7.36165 28.4497 7.16138 28.2877C6.9611 28.1201 6.71482 28.0363 6.42253 28.0363C6.13024 28.0363 5.88667 28.1173 5.69181 28.2793C5.49695 28.4358 5.37245 28.6453 5.31833 28.9078ZM10.8821 27.6508C11.2989 27.6508 11.6345 27.7821 11.8889 28.0447C12.1487 28.3073 12.2786 28.6536 12.2786 29.0838V31.8492C12.2786 31.9051 12.2516 31.933 12.1974 31.933H11.9295C11.8754 31.933 11.8483 31.9051 11.8483 31.8492V29.1676C11.8483 28.838 11.7509 28.5698 11.556 28.3631C11.3612 28.1508 11.1068 28.0447 10.7928 28.0447C10.4681 28.0447 10.2055 28.1481 10.0053 28.3548C9.805 28.5559 9.70487 28.8212 9.70487 29.1509V31.8492C9.70487 31.9051 9.6778 31.933 9.62368 31.933H9.35575C9.30162 31.933 9.27455 31.9051 9.27455 31.8492V27.7933C9.27455 27.7374 9.30162 27.7095 9.35575 27.7095H9.62368C9.6778 27.7095 9.70487 27.7374 9.70487 27.7933V28.2039C9.70487 28.2207 9.70758 28.2319 9.71299 28.2374C9.72381 28.2374 9.73193 28.2319 9.73734 28.2207C9.85643 28.0363 10.0134 27.8967 10.2083 27.8017C10.4031 27.7011 10.6277 27.6508 10.8821 27.6508ZM15.3405 28.0028C15.3405 28.0587 15.3134 28.0866 15.2593 28.0866H14.3093C14.2877 28.0866 14.2769 28.0978 14.2769 28.1201V30.7682C14.2769 31.0531 14.3391 31.2542 14.4636 31.3715C14.5881 31.4833 14.7884 31.5391 15.0644 31.5391H15.2512C15.3053 31.5391 15.3323 31.5671 15.3323 31.6229V31.8492C15.3323 31.9051 15.3053 31.933 15.2512 31.933L15.0076 31.9414C14.6287 31.9414 14.3418 31.8659 14.1469 31.7151C13.9575 31.5643 13.8601 31.2877 13.8547 30.8855V28.1201C13.8547 28.0978 13.8438 28.0866 13.8222 28.0866H13.335C13.2809 28.0866 13.2538 28.0587 13.2538 28.0028V27.7933C13.2538 27.7374 13.2809 27.7095 13.335 27.7095H13.8222C13.8438 27.7095 13.8547 27.6983 13.8547 27.676V26.7207C13.8547 26.6648 13.8817 26.6369 13.9358 26.6369H14.1957C14.2498 26.6369 14.2769 26.6648 14.2769 26.7207V27.676C14.2769 27.6983 14.2877 27.7095 14.3093 27.7095H15.2593C15.3134 27.7095 15.3405 27.7374 15.3405 27.7933V28.0028ZM18.0959 27.676C18.2799 27.676 18.4369 27.7095 18.5668 27.7765C18.6101 27.7933 18.6263 27.8296 18.6155 27.8855L18.5425 28.1536C18.5262 28.2095 18.491 28.2263 18.4369 28.2039C18.3286 28.1592 18.1933 28.1397 18.0309 28.1453C17.7278 28.1508 17.4761 28.271 17.2759 28.5056C17.081 28.7346 16.9836 29.0168 16.9836 29.352V31.8492C16.9836 31.9051 16.9565 31.933 16.9024 31.933H16.6345C16.5803 31.933 16.5533 31.9051 16.5533 31.8492V27.7933C16.5533 27.7374 16.5803 27.7095 16.6345 27.7095H16.9024C16.9565 27.7095 16.9836 27.7374 16.9836 27.7933V28.3631C16.9836 28.3799 16.9863 28.3911 16.9917 28.3967C17.0025 28.3967 17.0106 28.3883 17.0161 28.3715C17.1297 28.1536 17.2759 27.9832 17.4545 27.8603C17.6385 27.7374 17.8523 27.676 18.0959 27.676ZM20.9737 31.6062C21.2281 31.6062 21.4446 31.5475 21.6232 31.4302C21.8073 31.3073 21.9507 31.1397 22.0535 30.9274C22.0806 30.8771 22.1158 30.8631 22.1591 30.8855L22.3702 30.9944C22.4189 31.0224 22.4324 31.0587 22.4108 31.1034C22.2917 31.3771 22.1022 31.595 21.8424 31.757C21.588 31.919 21.2876 32 20.9412 32C20.5623 32 20.2403 31.9051 19.975 31.7151C19.7098 31.5252 19.5285 31.2654 19.431 30.9358C19.3877 30.7961 19.358 30.6397 19.3417 30.4665C19.3255 30.2933 19.3174 30.0754 19.3174 29.8129C19.3174 29.5391 19.3201 29.3324 19.3255 29.1928C19.3363 29.0531 19.3553 28.9246 19.3823 28.8073C19.4689 28.4553 19.6449 28.1732 19.9101 27.9609C20.1807 27.7486 20.5109 27.6425 20.9006 27.6425C21.3445 27.6425 21.699 27.7626 21.9642 28.0028C22.2295 28.2374 22.3945 28.5643 22.4595 28.9833C22.4757 29.0894 22.4866 29.2151 22.492 29.3603C22.4974 29.5 22.5001 29.676 22.5001 29.8883C22.5001 29.9441 22.473 29.9721 22.4189 29.9721H19.7721C19.7504 29.9721 19.7396 29.9833 19.7396 30.0056C19.7396 30.3631 19.7531 30.6006 19.7802 30.7179C19.8397 30.9916 19.9723 31.2095 20.178 31.3715C20.3891 31.528 20.6543 31.6062 20.9737 31.6062ZM19.7964 28.9078C19.7693 29.014 19.7504 29.2319 19.7396 29.5615C19.7396 29.5838 19.7504 29.595 19.7721 29.595H22.0373C22.0589 29.595 22.0698 29.5838 22.0698 29.5615C22.0698 29.2821 22.0562 29.0726 22.0292 28.933C21.9696 28.6648 21.8397 28.4497 21.6395 28.2877C21.4392 28.1201 21.1929 28.0363 20.9006 28.0363C20.6083 28.0363 20.3648 28.1173 20.1699 28.2793C19.975 28.4358 19.8505 28.6453 19.7964 28.9078Z" fill="#484848"/>
<defs>
<linearGradient id="paint0_linear_2598_5874" x1="15.0902" y1="9.2175" x2="3.74817" y2="9.2175" gradientUnits="userSpaceOnUse">
<stop stop-color="#F9575E"/>
<stop offset="0.27" stop-color="#F8555B"/>
<stop offset="0.49" stop-color="#F44F51"/>
<stop offset="0.68" stop-color="#EE4540"/>
<stop offset="0.87" stop-color="#E63728"/>
<stop offset="1" stop-color="#DE2A13"/>
</linearGradient>
<linearGradient id="paint1_linear_2598_5874" x1="-34012.5" y1="28518.9" x2="-34316.8" y2="28444.3" gradientUnits="userSpaceOnUse">
<stop stop-color="#F9575E"/>
<stop offset="0.27" stop-color="#F8555B"/>
<stop offset="0.49" stop-color="#F44F51"/>
<stop offset="0.68" stop-color="#EE4540"/>
<stop offset="0.87" stop-color="#E63728"/>
<stop offset="1" stop-color="#DE2A13"/>
</linearGradient>
</defs>
</svg>
