<svg width="23" height="32" viewBox="0 0 23 32" fill="none" xmlns="http://www.w3.org/2000/svg">
<path d="M11.2455 18.4297L6.24631 13.4221C4.64795 11.821 3.75 9.64951 3.75 7.3852C3.75 5.12097 4.64795 2.94944 6.24631 1.34836L7.58996 0.00244141L12.5919 5.0129C14.189 6.61424 15.0859 8.78533 15.0854 11.049C15.0849 13.3125 14.187 15.4832 12.5891 17.0837L11.2455 18.4297Z" fill="url(#paint0_linear_2598_5869)"/>
<path d="M9.90248 5.01328L14.9073 0L16.251 1.34592C17.0432 2.1388 17.6716 3.0803 18.1005 4.11664C18.5293 5.15297 18.75 6.26378 18.75 7.38562C18.75 8.50746 18.5293 9.61827 18.1005 10.6546C17.6716 11.6909 17.0432 12.6324 16.251 13.4253L11.2489 18.4357L9.90248 17.0871C8.30411 15.4859 7.40616 13.3144 7.40616 11.0502C7.40616 8.78587 8.30411 6.61435 9.90248 5.01328Z" fill="url(#paint1_linear_2598_5869)"/>
<path d="M1.93235 32C1.33695 32 0.866041 31.8631 0.519625 31.5894C0.173208 31.3101 0 30.9386 0 30.4749V30.1983C0 30.1425 0.0270639 30.1145 0.0811915 30.1145H0.332885C0.387012 30.1145 0.414076 30.1425 0.414076 30.1983V30.4497C0.414076 30.7961 0.552101 31.0754 0.828152 31.2877C1.1042 31.5 1.4831 31.6062 1.96483 31.6062C2.41409 31.6062 2.7578 31.5112 2.99596 31.3212C3.23412 31.1257 3.3532 30.8575 3.3532 30.5168C3.3532 30.3101 3.29907 30.1313 3.19082 29.9805C3.08798 29.824 2.9256 29.6788 2.70367 29.5447C2.48716 29.4106 2.17863 29.257 1.77809 29.0838C1.3559 28.8994 1.03654 28.7458 0.820033 28.6229C0.608935 28.5 0.438433 28.3464 0.308527 28.162C0.178621 27.9721 0.113668 27.7291 0.113668 27.433C0.113668 26.9749 0.265225 26.6229 0.568339 26.3771C0.876867 26.1257 1.30177 26 1.84304 26C2.43303 26 2.89582 26.1397 3.23142 26.419C3.56701 26.6983 3.7348 27.0726 3.7348 27.5419V27.7346C3.7348 27.7905 3.70774 27.8184 3.65361 27.8184H3.38568C3.33155 27.8184 3.30449 27.7905 3.30449 27.7346V27.567C3.30449 27.2151 3.17458 26.933 2.91477 26.7207C2.65496 26.5028 2.2896 26.3939 1.81869 26.3939C1.40732 26.3939 1.09067 26.4832 0.868748 26.662C0.646825 26.8352 0.535864 27.0866 0.535864 27.4162C0.535864 27.6397 0.587284 27.8212 0.690127 27.9609C0.792969 28.1006 0.939114 28.2235 1.12856 28.3296C1.32342 28.4302 1.62112 28.5642 2.02166 28.7318C2.42221 28.8994 2.74427 29.0615 2.98784 29.2179C3.23683 29.3687 3.43169 29.5475 3.57242 29.7542C3.71315 29.9609 3.78352 30.2095 3.78352 30.5C3.78352 30.9525 3.62113 31.3157 3.29637 31.5894C2.9716 31.8631 2.51693 32 1.93235 32ZM6.49559 31.6062C6.74999 31.6062 6.9665 31.5475 7.14512 31.4302C7.32915 31.3073 7.47259 31.1397 7.57543 30.9274C7.6025 30.8771 7.63768 30.8631 7.68098 30.8855L7.89208 30.9944C7.9408 31.0224 7.95433 31.0587 7.93268 31.1034C7.8136 31.3771 7.62415 31.595 7.36434 31.757C7.10994 31.919 6.80953 32 6.46311 32C6.08422 32 5.76216 31.905 5.49694 31.7151C5.23171 31.5251 5.05038 31.2654 4.95295 30.9358C4.90965 30.7961 4.87988 30.6397 4.86364 30.4665C4.84741 30.2933 4.83929 30.0754 4.83929 29.8129C4.83929 29.5391 4.84199 29.3324 4.84741 29.1927C4.85823 29.0531 4.87718 28.9246 4.90424 28.8073C4.99084 28.4553 5.16676 28.1732 5.43198 27.9609C5.70262 27.7486 6.0328 27.6425 6.42252 27.6425C6.86636 27.6425 7.2209 27.7626 7.48612 28.0028C7.75135 28.2374 7.91644 28.5642 7.98139 28.9832C7.99763 29.0894 8.00846 29.2151 8.01387 29.3603C8.01928 29.5 8.02199 29.676 8.02199 29.8883C8.02199 29.9441 7.99492 29.9721 7.9408 29.9721H5.29396C5.27231 29.9721 5.26148 29.9832 5.26148 30.0056C5.26148 30.3631 5.27501 30.6006 5.30208 30.7179C5.36162 30.9916 5.49423 31.2095 5.69991 31.3715C5.91101 31.5279 6.17624 31.6062 6.49559 31.6062ZM5.31831 28.9078C5.29125 29.014 5.27231 29.2318 5.26148 29.5615C5.26148 29.5838 5.27231 29.595 5.29396 29.595H7.5592C7.58085 29.595 7.59167 29.5838 7.59167 29.5615C7.59167 29.2821 7.57814 29.0726 7.55108 28.933C7.49154 28.6648 7.36163 28.4497 7.16136 28.2877C6.96109 28.1201 6.71481 28.0363 6.42252 28.0363C6.13023 28.0363 5.88666 28.1173 5.6918 28.2793C5.49694 28.4358 5.37244 28.6453 5.31831 28.9078ZM10.8821 27.6508C11.2989 27.6508 11.6345 27.7821 11.8889 28.0447C12.1487 28.3073 12.2786 28.6536 12.2786 29.0838V31.8492C12.2786 31.905 12.2515 31.933 12.1974 31.933H11.9295C11.8754 31.933 11.8483 31.905 11.8483 31.8492V29.1676C11.8483 28.838 11.7509 28.5698 11.556 28.3631C11.3611 28.1508 11.1067 28.0447 10.7928 28.0447C10.468 28.0447 10.2055 28.148 10.0053 28.3548C9.80498 28.5559 9.70485 28.8212 9.70485 29.1508V31.8492C9.70485 31.905 9.67778 31.933 9.62366 31.933H9.35572C9.3016 31.933 9.27453 31.905 9.27453 31.8492V27.7933C9.27453 27.7374 9.3016 27.7095 9.35572 27.7095H9.62366C9.67778 27.7095 9.70485 27.7374 9.70485 27.7933V28.2039C9.70485 28.2207 9.70755 28.2318 9.71297 28.2374C9.72379 28.2374 9.73191 28.2318 9.73732 28.2207C9.8564 28.0363 10.0134 27.8967 10.2082 27.8017C10.4031 27.7011 10.6277 27.6508 10.8821 27.6508ZM15.3404 28.0028C15.3404 28.0587 15.3134 28.0866 15.2592 28.0866H14.3093C14.2876 28.0866 14.2768 28.0978 14.2768 28.1201V30.7682C14.2768 31.0531 14.3391 31.2542 14.4636 31.3715C14.5881 31.4832 14.7883 31.5391 15.0644 31.5391H15.2511C15.3052 31.5391 15.3323 31.567 15.3323 31.6229V31.8492C15.3323 31.905 15.3052 31.933 15.2511 31.933L15.0075 31.9414C14.6286 31.9414 14.3418 31.8659 14.1469 31.7151C13.9575 31.5643 13.86 31.2877 13.8546 30.8855V28.1201C13.8546 28.0978 13.8438 28.0866 13.8221 28.0866H13.335C13.2809 28.0866 13.2538 28.0587 13.2538 28.0028V27.7933C13.2538 27.7374 13.2809 27.7095 13.335 27.7095H13.8221C13.8438 27.7095 13.8546 27.6983 13.8546 27.676V26.7207C13.8546 26.6648 13.8817 26.6369 13.9358 26.6369H14.1956C14.2498 26.6369 14.2768 26.6648 14.2768 26.7207V27.676C14.2768 27.6983 14.2876 27.7095 14.3093 27.7095H15.2592C15.3134 27.7095 15.3404 27.7374 15.3404 27.7933V28.0028ZM18.0959 27.676C18.2799 27.676 18.4369 27.7095 18.5668 27.7765C18.6101 27.7933 18.6263 27.8296 18.6155 27.8855L18.5424 28.1536C18.5262 28.2095 18.491 28.2263 18.4369 28.2039C18.3286 28.1592 18.1933 28.1397 18.0309 28.1453C17.7278 28.1508 17.4761 28.271 17.2758 28.5056C17.081 28.7346 16.9835 29.0168 16.9835 29.352V31.8492C16.9835 31.905 16.9565 31.933 16.9023 31.933H16.6344C16.5803 31.933 16.5532 31.905 16.5532 31.8492V27.7933C16.5532 27.7374 16.5803 27.7095 16.6344 27.7095H16.9023C16.9565 27.7095 16.9835 27.7374 16.9835 27.7933V28.3631C16.9835 28.3799 16.9862 28.3911 16.9917 28.3967C17.0025 28.3967 17.0106 28.3883 17.016 28.3715C17.1297 28.1536 17.2758 27.9832 17.4544 27.8603C17.6385 27.7374 17.8523 27.676 18.0959 27.676ZM20.9736 31.6062C21.228 31.6062 21.4445 31.5475 21.6232 31.4302C21.8072 31.3073 21.9506 31.1397 22.0535 30.9274C22.0805 30.8771 22.1157 30.8631 22.159 30.8855L22.3701 30.9944C22.4188 31.0224 22.4324 31.0587 22.4107 31.1034C22.2916 31.3771 22.1022 31.595 21.8424 31.757C21.588 31.919 21.2876 32 20.9412 32C20.5623 32 20.2402 31.905 19.975 31.7151C19.7098 31.5251 19.5284 31.2654 19.431 30.9358C19.3877 30.7961 19.3579 30.6397 19.3417 30.4665C19.3255 30.2933 19.3173 30.0754 19.3173 29.8129C19.3173 29.5391 19.32 29.3324 19.3255 29.1927C19.3363 29.0531 19.3552 28.9246 19.3823 28.8073C19.4689 28.4553 19.6448 28.1732 19.91 27.9609C20.1807 27.7486 20.5108 27.6425 20.9006 27.6425C21.3444 27.6425 21.699 27.7626 21.9642 28.0028C22.2294 28.2374 22.3945 28.5642 22.4594 28.9832C22.4757 29.0894 22.4865 29.2151 22.4919 29.3603C22.4973 29.5 22.5 29.676 22.5 29.8883C22.5 29.9441 22.473 29.9721 22.4188 29.9721H19.772C19.7504 29.9721 19.7395 29.9832 19.7395 30.0056C19.7395 30.3631 19.7531 30.6006 19.7801 30.7179C19.8397 30.9916 19.9723 31.2095 20.178 31.3715C20.3891 31.5279 20.6543 31.6062 20.9736 31.6062ZM19.7964 28.9078C19.7693 29.014 19.7504 29.2318 19.7395 29.5615C19.7395 29.5838 19.7504 29.595 19.772 29.595H22.0372C22.0589 29.595 22.0697 29.5838 22.0697 29.5615C22.0697 29.2821 22.0562 29.0726 22.0291 28.933C21.9696 28.6648 21.8397 28.4497 21.6394 28.2877C21.4391 28.1201 21.1929 28.0363 20.9006 28.0363C20.6083 28.0363 20.3647 28.1173 20.1698 28.2793C19.975 28.4358 19.8505 28.6453 19.7964 28.9078Z" fill="#F1F2F2"/>
<defs>
<linearGradient id="paint0_linear_2598_5869" x1="15.0901" y1="9.21748" x2="3.74815" y2="9.21748" gradientUnits="userSpaceOnUse">
<stop stop-color="#F9575E"/>
<stop offset="0.27" stop-color="#F8555B"/>
<stop offset="0.49" stop-color="#F44F51"/>
<stop offset="0.68" stop-color="#EE4540"/>
<stop offset="0.87" stop-color="#E63728"/>
<stop offset="1" stop-color="#DE2A13"/>
</linearGradient>
<linearGradient id="paint1_linear_2598_5869" x1="-34012.4" y1="28518.9" x2="-34316.7" y2="28444.3" gradientUnits="userSpaceOnUse">
<stop stop-color="#F9575E"/>
<stop offset="0.27" stop-color="#F8555B"/>
<stop offset="0.49" stop-color="#F44F51"/>
<stop offset="0.68" stop-color="#EE4540"/>
<stop offset="0.87" stop-color="#E63728"/>
<stop offset="1" stop-color="#DE2A13"/>
</linearGradient>
</defs>
</svg>
