<svg width="618" height="180" viewBox="0 0 618 180" fill="none" xmlns="http://www.w3.org/2000/svg">
<path d="M73.183 179.942L24.3731 131.049C8.76725 115.417 0 94.2145 0 72.1066C0 49.9994 8.76725 28.7974 24.3731 13.165L37.492 0.0239258L86.3297 48.9443C101.923 64.5792 110.68 85.777 110.675 107.879C110.67 129.979 101.903 151.173 86.3021 166.8L73.183 179.942Z" fill="url(#paint0_linear_52_357)"/>
<path d="M60.0695 48.9479L108.935 0L122.054 13.1411C129.789 20.8825 135.925 30.075 140.112 40.1934C144.299 50.3118 146.454 61.1573 146.454 72.1106C146.454 83.0638 144.299 93.9094 140.112 104.028C135.925 114.146 129.789 123.338 122.054 131.08L73.2156 180L60.0695 166.832C44.4636 151.199 35.6964 129.997 35.6964 107.89C35.6964 85.7821 44.4636 64.5802 60.0695 48.9479Z" fill="url(#paint1_linear_52_357)"/>
<path d="M253.877 141.929C243.34 141.929 235.007 139.582 228.876 134.889C222.746 130.099 219.681 123.73 219.681 115.779V111.038C219.681 110.08 220.16 109.601 221.118 109.601H225.572C226.53 109.601 227.009 110.08 227.009 111.038V115.348C227.009 121.287 229.451 126.076 234.336 129.716C239.221 133.356 245.926 135.176 254.451 135.176C262.402 135.176 268.484 133.548 272.699 130.291C276.913 126.938 279.021 122.341 279.021 116.498C279.021 112.954 278.063 109.888 276.147 107.302C274.327 104.62 271.453 102.13 267.526 99.8309C263.695 97.532 258.235 94.8979 251.147 91.9285C243.675 88.7676 238.024 86.1334 234.193 84.0261C230.457 81.9188 227.44 79.2847 225.141 76.1238C222.842 72.867 221.692 68.7003 221.692 63.6236C221.692 55.7692 224.374 49.7346 229.738 45.52C235.198 41.2096 242.718 39.0544 252.296 39.0544C262.737 39.0544 270.927 41.4491 276.865 46.2384C282.804 51.0277 285.773 57.4454 285.773 65.4915V68.7961C285.773 69.754 285.295 70.2329 284.337 70.2329H279.595C278.637 70.2329 278.158 69.754 278.158 68.7961V65.9225C278.158 59.888 275.86 55.0508 271.262 51.4109C266.664 47.6752 260.199 45.8074 251.865 45.8074C244.585 45.8074 238.982 47.34 235.055 50.4051C231.127 53.3745 229.164 57.6849 229.164 63.3363C229.164 67.1677 230.074 70.2808 231.894 72.6754C233.714 75.0701 236.3 77.1774 239.652 78.9973C243.101 80.7215 248.369 83.0204 255.457 85.894C262.545 88.7675 268.245 91.5454 272.555 94.2274C276.961 96.8136 280.409 99.8788 282.9 103.423C285.39 106.967 286.636 111.229 286.636 116.21C286.636 123.969 283.762 130.195 278.015 134.889C272.268 139.582 264.222 141.929 253.877 141.929ZM334.63 135.176C339.131 135.176 342.963 134.17 346.124 132.159C349.381 130.051 351.919 127.178 353.739 123.538C354.218 122.676 354.84 122.436 355.607 122.82L359.342 124.687C360.204 125.166 360.444 125.789 360.061 126.555C357.953 131.249 354.601 134.984 350.003 137.762C345.501 140.54 340.185 141.929 334.055 141.929C327.35 141.929 321.65 140.301 316.957 137.044C312.263 133.787 309.055 129.333 307.33 123.682C306.564 121.287 306.037 118.605 305.75 115.636C305.463 112.666 305.319 108.931 305.319 104.429C305.319 99.7351 305.367 96.191 305.463 93.7963C305.654 91.4017 305.989 89.1986 306.468 87.1871C308.001 81.1525 311.114 76.3153 315.808 72.6754C320.597 69.0356 326.44 67.2156 333.336 67.2156C341.191 67.2156 347.465 69.275 352.158 73.3938C356.852 77.4169 359.773 83.0204 360.923 90.2043C361.21 92.0243 361.402 94.1795 361.498 96.6699C361.593 99.0646 361.641 102.082 361.641 105.722C361.641 106.68 361.162 107.159 360.204 107.159H313.365C312.982 107.159 312.79 107.35 312.79 107.733C312.79 113.864 313.03 117.934 313.509 119.946C314.562 124.64 316.909 128.375 320.549 131.153C324.285 133.835 328.978 135.176 334.63 135.176ZM313.796 88.9112C313.317 90.7312 312.982 94.4668 312.79 100.118C312.79 100.501 312.982 100.693 313.365 100.693H353.452C353.835 100.693 354.026 100.501 354.026 100.118C354.026 95.3289 353.787 91.7369 353.308 89.3423C352.254 84.7445 349.955 81.0568 346.411 78.2789C342.867 75.4054 338.509 73.9686 333.336 73.9686C328.164 73.9686 323.854 75.3575 320.405 78.1353C316.957 80.8173 314.754 84.4093 313.796 88.9112ZM412.255 67.3593C419.631 67.3593 425.57 69.6103 430.072 74.1122C434.669 78.6142 436.968 84.553 436.968 91.9285V139.343C436.968 140.301 436.489 140.78 435.531 140.78H430.79C429.832 140.78 429.353 140.301 429.353 139.343V93.3653C429.353 87.7139 427.629 83.1162 424.181 79.5721C420.732 75.9322 416.23 74.1122 410.675 74.1122C404.928 74.1122 400.282 75.8843 396.738 79.4284C393.194 82.8767 391.422 87.4265 391.422 93.0779V139.343C391.422 140.301 390.943 140.78 389.985 140.78H385.244C384.286 140.78 383.807 140.301 383.807 139.343V69.8019C383.807 68.844 384.286 68.3651 385.244 68.3651H389.985C390.943 68.3651 391.422 68.844 391.422 69.8019V76.8421C391.422 77.1295 391.47 77.3211 391.566 77.4169C391.757 77.4169 391.901 77.3211 391.997 77.1295C394.104 73.9686 396.882 71.5739 400.33 69.9455C403.778 68.2214 407.753 67.3593 412.255 67.3593ZM491.151 73.3938C491.151 74.3517 490.672 74.8306 489.715 74.8306H472.904C472.521 74.8306 472.329 75.0222 472.329 75.4054V120.808C472.329 125.693 473.431 129.141 475.634 131.153C477.837 133.069 481.381 134.027 486.266 134.027H489.571C490.529 134.027 491.008 134.506 491.008 135.463V139.343C491.008 140.301 490.529 140.78 489.571 140.78L485.26 140.923C478.555 140.923 473.479 139.63 470.03 137.044C466.678 134.458 464.954 129.716 464.858 122.82V75.4054C464.858 75.0222 464.666 74.8306 464.283 74.8306H455.663C454.705 74.8306 454.226 74.3517 454.226 73.3938V69.8019C454.226 68.844 454.705 68.3651 455.663 68.3651H464.283C464.666 68.3651 464.858 68.1735 464.858 67.7903V51.4109C464.858 50.453 465.337 49.9741 466.295 49.9741H470.893C471.85 49.9741 472.329 50.453 472.329 51.4109V67.7903C472.329 68.1735 472.521 68.3651 472.904 68.3651H489.715C490.672 68.3651 491.151 68.844 491.151 69.8019V73.3938ZM539.913 67.7903C543.169 67.7903 545.947 68.3651 548.246 69.5145C549.012 69.8019 549.3 70.4245 549.108 71.3823L547.815 75.9801C547.528 76.9379 546.905 77.2253 545.947 76.8421C544.031 76.0759 541.637 75.7406 538.763 75.8364C533.399 75.9322 528.945 77.9916 525.401 82.0146C521.953 85.9418 520.229 90.7791 520.229 96.5262V139.343C520.229 140.301 519.75 140.78 518.792 140.78H514.05C513.092 140.78 512.613 140.301 512.613 139.343V69.8019C512.613 68.844 513.092 68.3651 514.05 68.3651H518.792C519.75 68.3651 520.229 68.844 520.229 69.8019V79.5721C520.229 79.8594 520.276 80.051 520.372 80.1468C520.564 80.1468 520.707 80.0031 520.803 79.7157C522.815 75.9801 525.401 73.0586 528.562 70.9513C531.819 68.844 535.602 67.7903 539.913 67.7903ZM590.839 135.176C595.341 135.176 599.172 134.17 602.333 132.159C605.59 130.051 608.128 127.178 609.948 123.538C610.427 122.676 611.05 122.436 611.816 122.82L615.552 124.687C616.414 125.166 616.653 125.789 616.27 126.555C614.163 131.249 610.81 134.984 606.213 137.762C601.711 140.54 596.395 141.929 590.264 141.929C583.559 141.929 577.86 140.301 573.166 137.044C568.473 133.787 565.264 129.333 563.54 123.682C562.774 121.287 562.247 118.605 561.959 115.636C561.672 112.666 561.528 108.931 561.528 104.429C561.528 99.7351 561.576 96.191 561.672 93.7963C561.864 91.4017 562.199 89.1986 562.678 87.1871C564.21 81.1525 567.323 76.3153 572.017 72.6754C576.806 69.0356 582.649 67.2156 589.546 67.2156C597.4 67.2156 603.674 69.275 608.368 73.3938C613.061 77.4169 615.983 83.0204 617.132 90.2043C617.42 92.0243 617.611 94.1795 617.707 96.6699C617.803 99.0646 617.851 102.082 617.851 105.722C617.851 106.68 617.372 107.159 616.414 107.159H569.574C569.191 107.159 569 107.35 569 107.733C569 113.864 569.239 117.934 569.718 119.946C570.772 124.64 573.118 128.375 576.758 131.153C580.494 133.835 585.188 135.176 590.839 135.176ZM570.005 88.9112C569.527 90.7312 569.191 94.4668 569 100.118C569 100.501 569.191 100.693 569.574 100.693H609.661C610.044 100.693 610.236 100.501 610.236 100.118C610.236 95.3289 609.996 91.7369 609.517 89.3423C608.464 84.7445 606.165 81.0568 602.621 78.2789C599.077 75.4054 594.718 73.9686 589.546 73.9686C584.373 73.9686 580.063 75.3575 576.615 78.1353C573.166 80.8173 570.963 84.4093 570.005 88.9112Z" fill="#F1F2F2"/>
<defs>
<linearGradient id="paint0_linear_52_357" x1="110.721" y1="89.9963" x2="-0.0180195" y2="89.9963" gradientUnits="userSpaceOnUse">
<stop stop-color="#F9575E"/>
<stop offset="0.27" stop-color="#F8555B"/>
<stop offset="0.49" stop-color="#F44F51"/>
<stop offset="0.68" stop-color="#EE4540"/>
<stop offset="0.87" stop-color="#E63728"/>
<stop offset="1" stop-color="#DE2A13"/>
</linearGradient>
<linearGradient id="paint1_linear_52_357" x1="-332122" y1="278448" x2="-335093" y2="277720" gradientUnits="userSpaceOnUse">
<stop stop-color="#F9575E"/>
<stop offset="0.27" stop-color="#F8555B"/>
<stop offset="0.49" stop-color="#F44F51"/>
<stop offset="0.68" stop-color="#EE4540"/>
<stop offset="0.87" stop-color="#E63728"/>
<stop offset="1" stop-color="#DE2A13"/>
</linearGradient>
</defs>
</svg>
