<svg width="147" height="180" viewBox="0 0 147 180" fill="none" xmlns="http://www.w3.org/2000/svg">
<path d="M73.183 179.941L24.3731 131.048C8.76725 115.416 0 94.214 0 72.1061C0 49.9989 8.76725 28.7969 24.3731 13.1645L37.492 0.0234375L86.3297 48.9438C101.923 64.5787 110.68 85.7765 110.675 107.878C110.67 129.978 101.903 151.172 86.3021 166.799L73.183 179.941Z" fill="url(#paint0_linear_41_139)"/>
<path d="M60.0697 48.9479L108.935 0L122.054 13.1411C129.789 20.8825 135.925 30.075 140.112 40.1934C144.299 50.3118 146.454 61.1573 146.454 72.1106C146.454 83.0638 144.299 93.9094 140.112 104.028C135.925 114.146 129.789 123.338 122.054 131.08L73.2158 180L60.0697 166.832C44.4638 151.199 35.6965 129.997 35.6965 107.89C35.6965 85.7821 44.4638 64.5802 60.0697 48.9479Z" fill="url(#paint1_linear_41_139)"/>
<defs>
<linearGradient id="paint0_linear_41_139" x1="110.721" y1="89.9958" x2="-0.0180195" y2="89.9958" gradientUnits="userSpaceOnUse">
<stop stop-color="#F9575E"/>
<stop offset="0.27" stop-color="#F8555B"/>
<stop offset="0.49" stop-color="#F44F51"/>
<stop offset="0.68" stop-color="#EE4540"/>
<stop offset="0.87" stop-color="#E63728"/>
<stop offset="1" stop-color="#DE2A13"/>
</linearGradient>
<linearGradient id="paint1_linear_41_139" x1="-332122" y1="278448" x2="-335093" y2="277720" gradientUnits="userSpaceOnUse">
<stop stop-color="#F9575E"/>
<stop offset="0.27" stop-color="#F8555B"/>
<stop offset="0.49" stop-color="#F44F51"/>
<stop offset="0.68" stop-color="#EE4540"/>
<stop offset="0.87" stop-color="#E63728"/>
<stop offset="1" stop-color="#DE2A13"/>
</linearGradient>
</defs>
</svg>
