<svg width="216" height="172" viewBox="0 0 216 172" fill="none" xmlns="http://www.w3.org/2000/svg">
<path d="M64.4907 67.6236C65.0652 67.9785 65.6293 68.3399 66.1925 68.7131C72.1422 83.5748 75.5393 99.322 76.2423 115.299C76.3289 117.147 76.3729 118.992 76.3742 120.834C76.4255 134.647 74.4008 148.391 70.3669 161.611C70.1541 162.307 69.9366 163 69.7145 163.69C69.5554 164.185 69.3933 164.686 69.2176 165.177C69.0307 165.429 68.8466 165.676 68.6626 165.924C68.6496 165.935 68.6383 165.953 68.6251 165.964C68.5509 166.064 68.4768 166.164 68.4101 166.262C68.0919 166.686 67.7689 167.107 67.4508 167.531L67.7188 167.549L68.3905 167.592L68.3877 167.596C68.1622 167.591 67.9321 167.584 67.7047 167.572C67.6221 167.572 67.5321 167.574 67.4477 167.567C67.3725 167.566 67.2927 167.561 67.2174 167.56C57.5321 167.299 47.6202 166.819 38.8065 162.887C29.5815 158.768 21.7562 149.861 22.1539 139.83C22.2098 138.516 22.4106 137.212 22.7526 135.942C22.8954 135.411 23.0641 134.89 23.2448 134.37C24.3449 131.185 26.2795 128.348 28.8497 126.152C31.4199 123.955 34.533 122.478 37.8689 121.872C41.2048 121.265 44.6431 121.552 47.8303 122.703C51.0175 123.853 53.8386 125.825 56.0036 128.417C53.3598 118.101 42.0101 112.838 31.7877 109.637C21.5578 106.439 10.0482 103.093 4.82178 93.7988C1.90379 88.6265 1.83353 82.6003 3.73756 77.0356C3.79552 76.8694 3.85641 76.6984 3.92186 76.5303C6.31987 69.9829 11.118 64.5749 17.3574 61.3871C29.0478 55.6405 43.2532 57.6681 55.2315 62.7971C58.4363 64.1713 61.5316 65.7848 64.4907 67.6236Z" fill="#E9E9EB"/>
<path d="M30.9839 134.41C40.1727 135.249 48.8458 139.001 55.7212 145.111C61.577 150.373 65.8978 157.103 68.2303 164.595C68.366 165.023 68.4896 165.451 68.6057 165.881C68.8378 165.442 69.0633 164.993 69.2862 164.549C69.4297 164.265 69.576 163.975 69.7148 163.688C69.5557 164.184 69.3936 164.684 69.2179 165.175C69.031 165.427 68.8469 165.675 68.6629 165.922C68.6499 165.933 68.6386 165.951 68.6254 165.962C68.5513 166.062 68.4771 166.162 68.4104 166.26C68.0922 166.684 67.7692 167.105 67.4511 167.529L67.7191 167.547L68.3908 167.59L68.3881 167.594C68.1625 167.589 67.9324 167.582 67.705 167.57C67.6224 167.57 67.5324 167.572 67.448 167.565C67.4202 167.435 67.3851 167.307 67.3501 167.178C64.9693 157.502 59.1418 149.008 50.9442 143.266C42.7466 137.524 32.7329 134.922 22.7529 135.94C22.8957 135.409 23.0644 134.888 23.2451 134.368C25.8211 134.158 28.4105 134.173 30.9839 134.41Z" fill="white"/>
<path d="M61.514 96.2552C65.2008 98.9976 68.4644 102.26 71.2013 105.939C72.6273 107.901 73.8662 109.99 74.902 112.179C75.3931 113.195 75.8401 114.241 76.2425 115.298C76.3291 117.145 76.3731 118.99 76.3744 120.832C76.0326 119.44 75.6162 118.066 75.1269 116.718C74.8723 115.978 74.5896 115.252 74.2892 114.534C70.92 106.499 64.8157 100.155 57.6164 95.3319C49.9019 90.1708 41.2047 86.2965 32.3907 83.4156C23.3577 80.4493 13.9926 78.5937 4.50483 77.89C4.29056 77.8728 4.09124 77.7742 3.94837 77.6147C3.8055 77.4552 3.7301 77.2472 3.73785 77.0339C3.73056 76.848 3.79669 76.6667 3.92215 76.5285C3.9888 76.4637 4.06982 76.4153 4.15873 76.3872C4.24764 76.3592 4.34195 76.3522 4.43406 76.3669C5.60489 76.4538 6.77269 76.5457 7.94042 76.6686C17.6566 77.6622 27.2105 79.8517 36.3823 83.1867C45.2363 86.3942 53.999 90.5537 61.514 96.2552Z" fill="white"/>
<path d="M13.3716 51.8168C15.1651 51.8168 16.6191 50.3734 16.6191 48.593C16.6191 46.8125 15.1651 45.3691 13.3716 45.3691C11.578 45.3691 10.124 46.8125 10.124 48.593C10.124 50.3734 11.578 51.8168 13.3716 51.8168Z" fill="#F2F2F2"/>
<path d="M130.398 20.5938C135.979 20.5938 140.503 16.1018 140.503 10.5606C140.503 5.01937 135.979 0.527344 130.398 0.527344C124.816 0.527344 120.292 5.01937 120.292 10.5606C120.292 16.1018 124.816 20.5938 130.398 20.5938Z" fill="#FB9A9E"/>
<path d="M137.844 21.1226C135.74 21.1226 133.683 20.5032 131.934 19.3427C130.184 18.1822 128.821 16.5328 128.016 14.6029C127.211 12.6731 127 10.5496 127.41 8.5009C127.821 6.45221 128.834 4.57036 130.322 3.09333C131.809 1.61631 133.705 0.610445 135.768 0.202936C137.832 -0.204574 139.971 0.004579 141.914 0.803938C143.858 1.6033 145.52 2.95698 146.688 4.69377C147.857 6.43057 148.481 8.47247 148.481 10.5613C148.481 13.3623 147.36 16.0486 145.365 18.0293C143.371 20.0099 140.665 21.1226 137.844 21.1226ZM137.844 1.05614C135.95 1.05614 134.099 1.61362 132.525 2.65806C130.95 3.7025 129.723 5.18699 128.999 6.92383C128.274 8.66067 128.084 10.5718 128.454 12.4156C128.823 14.2595 129.735 15.9531 131.074 17.2825C132.413 18.6118 134.119 19.517 135.976 19.8838C137.833 20.2506 139.758 20.0623 141.507 19.3429C143.257 18.6235 144.752 17.4052 145.804 15.8421C146.856 14.279 147.417 12.4412 147.417 10.5613C147.417 8.04037 146.409 5.62271 144.613 3.84015C142.818 2.05758 140.383 1.05614 137.844 1.05614Z" fill="#2F2E41"/>
<path d="M167.312 168.829H69.4467C68.2481 168.827 67.099 168.354 66.2515 167.513C65.4039 166.671 64.9272 165.53 64.9258 164.34V74.0413C64.9272 72.8513 65.4039 71.7104 66.2515 70.8689C67.099 70.0274 68.2481 69.5541 69.4467 69.5527H167.312C168.511 69.5541 169.66 70.0274 170.507 70.8689C171.355 71.7104 171.832 72.8513 171.833 74.0413V164.34C171.832 165.53 171.355 166.671 170.507 167.513C169.66 168.354 168.511 168.827 167.312 168.829Z" fill="#5D6CCF"/>
<path d="M125.293 172H111.464C110.266 171.999 109.117 171.526 108.269 170.684C107.422 169.843 106.945 168.702 106.943 167.512V71.3596C106.945 70.1696 107.422 69.0287 108.269 68.1873C109.117 67.3458 110.266 66.8725 111.464 66.8711H125.293C126.492 66.8725 127.641 67.3458 128.488 68.1873C129.336 69.0287 129.813 70.1696 129.814 71.3596V167.512C129.813 168.702 129.336 169.843 128.488 170.684C127.641 171.526 126.492 171.999 125.293 172Z" fill="#3F3D56"/>
<path d="M193.314 60.6153C192.743 69.9305 180.069 76.7433 180.069 76.7433C180.069 76.7433 168.321 68.453 168.893 59.1378C169.465 49.8225 182.139 43.0098 182.139 43.0098C182.139 43.0098 193.886 51.3 193.314 60.6153Z" fill="#3F3D56"/>
<path d="M193.888 89.6787C184.504 89.1401 177.603 76.5783 177.603 76.5783C177.603 76.5783 185.916 64.8896 195.3 65.4282C204.684 65.9668 211.586 78.5286 211.586 78.5286C211.586 78.5286 203.273 90.2173 193.888 89.6787Z" fill="#3F3D56"/>
<path opacity="0.1" d="M171.567 80.6014V115.073L137.032 69.8184H163.339L171.567 80.6014Z" fill="black"/>
<path d="M200.886 139.61C200.187 139.611 199.497 139.452 198.871 139.143C198.245 138.835 197.699 138.387 197.277 137.834L125.328 43.5527C124.969 43.0828 124.707 42.5475 124.557 41.9772C124.407 41.407 124.371 40.8129 124.453 40.229C124.534 39.6451 124.73 39.0827 125.03 38.574C125.33 38.0654 125.728 37.6203 126.201 37.2644L136.799 29.2918C137.273 28.9358 137.812 28.6759 138.386 28.5268C138.961 28.3777 139.559 28.3424 140.147 28.423C140.735 28.5035 141.302 28.6983 141.814 28.9962C142.326 29.2941 142.774 29.6893 143.133 30.1592L215.082 124.44C215.441 124.91 215.703 125.445 215.853 126.015C216.003 126.586 216.039 127.18 215.957 127.764C215.876 128.347 215.68 128.91 215.38 129.418C215.08 129.927 214.682 130.372 214.209 130.728L203.611 138.701C202.827 139.292 201.87 139.611 200.886 139.61Z" fill="#5D6CCF"/>
<path d="M172.086 66.3498L153.856 80.0625L167.668 98.1611L185.897 84.4484L172.086 66.3498Z" fill="#3F3D56"/>
<path d="M83.8585 25.3189L77.626 48.4121L100.886 54.5999L107.118 31.5067L83.8585 25.3189Z" fill="#FB9A9E"/>
<path d="M91.0186 58.0531L66.7314 51.5921L73.2392 27.4785L97.5263 33.9396L91.0186 58.0531ZM68.0341 50.8454L90.2665 56.7598L96.2236 34.6863L73.9913 28.7719L68.0341 50.8454Z" fill="#2F2E41"/>
<path d="M36.7357 162.557C48.5761 162.557 58.1746 153.027 58.1746 141.271C58.1746 129.516 48.5761 119.986 36.7357 119.986C24.8954 119.986 15.2969 129.516 15.2969 141.271C15.2969 153.027 24.8954 162.557 36.7357 162.557Z" fill="#3F3D56"/>
<path d="M33.4779 157.977H26.9648V169.562H33.4779V157.977Z" fill="#3F3D56"/>
<path d="M46.5043 157.977H39.9912V169.562H46.5043V157.977Z" fill="#3F3D56"/>
<path d="M32.3924 171.719C35.39 171.719 37.82 170.814 37.82 169.698C37.82 168.582 35.39 167.678 32.3924 167.678C29.3948 167.678 26.9648 168.582 26.9648 169.698C26.9648 170.814 29.3948 171.719 32.3924 171.719Z" fill="#3F3D56"/>
<path d="M45.4188 171.447C48.4163 171.447 50.8463 170.543 50.8463 169.427C50.8463 168.311 48.4163 167.406 45.4188 167.406C42.4212 167.406 39.9912 168.311 39.9912 169.427C39.9912 170.543 42.4212 171.447 45.4188 171.447Z" fill="#3F3D56"/>
<path d="M15.939 121.478C14.2079 113.78 19.7415 106.003 28.2987 104.106C36.8558 102.209 45.196 106.911 46.9271 114.608C48.6582 122.305 42.9871 125.144 34.43 127.041C25.8729 128.938 17.6701 129.175 15.939 121.478Z" fill="#5D6CCF"/>
<path d="M59.8376 131.971C64.4806 127.358 67.0619 122.445 65.6033 120.998C64.1446 119.551 59.1982 122.118 54.5552 126.731C49.9123 131.344 47.3309 136.257 48.7896 137.704C50.2483 139.151 55.1947 136.585 59.8376 131.971Z" fill="#3F3D56"/>
<path d="M19.4548 139.187C20.9135 137.74 18.3321 132.827 13.6892 128.214C9.04624 123.601 4.09987 121.034 2.64119 122.481C1.1825 123.928 3.76386 128.841 8.40682 133.455C13.0498 138.068 17.9961 140.634 19.4548 139.187Z" fill="#3F3D56"/>
<path d="M35.8331 145.532C39.8798 145.532 43.1603 142.275 43.1603 138.257C43.1603 134.239 39.8798 130.982 35.8331 130.982C31.7864 130.982 28.5059 134.239 28.5059 138.257C28.5059 142.275 31.7864 145.532 35.8331 145.532Z" fill="white"/>
<path d="M35.833 140.679C37.1819 140.679 38.2755 139.594 38.2755 138.255C38.2755 136.916 37.1819 135.83 35.833 135.83C34.4841 135.83 33.3906 136.916 33.3906 138.255C33.3906 139.594 34.4841 140.679 35.833 140.679Z" fill="#3F3D56"/>
<path d="M41.6494 151.709C41.7615 152.32 41.7512 152.947 41.6191 153.555C41.4871 154.162 41.2358 154.737 40.8798 155.248C40.5237 155.759 40.0697 156.195 39.5438 156.532C39.0179 156.869 38.4304 157.099 37.8147 157.211C37.1991 157.322 36.5674 157.312 35.9557 157.181C35.3441 157.05 34.7644 156.8 34.2498 156.447C33.7352 156.093 33.2958 155.642 32.9567 155.12C32.6175 154.598 32.3853 154.015 32.2732 153.404L32.2715 153.394C31.8027 150.823 33.8049 149.914 36.3946 149.448C38.9842 148.983 41.1806 149.138 41.6494 151.709Z" fill="white"/>
</svg>
