<svg width="206" height="172" viewBox="0 0 206 172" fill="none" xmlns="http://www.w3.org/2000/svg">
<path d="M63.4907 66.9769C64.0652 67.3336 64.6293 67.6969 65.1925 68.0721C71.1422 83.0112 74.5393 98.8404 75.2423 114.901C75.3289 116.758 75.3729 118.613 75.3742 120.464C75.4255 134.35 73.4008 148.165 69.3669 161.453C69.1541 162.153 68.9366 162.85 68.7145 163.544C68.5554 164.042 68.3933 164.544 68.2176 165.038C68.0307 165.292 67.8466 165.54 67.6626 165.789C67.6496 165.8 67.6383 165.818 67.6251 165.829C67.5509 165.93 67.4768 166.03 67.4101 166.129C67.0919 166.555 66.7689 166.979 66.4508 167.405L66.7188 167.423L67.3905 167.465L67.3877 167.47C67.1622 167.465 66.9321 167.458 66.7047 167.446C66.6221 167.446 66.5321 167.448 66.4477 167.441C66.3725 167.439 66.2927 167.435 66.2174 167.434C56.5321 167.172 46.6202 166.689 37.8065 162.736C28.5815 158.596 20.7562 149.643 21.1539 139.559C21.2098 138.238 21.4106 136.928 21.7526 135.651C21.8954 135.117 22.0641 134.593 22.2448 134.071C23.3449 130.869 25.2795 128.018 27.8497 125.81C30.4199 123.602 33.533 122.117 36.8689 121.507C40.2048 120.898 43.6431 121.186 46.8303 122.343C50.0175 123.499 52.8386 125.482 55.0036 128.087C52.3598 117.718 41.0101 112.426 30.7877 109.209C20.5578 105.994 9.04815 102.631 3.82178 93.2884C0.903794 88.0892 0.833535 82.0317 2.73756 76.438C2.79552 76.2708 2.85641 76.099 2.92186 75.93C5.31987 69.3485 10.118 63.9124 16.3574 60.7079C28.0478 54.9314 42.2532 56.9695 54.2315 62.1253C57.4363 63.5066 60.5316 65.1285 63.4907 66.9769Z" fill="#E9E9EB"/>
<path d="M29.9839 134.112C39.1727 134.955 47.8458 138.727 54.7212 144.869C60.577 150.158 64.8978 156.923 67.2303 164.454C67.366 164.885 67.4896 165.315 67.6057 165.747C67.8378 165.306 68.0633 164.855 68.2862 164.408C68.4297 164.122 68.576 163.832 68.7148 163.543C68.5557 164.041 68.3936 164.544 68.2179 165.038C68.031 165.291 67.8469 165.54 67.6629 165.788C67.6499 165.799 67.6386 165.817 67.6254 165.829C67.5513 165.929 67.4771 166.029 67.4104 166.128C67.0922 166.554 66.7692 166.978 66.4511 167.404L66.7191 167.422L67.3908 167.465L67.3881 167.469C67.1625 167.464 66.9324 167.457 66.705 167.445C66.6224 167.445 66.5324 167.447 66.448 167.44C66.4202 167.309 66.3851 167.18 66.3501 167.051C63.9693 157.325 58.1418 148.787 49.9442 143.015C41.7466 137.243 31.7329 134.627 21.7529 135.65C21.8957 135.116 22.0644 134.592 22.2451 134.07C24.8211 133.859 27.4105 133.874 29.9839 134.112Z" fill="white"/>
<path d="M60.514 95.7572C64.2008 98.514 67.4644 101.793 70.2013 105.492C71.6273 107.463 72.8662 109.563 73.902 111.764C74.3931 112.785 74.8401 113.837 75.2425 114.899C75.3291 116.756 75.3731 118.611 75.3744 120.462C75.0326 119.063 74.6162 117.682 74.1269 116.327C73.8723 115.582 73.5896 114.853 73.2892 114.132C69.92 106.055 63.8157 99.6776 56.6164 94.8291C48.9019 89.6412 40.2047 85.7467 31.3907 82.8508C22.3577 79.8691 12.9926 78.0037 3.50483 77.2964C3.29056 77.2791 3.09124 77.18 2.94837 77.0197C2.8055 76.8594 2.7301 76.6503 2.73785 76.4359C2.73056 76.249 2.79669 76.0667 2.92215 75.9278C2.9888 75.8627 3.06982 75.814 3.15873 75.7858C3.24764 75.7576 3.34195 75.7506 3.43406 75.7653C4.60489 75.8527 5.77269 75.9451 6.94042 76.0687C16.6566 77.0674 26.2105 79.2684 35.3823 82.6207C44.2363 85.8449 52.999 90.0261 60.514 95.7572Z" fill="white"/>
<path d="M12.3716 51.0886C14.1651 51.0886 15.6191 49.6378 15.6191 47.848C15.6191 46.0583 14.1651 44.6074 12.3716 44.6074C10.578 44.6074 9.12402 46.0583 9.12402 47.848C9.12402 49.6378 10.578 51.0886 12.3716 51.0886Z" fill="#F2F2F2"/>
<path d="M148.707 78.1992H115.337V169.717H148.707V78.1992Z" fill="#F9575E"/>
<rect x="65.0244" y="66.3184" width="133.452" height="103.491" rx="5.82854" fill="#5D6CCF"/>
<path opacity="0.2" d="M65.0244 64.1328V82.5778L198.477 91.0988L198.083 68.3397L65.0244 64.1328Z" fill="black"/>
<path d="M114.612 78.7129H148.158V166.172C148.158 169.391 145.548 172.001 142.329 172.001H120.441C117.222 172.001 114.612 169.391 114.612 166.172V78.7129Z" fill="#3F3D56"/>
<rect x="206" y="45.9082" width="32.5706" height="149" rx="5.82854" transform="rotate(90 206 45.9082)" fill="#5D6CCF"/>
<path d="M147.979 42.5293H114.609V77.818H147.979V42.5293Z" fill="#3F3D56"/>
<path d="M127.923 13.2189C136.732 26.2686 128.432 47.2571 128.432 47.2571C128.432 47.2571 105.851 47.088 97.0427 34.0383C88.2341 20.9886 96.5334 0 96.5334 0C96.5334 0 119.114 0.169189 127.923 13.2189Z" fill="#3F3D56"/>
<path d="M131.966 13.2189C123.157 26.2686 131.456 47.2571 131.456 47.2571C131.456 47.2571 154.037 47.088 162.846 34.0383C171.654 20.9886 163.355 0 163.355 0C163.355 0 140.774 0.169189 131.966 13.2189Z" fill="#3F3D56"/>
<path d="M36.7357 162.118C48.5761 162.118 58.1746 152.539 58.1746 140.722C58.1746 128.905 48.5761 119.326 36.7357 119.326C24.8954 119.326 15.2969 128.905 15.2969 140.722C15.2969 152.539 24.8954 162.118 36.7357 162.118Z" fill="#3F3D56"/>
<path d="M33.4779 157.514H26.9648V169.16H33.4779V157.514Z" fill="#3F3D56"/>
<path d="M46.5043 157.514H39.9912V169.16H46.5043V157.514Z" fill="#3F3D56"/>
<path d="M32.3924 171.326C35.39 171.326 37.82 170.416 37.82 169.295C37.82 168.173 35.39 167.264 32.3924 167.264C29.3948 167.264 26.9648 168.173 26.9648 169.295C26.9648 170.416 29.3948 171.326 32.3924 171.326Z" fill="#3F3D56"/>
<path d="M45.4188 171.054C48.4163 171.054 50.8463 170.145 50.8463 169.023C50.8463 167.901 48.4163 166.992 45.4188 166.992C42.4212 166.992 39.9912 167.901 39.9912 169.023C39.9912 170.145 42.4212 171.054 45.4188 171.054Z" fill="#3F3D56"/>
<path d="M15.939 120.824C14.2079 113.087 19.7415 105.269 28.2987 103.362C36.8558 101.455 45.196 106.181 46.9271 113.919C48.6582 121.656 42.9871 124.509 34.43 126.416C25.8729 128.323 17.6701 128.561 15.939 120.824Z" fill="#5D6CCF"/>
<path d="M59.8376 131.371C64.4806 126.734 67.0619 121.796 65.6032 120.341C64.1446 118.886 59.1982 121.466 54.5552 126.104C49.9123 130.741 47.3309 135.679 48.7896 137.134C50.2483 138.589 55.1947 136.009 59.8376 131.371Z" fill="#3F3D56"/>
<path d="M19.4548 138.626C20.9135 137.171 18.3321 132.233 13.6892 127.596C9.04624 122.958 4.09987 120.378 2.64119 121.833C1.1825 123.288 3.76386 128.226 8.40682 132.863C13.0498 137.501 17.9961 140.081 19.4548 138.626Z" fill="#3F3D56"/>
<path d="M35.8331 145.004C39.8798 145.004 43.1603 141.73 43.1603 137.691C43.1603 133.653 39.8798 130.379 35.8331 130.379C31.7864 130.379 28.5059 133.653 28.5059 137.691C28.5059 141.73 31.7864 145.004 35.8331 145.004Z" fill="white"/>
<path d="M35.833 140.126C37.1819 140.126 38.2755 139.035 38.2755 137.689C38.2755 136.343 37.1819 135.252 35.833 135.252C34.4841 135.252 33.3906 136.343 33.3906 137.689C33.3906 139.035 34.4841 140.126 35.833 140.126Z" fill="#3F3D56"/>
<path d="M41.6494 151.214C41.7615 151.828 41.7512 152.459 41.6191 153.069C41.4871 153.68 41.2358 154.258 40.8798 154.772C40.5237 155.285 40.0697 155.724 39.5438 156.062C39.0179 156.401 38.4304 156.633 37.8147 156.744C37.1991 156.856 36.5674 156.846 35.9557 156.714C35.3441 156.582 34.7644 156.332 34.2498 155.976C33.7352 155.621 33.2958 155.168 32.9567 154.643C32.6175 154.118 32.3853 153.532 32.2732 152.917L32.2715 152.908C31.8027 150.324 33.8049 149.409 36.3946 148.941C38.9842 148.474 41.1806 148.63 41.6494 151.214Z" fill="white"/>
</svg>
