<svg width="96" height="96" viewBox="0 0 96 96" fill="none" xmlns="http://www.w3.org/2000/svg">
<path d="M0 24C0 10.7452 10.7452 0 24 0H72C85.2548 0 96 10.7452 96 24V72C96 85.2548 85.2548 96 72 96H24C10.7452 96 0 85.2548 0 72V24Z" fill="url(#paint0_linear_2195_5861)"/>
<path fill-rule="evenodd" clip-rule="evenodd" d="M48.6705 18.2115C48.2685 17.9295 47.733 17.9295 47.331 18.2115L15.499 40.5387C14.5659 41.1932 15.029 42.6599 16.1688 42.6599V42.6599C20.6709 42.6599 24.3206 46.3096 24.3206 50.8117V72.7352C24.3206 74.1308 24.875 75.4691 25.8618 76.4559C26.8487 77.4427 28.1871 77.9971 29.5828 77.9971V77.9971C32.489 77.9971 34.845 75.6411 34.845 72.7348V56.9498C34.845 53.461 36.231 50.115 38.6982 47.6481C41.1653 45.1811 44.5115 43.7952 48.0006 43.7952C51.4896 43.7952 54.8358 45.1811 57.3029 47.6481C59.7701 50.115 61.1561 53.461 61.1561 56.9498V72.7348C61.1561 75.6411 63.5121 77.9971 66.4183 77.9971V77.9971C67.814 77.9971 69.1524 77.4427 70.1393 76.4559C71.1261 75.4691 71.6806 74.1308 71.6806 72.7352V50.812C71.6806 46.3098 75.3304 42.6599 79.8327 42.6599V42.6599C80.9724 42.6599 81.4355 41.1932 80.5024 40.5387L48.6705 18.2115Z" fill="white"/>
<path d="M48.0549 77.9694L41.0486 70.9619C38.8085 68.7215 37.55 65.6827 37.55 62.5142C37.55 59.3457 38.8085 56.307 41.0486 54.0665L42.9317 52.1831L49.942 59.1945C52.1803 61.4353 53.4373 64.4734 53.4366 67.6411C53.4358 70.8085 52.1774 73.8461 49.938 76.0858L48.0549 77.9694Z" fill="white"/>
<path opacity="0.5" d="M46.0142 59.1921L53.0284 52.1768L54.9115 54.0602C56.0218 55.1697 56.9026 56.4872 57.5036 57.9374C58.1046 59.3876 58.414 60.942 58.414 62.5118C58.414 64.0817 58.1046 65.6361 57.5036 67.0863C56.9026 68.5364 56.0218 69.8539 54.9115 70.9635L47.9012 77.9748L46.0142 76.0875C43.7741 73.847 42.5156 70.8083 42.5156 67.6398C42.5156 64.4713 43.7741 61.4326 46.0142 59.1921Z" fill="white"/>
<defs>
<linearGradient id="paint0_linear_2195_5861" x1="0.141426" y1="-1.3411e-07" x2="96.1414" y2="96" gradientUnits="userSpaceOnUse">
<stop stop-color="#F9575E"/>
<stop offset="1" stop-color="#FA797E"/>
</linearGradient>
</defs>
</svg>
