<svg width="96" height="96" viewBox="0 0 96 96" fill="none" xmlns="http://www.w3.org/2000/svg">
<path d="M0 24C0 10.7452 10.7452 0 24 0H72C85.2548 0 96 10.7452 96 24V72C96 85.2548 85.2548 96 72 96H24C10.7452 96 0 85.2548 0 72V24Z" fill="url(#paint0_linear_2195_5855)"/>
<path opacity="0.5" d="M64.6134 33C64.6134 32.0054 63.6473 19.7417 64.6134 27.6967C65.2321 26.9934 66.4713 25.5 67.3462 25.5C68.2211 25.5 70.5923 24.7967 71.2109 25.5C71.8295 26.2033 71.2109 32.0054 71.2109 33L71.2109 63C71.2109 66.9782 69.8207 70.7936 67.3462 73.6066C64.8717 76.4196 61.5155 78 58.016 78C54.5165 78 51.1603 76.4196 48.6858 73.6066C46.2112 70.7936 44.8211 66.9782 44.8211 63L44.8211 33C44.8211 31.0109 44.126 29.1032 42.8887 27.6967C41.6514 26.2902 39.9733 25.5 38.2236 25.5C36.4738 25.5 34.7957 26.2902 33.5585 27.6967C32.3212 29.1032 31.6261 31.0109 31.6261 33L31.6261 66.75C31.6261 67.7446 31.2786 68.6984 30.66 69.4017C30.0413 70.1049 29.2023 70.5 28.3274 70.5C27.4525 70.5 26.6135 70.1049 25.9948 69.4017C25.3762 68.6984 25.0287 67.7446 25.0287 66.75L25.0287 33C25.0287 29.0217 26.4188 25.2064 28.8934 22.3934C31.3679 19.5803 34.7241 18 38.2236 18C41.7231 18 45.0793 19.5804 47.5538 22.3934C50.0283 25.2064 51.4185 29.0218 51.4185 33L51.4185 63C51.4185 64.9891 52.1136 66.8968 53.3509 68.3033C54.5881 69.7098 56.2662 70.5 58.016 70.5C59.7657 70.5 61.4438 69.7098 62.6811 68.3033C63.9183 66.8968 64.6134 64.9891 64.6134 63L64.6134 33Z" fill="white"/>
<path d="M60.2098 35.5869C59.5855 36.2675 58.7493 36.6441 57.8814 36.6356C57.0135 36.6271 56.1832 36.2341 55.5695 35.5414C54.9558 34.8486 54.6077 33.9114 54.6001 32.9317C54.5926 31.952 54.9262 31.0082 55.5292 30.3035L65.4597 19.094C66.0805 18.3935 66.9223 18 67.8 18C68.6777 18 69.5195 18.3935 70.1403 19.094L80.0708 30.3035C80.6738 31.0082 81.0074 31.952 80.9999 32.9317C80.9923 33.9114 80.6442 34.8486 80.0305 35.5414C79.4167 36.2341 78.5865 36.6271 77.7186 36.6356C76.8507 36.6441 76.0145 36.2675 75.3902 35.5869L67.8 27.0191L60.2098 35.5869Z" fill="white"/>
<path d="M20.6328 60.4556C20.014 59.7569 19.1747 59.3643 18.2996 59.3643C17.4245 59.3643 16.5853 59.7569 15.9664 60.4556C15.3477 61.1546 15.0001 62.1026 15.0001 63.091C15.0001 64.0793 15.3477 65.0273 15.9664 65.7263L25.8669 76.9087C26.4858 77.6074 27.3251 78 28.2001 78C29.0752 78 29.9145 77.6074 30.5334 76.9087L40.4339 65.7263C41.0526 65.0273 41.4001 64.0793 41.4001 63.091C41.4001 62.1026 41.0526 61.1546 40.4339 60.4556C39.815 59.7569 38.9758 59.3643 38.1007 59.3643C37.2256 59.3643 36.3863 59.7569 35.7674 60.4556L28.2001 69.0027L20.6328 60.4556Z" fill="white"/>
<defs>
<linearGradient id="paint0_linear_2195_5855" x1="0.141449" y1="-4.30271e-07" x2="96.1414" y2="96" gradientUnits="userSpaceOnUse">
<stop stop-color="#3E8C6A"/>
<stop offset="1" stop-color="#5C997E"/>
</linearGradient>
</defs>
</svg>
