<svg width="618" height="180" viewBox="0 0 618 180" fill="none" xmlns="http://www.w3.org/2000/svg">
<path d="M73.183 179.942L24.3731 131.049C8.76725 115.417 0 94.2145 0 72.1066C0 49.9994 8.76725 28.7974 24.3731 13.165L37.492 0.0239258L86.3297 48.9443C101.923 64.5792 110.68 85.777 110.675 107.879C110.67 129.979 101.903 151.173 86.3021 166.8L73.183 179.942Z" fill="url(#paint0_linear_52_301)"/>
<path d="M60.0695 48.9479L108.935 0L122.054 13.1411C129.789 20.8825 135.925 30.075 140.112 40.1934C144.299 50.3118 146.454 61.1573 146.454 72.1106C146.454 83.0638 144.299 93.9094 140.112 104.028C135.925 114.146 129.789 123.338 122.054 131.08L73.2156 180L60.0695 166.832C44.4636 151.199 35.6964 129.997 35.6964 107.89C35.6964 85.7821 44.4636 64.5802 60.0695 48.9479Z" fill="url(#paint1_linear_52_301)"/>
<path d="M253.877 141.929C243.34 141.929 235.007 139.582 228.876 134.888C222.746 130.099 219.681 123.729 219.681 115.779V111.038C219.681 110.08 220.16 109.601 221.118 109.601H225.572C226.53 109.601 227.009 110.08 227.009 111.038V115.348C227.009 121.287 229.451 126.076 234.336 129.716C239.221 133.356 245.926 135.176 254.451 135.176C262.402 135.176 268.484 133.547 272.699 130.291C276.913 126.938 279.021 122.34 279.021 116.497C279.021 112.953 278.063 109.888 276.147 107.302C274.327 104.62 271.453 102.129 267.526 99.8306C263.695 97.5318 258.235 94.8976 251.147 91.9283C243.675 88.7673 238.024 86.1332 234.193 84.0259C230.457 81.9186 227.44 79.2845 225.141 76.1235C222.842 72.8668 221.692 68.7001 221.692 63.6234C221.692 55.7689 224.374 49.7344 229.738 45.5198C235.198 41.2094 242.718 39.0542 252.296 39.0542C262.737 39.0542 270.927 41.4489 276.865 46.2382C282.804 51.0275 285.773 57.4452 285.773 65.4912V68.7959C285.773 69.7537 285.295 70.2326 284.337 70.2326H279.595C278.637 70.2326 278.158 69.7537 278.158 68.7959V65.9223C278.158 59.8877 275.86 55.0505 271.262 51.4106C266.664 47.675 260.199 45.8071 251.865 45.8071C244.585 45.8071 238.982 47.3397 235.055 50.4049C231.127 53.3743 229.164 57.6846 229.164 63.336C229.164 67.1675 230.074 70.2805 231.894 72.6752C233.714 75.0699 236.3 77.1772 239.652 78.9971C243.101 80.7213 248.369 83.0201 255.457 85.8937C262.545 88.7673 268.245 91.5451 272.555 94.2271C276.961 96.8134 280.409 99.8785 282.9 103.423C285.39 106.967 286.636 111.229 286.636 116.21C286.636 123.969 283.762 130.195 278.015 134.888C272.268 139.582 264.222 141.929 253.877 141.929ZM334.63 135.176C339.131 135.176 342.963 134.17 346.124 132.159C349.381 130.051 351.919 127.178 353.739 123.538C354.218 122.676 354.84 122.436 355.607 122.819L359.342 124.687C360.204 125.166 360.444 125.789 360.061 126.555C357.953 131.249 354.601 134.984 350.003 137.762C345.501 140.54 340.185 141.929 334.055 141.929C327.35 141.929 321.65 140.3 316.957 137.044C312.263 133.787 309.055 129.333 307.33 123.681C306.564 121.287 306.037 118.605 305.75 115.635C305.463 112.666 305.319 108.93 305.319 104.428C305.319 99.7348 305.367 96.1908 305.463 93.7961C305.654 91.4014 305.989 89.1983 306.468 87.1868C308.001 81.1523 311.114 76.3151 315.808 72.6752C320.597 69.0353 326.44 67.2154 333.336 67.2154C341.191 67.2154 347.465 69.2748 352.158 73.3936C356.852 77.4166 359.773 83.0201 360.923 90.2041C361.21 92.024 361.402 94.1792 361.498 96.6697C361.593 99.0643 361.641 102.082 361.641 105.721C361.641 106.679 361.162 107.158 360.204 107.158H313.365C312.982 107.158 312.79 107.35 312.79 107.733C312.79 113.863 313.03 117.934 313.509 119.946C314.562 124.639 316.909 128.375 320.549 131.153C324.285 133.835 328.978 135.176 334.63 135.176ZM313.796 88.911C313.317 90.7309 312.982 94.4666 312.79 100.118C312.79 100.501 312.982 100.693 313.365 100.693H353.452C353.835 100.693 354.026 100.501 354.026 100.118C354.026 95.3287 353.787 91.7367 353.308 89.342C352.254 84.7443 349.955 81.0565 346.411 78.2787C342.867 75.4051 338.509 73.9683 333.336 73.9683C328.164 73.9683 323.854 75.3572 320.405 78.135C316.957 80.817 314.754 84.409 313.796 88.911ZM412.255 67.3591C419.631 67.3591 425.57 69.61 430.072 74.112C434.669 78.614 436.968 84.5527 436.968 91.9283V139.342C436.968 140.3 436.489 140.779 435.531 140.779H430.79C429.832 140.779 429.353 140.3 429.353 139.342V93.3651C429.353 87.7137 427.629 83.1159 424.181 79.5718C420.732 75.9319 416.23 74.112 410.675 74.112C404.928 74.112 400.282 75.884 396.738 79.4281C393.194 82.8764 391.422 87.4263 391.422 93.0777V139.342C391.422 140.3 390.943 140.779 389.985 140.779H385.244C384.286 140.779 383.807 140.3 383.807 139.342V69.8016C383.807 68.8437 384.286 68.3648 385.244 68.3648H389.985C390.943 68.3648 391.422 68.8437 391.422 69.8016V76.8419C391.422 77.1293 391.47 77.3208 391.566 77.4166C391.757 77.4166 391.901 77.3208 391.997 77.1293C394.104 73.9683 396.882 71.5737 400.33 69.9453C403.778 68.2211 407.753 67.3591 412.255 67.3591ZM491.151 73.3936C491.151 74.3515 490.672 74.8304 489.715 74.8304H472.904C472.521 74.8304 472.329 75.022 472.329 75.4051V120.808C472.329 125.693 473.431 129.141 475.634 131.153C477.837 133.068 481.381 134.026 486.266 134.026H489.571C490.529 134.026 491.008 134.505 491.008 135.463V139.342C491.008 140.3 490.529 140.779 489.571 140.779L485.26 140.923C478.555 140.923 473.479 139.63 470.03 137.044C466.678 134.457 464.954 129.716 464.858 122.819V75.4051C464.858 75.022 464.666 74.8304 464.283 74.8304H455.663C454.705 74.8304 454.226 74.3515 454.226 73.3936V69.8016C454.226 68.8437 454.705 68.3648 455.663 68.3648H464.283C464.666 68.3648 464.858 68.1732 464.858 67.7901V51.4106C464.858 50.4528 465.337 49.9738 466.295 49.9738H470.893C471.85 49.9738 472.329 50.4528 472.329 51.4106V67.7901C472.329 68.1732 472.521 68.3648 472.904 68.3648H489.715C490.672 68.3648 491.151 68.8437 491.151 69.8016V73.3936ZM539.913 67.7901C543.169 67.7901 545.947 68.3648 548.246 69.5142C549.012 69.8016 549.3 70.4242 549.108 71.3821L547.815 75.9798C547.528 76.9377 546.905 77.2251 545.947 76.8419C544.031 76.0756 541.637 75.7404 538.763 75.8362C533.399 75.9319 528.945 77.9913 525.401 82.0144C521.953 85.9416 520.229 90.7788 520.229 96.526V139.342C520.229 140.3 519.75 140.779 518.792 140.779H514.05C513.092 140.779 512.613 140.3 512.613 139.342V69.8016C512.613 68.8437 513.092 68.3648 514.05 68.3648H518.792C519.75 68.3648 520.229 68.8437 520.229 69.8016V79.5718C520.229 79.8592 520.276 80.0508 520.372 80.1465C520.564 80.1465 520.707 80.0029 520.803 79.7155C522.815 75.9798 525.401 73.0583 528.562 70.951C531.819 68.8437 535.602 67.7901 539.913 67.7901ZM590.839 135.176C595.341 135.176 599.172 134.17 602.333 132.159C605.59 130.051 608.128 127.178 609.948 123.538C610.427 122.676 611.05 122.436 611.816 122.819L615.552 124.687C616.414 125.166 616.653 125.789 616.27 126.555C614.163 131.249 610.81 134.984 606.213 137.762C601.711 140.54 596.395 141.929 590.264 141.929C583.559 141.929 577.86 140.3 573.166 137.044C568.473 133.787 565.264 129.333 563.54 123.681C562.774 121.287 562.247 118.605 561.959 115.635C561.672 112.666 561.528 108.93 561.528 104.428C561.528 99.7348 561.576 96.1908 561.672 93.7961C561.864 91.4014 562.199 89.1983 562.678 87.1868C564.21 81.1523 567.323 76.3151 572.017 72.6752C576.806 69.0353 582.649 67.2154 589.546 67.2154C597.4 67.2154 603.674 69.2748 608.368 73.3936C613.061 77.4166 615.983 83.0201 617.132 90.2041C617.42 92.024 617.611 94.1792 617.707 96.6697C617.803 99.0643 617.851 102.082 617.851 105.721C617.851 106.679 617.372 107.158 616.414 107.158H569.574C569.191 107.158 569 107.35 569 107.733C569 113.863 569.239 117.934 569.718 119.946C570.772 124.639 573.118 128.375 576.758 131.153C580.494 133.835 585.188 135.176 590.839 135.176ZM570.005 88.911C569.527 90.7309 569.191 94.4666 569 100.118C569 100.501 569.191 100.693 569.574 100.693H609.661C610.044 100.693 610.236 100.501 610.236 100.118C610.236 95.3287 609.996 91.7367 609.517 89.342C608.464 84.7443 606.165 81.0565 602.621 78.2787C599.077 75.4051 594.718 73.9683 589.546 73.9683C584.373 73.9683 580.063 75.3572 576.615 78.135C573.166 80.817 570.963 84.409 570.005 88.911Z" fill="#484848"/>
<defs>
<linearGradient id="paint0_linear_52_301" x1="110.721" y1="89.9963" x2="-0.0180195" y2="89.9963" gradientUnits="userSpaceOnUse">
<stop stop-color="#F9575E"/>
<stop offset="0.27" stop-color="#F8555B"/>
<stop offset="0.49" stop-color="#F44F51"/>
<stop offset="0.68" stop-color="#EE4540"/>
<stop offset="0.87" stop-color="#E63728"/>
<stop offset="1" stop-color="#DE2A13"/>
</linearGradient>
<linearGradient id="paint1_linear_52_301" x1="-332122" y1="278448" x2="-335093" y2="277720" gradientUnits="userSpaceOnUse">
<stop stop-color="#F9575E"/>
<stop offset="0.27" stop-color="#F8555B"/>
<stop offset="0.49" stop-color="#F44F51"/>
<stop offset="0.68" stop-color="#EE4540"/>
<stop offset="0.87" stop-color="#E63728"/>
<stop offset="1" stop-color="#DE2A13"/>
</linearGradient>
</defs>
</svg>
