<svg width="96" height="96" viewBox="0 0 96 96" fill="none" xmlns="http://www.w3.org/2000/svg">
<path d="M0 24C0 10.7452 10.7452 0 24 0H72C85.2548 0 96 10.7452 96 24V72C96 85.2548 85.2548 96 72 96H24C10.7452 96 0 85.2548 0 72V24Z" fill="url(#paint0_linear_2195_5879)"/>
<path d="M78.6843 43.2777H80.6822C80.8172 43.2777 82.5452 43.2226 81.6272 40.7444C80.6552 38.156 77.6314 37.9908 77.6314 37.9908L73.0415 21.0014C73.0415 21.0014 72.4746 18 69.5857 18C66.6698 18 42.5057 18 42.5057 18C42.5057 18 38.7799 18.0826 38.7799 22.268H42.2897L38.1319 38.2386H34.028V29.7026C34.028 29.7026 34.001 26.8114 31.1121 26.8114C28.1963 26.8114 27.2513 26.8114 27.2513 26.8114L28.4393 29.9229H30.3832C30.3832 29.9229 30.4102 29.9229 30.4372 29.9229C30.5992 29.9229 31.0852 30.0055 31.0852 30.9693C31.0852 32.1257 31.0852 38.3212 31.0852 38.3212H17.9367C17.9367 38.3212 17.9367 38.3212 17.9097 38.3212C17.5587 38.3212 13.1848 38.4039 13.1848 42.8922C13.1848 47.5732 14.0218 55.8339 14.0218 55.8339C10.9979 58.0367 9 61.6714 9 65.8017C9 72.548 14.3728 78 20.9875 78C27.6023 78 32.9751 72.5204 32.9751 65.7742C32.9751 63.0482 32.0841 60.5149 30.5992 58.4773H35L35.945 61.0381H45.5836L46.4206 58.3671L49.7954 58.3947C49.7954 58.615 49.7954 58.8077 49.7954 59.028C49.7954 69.4915 58.1111 78 68.3977 78C78.6573 78 87 69.519 87 59.028C86.946 52.4745 83.6521 46.6921 78.6843 43.2777ZM21.0145 72.19C17.5047 72.19 14.6428 69.2712 14.6428 65.6916C14.6428 62.112 17.5047 59.1932 21.0145 59.1932C24.5244 59.1932 27.3863 62.112 27.3863 65.6916C27.4133 69.2712 24.5514 72.19 21.0145 72.19ZM59.3801 23.4245C59.3801 23.2593 59.4071 22.4057 60.055 21.7724C60.352 21.4695 60.865 21.1115 61.729 21.1115H69.1267C69.4237 21.1115 70.9626 21.2492 71.5026 23.7274C71.9076 25.5172 74.1215 34.9894 74.2025 35.4025C74.2565 35.6228 74.4995 36.7242 73.8515 37.6053C73.5545 38.0184 72.9605 38.4865 71.8806 38.4865H61.729C60.784 38.4865 59.4071 37.8531 59.4071 36.0909V23.4245H59.3801ZM44.0986 38.5966C44.0717 38.5966 44.0447 38.5966 44.0177 38.5966C43.9097 38.5966 42.8567 38.4865 42.2357 37.6329C41.9387 37.2474 41.6417 36.5865 41.8577 35.5677C42.2087 33.9156 44.4766 22.9564 44.5036 22.8463C44.5036 22.8187 44.5036 22.7912 44.5306 22.7361C44.7196 22.1303 45.3946 21.1115 46.7715 21.1115H55.6002C56.4912 21.1115 57.9221 21.7724 57.9221 23.5071V36.4488C57.9221 36.4764 57.9221 36.5039 57.9221 36.5039C57.8681 37.33 57.2201 38.5691 55.6272 38.5691H44.0986V38.5966ZM68.3977 71.6117C61.675 71.6117 56.1942 66.022 56.1942 59.1657C56.1942 52.3093 61.675 46.7196 68.3977 46.7196C75.1205 46.7196 80.6012 52.3093 80.6012 59.1657C80.6012 66.022 75.1205 71.6117 68.3977 71.6117Z" fill="#212433"/>
<path opacity="0.5" d="M73.8512 37.6056C73.5542 38.0187 72.9602 38.4868 71.8803 38.4868H61.7287C60.7837 38.4868 59.4067 37.8534 59.4067 36.0912V23.4248C59.4067 23.2596 59.4337 22.406 60.0817 21.7727C60.3787 21.4698 60.8917 21.1118 61.7556 21.1118H69.1534C69.4504 21.1118 70.9893 21.2495 71.5293 23.7277C71.9343 25.5175 74.1482 34.9897 74.2292 35.4028C74.2562 35.6506 74.4992 36.752 73.8512 37.6056Z" fill="#212433"/>
<path opacity="0.5" d="M57.922 23.5071V36.4488C57.922 36.4764 57.922 36.5039 57.922 36.5039C57.868 37.33 57.2201 38.5691 55.6271 38.5691H44.0986C44.0716 38.5691 44.0446 38.5691 44.0176 38.5691C43.9096 38.5691 42.8566 38.4589 42.2356 37.6053C41.9387 37.2198 41.6417 36.559 41.8577 35.5402C42.2086 33.888 44.4766 22.9289 44.5036 22.8187C44.5036 22.7912 44.5036 22.7637 44.5306 22.7086C44.7195 22.1028 45.3945 21.084 46.7715 21.084H55.6001C56.4911 21.1115 57.922 21.7724 57.922 23.5071Z" fill="#212433"/>
<path opacity="0.5" d="M68.3978 47.7385C62.242 47.7385 57.2202 52.8601 57.2202 59.1382C57.2202 65.4164 62.242 70.538 68.3978 70.538C74.5535 70.538 79.5753 65.4164 79.5753 59.1382C79.5753 52.8601 74.5535 47.7385 68.3978 47.7385ZM68.3978 64.9758C65.2389 64.9758 62.701 62.3599 62.701 59.1658C62.701 55.9441 65.2659 53.3558 68.3978 53.3558C71.5567 53.3558 74.0946 55.9717 74.0946 59.1658C74.0946 62.3599 71.5297 64.9758 68.3978 64.9758Z" fill="#212433"/>
<path opacity="0.5" d="M21.0145 60.2119C18.0716 60.2119 15.6687 62.6626 15.6687 65.664C15.6687 68.6653 18.0716 71.116 21.0145 71.116C23.9574 71.116 26.3603 68.6653 26.3603 65.664C26.3873 62.6626 23.9844 60.2119 21.0145 60.2119ZM21.0145 68.3349C19.5836 68.3349 18.3956 67.1509 18.3956 65.664C18.3956 64.2046 19.5566 62.993 21.0145 62.993C22.4454 62.993 23.6334 64.177 23.6334 65.664C23.6334 67.1509 22.4724 68.3349 21.0145 68.3349Z" fill="#212433"/>
<defs>
<linearGradient id="paint0_linear_2195_5879" x1="0.141449" y1="-4.30271e-07" x2="96.1414" y2="96" gradientUnits="userSpaceOnUse">
<stop stop-color="#FFD666"/>
<stop offset="1" stop-color="#FFE58F"/>
</linearGradient>
</defs>
</svg>
