<svg width="96" height="96" viewBox="0 0 96 96" fill="none" xmlns="http://www.w3.org/2000/svg">
<path d="M0 24C0 10.7452 10.7452 0 24 0H72C85.2548 0 96 10.7452 96 24V72C96 85.2548 85.2548 96 72 96H24C10.7452 96 0 85.2548 0 72V24Z" fill="url(#paint0_linear_2195_5870)"/>
<path opacity="0.5" d="M45.5574 25.7952L51.8373 30.5769C53.3065 28.6411 55.3357 27.2043 57.6493 26.4616C59.9629 25.7189 62.4489 25.7063 64.7699 26.4254C67.091 27.1446 69.1346 28.5607 70.6234 30.4815C72.1123 32.4024 72.9743 34.7349 73.0925 37.1627C73.2106 39.5904 72.5792 41.9957 71.2839 44.0521C69.9885 46.1085 68.0921 47.7165 65.8519 48.6578C63.6116 49.599 61.1362 49.828 58.7614 49.3136C56.3866 48.7993 54.2275 47.5664 52.5772 45.7825L46.7857 51.1465C49.5361 54.1192 53.1342 56.1736 57.0917 57.0308C61.0492 57.888 65.1745 57.5065 68.9079 55.9382C72.6413 54.3699 75.8019 51.6906 77.961 48.2639C80.1201 44.8373 81.1731 40.8291 80.977 36.7833C80.781 32.7375 79.3455 28.85 76.8652 25.6483C74.385 22.4466 70.9801 20.0856 67.1126 18.8858C63.2451 17.686 59.1022 17.7055 55.2462 18.9415C51.3901 20.1775 48.0075 22.5703 45.5574 25.7952Z" fill="white"/>
<path fill-rule="evenodd" clip-rule="evenodd" d="M34.8622 57.4779C30.9338 57.4779 27.0937 56.3202 23.8273 54.1512C20.561 51.9823 18.0152 48.8995 16.5119 45.2927C15.0086 41.6859 14.6153 37.717 15.3817 33.8881C16.148 30.0591 18.0397 26.5419 20.8175 23.7814C23.5953 21.0209 27.1344 19.1409 30.9873 18.3793C34.8401 17.6177 38.8338 18.0086 42.4631 19.5025C46.0924 20.9965 49.1945 23.5265 51.377 26.7726C53.5595 30.0186 54.7244 33.8349 54.7244 37.7389C54.7244 42.974 52.6317 47.9947 48.9069 51.6965C45.182 55.3982 40.13 57.4779 34.8622 57.4779V57.4779Z" fill="white"/>
<path opacity="0.5" d="M74.4002 70.6917C72.9469 70.6917 72.2625 71.1027 71.4698 71.5788C70.6156 72.092 69.6475 72.6737 67.8018 72.6737C65.9556 72.6737 64.9875 72.092 64.1331 71.5788C63.3407 71.1027 62.6562 70.6917 61.2024 70.6917C59.7487 70.6917 59.0642 71.1027 58.2718 71.5788C57.4173 72.092 56.4493 72.6737 54.6031 72.6737C52.7569 72.6737 51.7886 72.092 50.9342 71.5788C50.1416 71.103 49.4571 70.6917 48.0031 70.6917C46.5491 70.6917 45.8646 71.103 45.072 71.5788C44.2176 72.092 43.2493 72.6737 41.4031 72.6737C39.5567 72.6737 38.5882 72.092 37.7337 71.5788C36.9411 71.1027 36.2564 70.6917 34.8026 70.6917C33.3489 70.6917 32.6642 71.1027 31.8715 71.5788C31.0171 72.092 30.0487 72.6737 28.2023 72.6737C26.3558 72.6737 25.3873 72.092 24.5327 71.5788C23.74 71.103 23.0553 70.6917 21.6011 70.6917C20.1469 70.6917 19.4622 71.103 18.6696 71.5788C17.8149 72.092 16.8464 72.6737 15 72.6737C15 74.4847 15 78.0003 15 78.0003H81C81 78.0003 81 74.4847 81 72.6737C79.1538 72.6737 78.1855 72.092 77.3311 71.5788C76.5386 71.1027 75.854 70.6917 74.4002 70.6917Z" fill="white"/>
<path opacity="0.5" d="M74.4004 64.4529C72.9471 64.4529 72.2627 64.9342 71.47 65.4917C70.6158 66.0926 69.6477 66.7738 67.802 66.7738C65.9557 66.7738 64.9877 66.0926 64.1333 65.4917C63.3408 64.9342 62.6564 64.4529 61.2026 64.4529C59.7489 64.4529 59.0644 64.9342 58.2719 65.4917C57.4175 66.0926 56.4495 66.7738 54.6032 66.7738C52.757 66.7738 51.7888 66.0926 50.9343 65.4917C50.1417 64.9344 49.4572 64.4529 48.0032 64.4529C46.5492 64.4529 45.8647 64.9344 45.0721 65.4917C44.2177 66.0926 43.2494 66.7738 41.4032 66.7738C39.5567 66.7738 38.5883 66.0926 37.7338 65.4917C36.9412 64.9342 36.2565 64.4529 34.8027 64.4529C33.3489 64.4529 32.6643 64.9342 31.8716 65.4917C31.0172 66.0926 30.0488 66.7738 28.2023 66.7738C26.3558 66.7738 25.3873 66.0926 24.5327 65.4917C23.7401 64.9344 23.0554 64.4529 21.6011 64.4529C20.1469 64.4529 19.4622 64.9344 18.6696 65.4917C17.8149 66.0926 16.8465 66.7738 15 66.7738C15 69.2994 15 69.7691 15 71.8506C16.4542 71.8506 17.1389 71.3691 17.9316 70.8118C18.7862 70.211 19.7547 69.5298 21.6011 69.5298C23.4476 69.5298 24.4161 70.211 25.2707 70.8118C26.0633 71.3691 26.748 71.8506 28.2023 71.8506C29.6562 71.8506 30.3409 71.3691 31.1336 70.8118C31.9881 70.211 32.9565 69.5298 34.8027 69.5298C36.6489 69.5298 37.6174 70.211 38.4719 70.8118C39.2646 71.3691 39.9492 71.8506 41.4032 71.8506C42.857 71.8506 43.5415 71.3694 44.3341 70.8118C45.1886 70.211 46.1568 69.5298 48.0032 69.5298C49.8497 69.5298 50.8179 70.211 51.6724 70.8118C52.465 71.3694 53.1495 71.8506 54.6032 71.8506C56.0568 71.8506 56.7415 71.3694 57.5339 70.8118C58.3884 70.211 59.3564 69.5298 61.2026 69.5298C63.0486 69.5298 64.0168 70.211 64.8711 70.8118C65.6635 71.3694 66.3479 71.8506 67.8017 71.8506C69.2551 71.8506 69.9393 71.3694 70.732 70.8118C71.5862 70.211 72.5542 69.5298 74.4002 69.5298C76.2464 69.5298 77.2147 70.211 78.0691 70.8118C78.8616 71.3694 79.5462 71.8506 81 71.8506C81 69.7691 81 69.2994 81 66.7738C79.1538 66.7738 78.1856 66.0926 77.3311 65.4917C76.5388 64.9342 75.8542 64.4529 74.4004 64.4529Z" fill="white"/>
<defs>
<linearGradient id="paint0_linear_2195_5870" x1="0.141426" y1="-1.3411e-07" x2="96.1414" y2="96" gradientUnits="userSpaceOnUse">
<stop stop-color="#40A9FF"/>
<stop offset="1" stop-color="#69C0FF"/>
</linearGradient>
</defs>
</svg>
