<svg width="23" height="32" viewBox="0 0 23 32" fill="none" xmlns="http://www.w3.org/2000/svg">
<path d="M11.4954 18.4297L6.49631 13.4221C4.89795 11.821 4 9.64949 4 7.38519C4 5.12096 4.89795 2.94944 6.49631 1.34836L7.83995 0.00244141L12.8419 5.01289C14.439 6.61423 15.3359 8.78532 15.3354 11.049C15.3349 13.3125 14.437 15.4832 12.8391 17.0837L11.4954 18.4297Z" fill="url(#paint0_linear_2598_5857)"/>
<path d="M10.1525 5.01327L15.1573 0L16.5009 1.34592C17.2932 2.1388 17.9216 3.0803 18.3505 4.11663C18.7793 5.15296 19 6.26377 19 7.38561C19 8.50744 18.7793 9.61825 18.3505 10.6546C17.9216 11.6909 17.2932 12.6323 16.5009 13.4253L11.4989 18.4357L10.1525 17.087C8.55411 15.4859 7.65616 13.3144 7.65616 11.0502C7.65616 8.78585 8.55411 6.61434 10.1525 5.01327Z" fill="url(#paint1_linear_2598_5857)"/>
<path d="M1.93235 32C1.33695 32 0.86604 31.8631 0.519624 31.5894C0.173208 31.3101 0 30.9385 0 30.4749V30.1983C0 30.1425 0.0270639 30.1145 0.0811913 30.1145H0.332884C0.387012 30.1145 0.414076 30.1425 0.414076 30.1983V30.4497C0.414076 30.7961 0.5521 31.0754 0.828151 31.2877C1.1042 31.5 1.48309 31.6061 1.96483 31.6061C2.41409 31.6061 2.75779 31.5112 2.99596 31.3212C3.23412 31.1257 3.3532 30.8575 3.3532 30.5168C3.3532 30.3101 3.29907 30.1313 3.19081 29.9804C3.08797 29.824 2.92559 29.6788 2.70367 29.5447C2.48716 29.4106 2.17863 29.257 1.77809 29.0838C1.35589 28.8994 1.03654 28.7458 0.820032 28.6229C0.608934 28.5 0.438433 28.3464 0.308527 28.162C0.178621 27.9721 0.113668 27.7291 0.113668 27.433C0.113668 26.9749 0.265225 26.6229 0.568339 26.3771C0.876865 26.1257 1.30177 26 1.84304 26C2.43303 26 2.89582 26.1397 3.23141 26.419C3.567 26.6983 3.7348 27.0726 3.7348 27.5419V27.7346C3.7348 27.7905 3.70773 27.8184 3.6536 27.8184H3.38567C3.33155 27.8184 3.30448 27.7905 3.30448 27.7346V27.567C3.30448 27.2151 3.17458 26.933 2.91476 26.7207C2.65495 26.5028 2.28959 26.3939 1.81868 26.3939C1.40731 26.3939 1.09067 26.4832 0.868746 26.662C0.646824 26.8352 0.535863 27.0866 0.535863 27.4162C0.535863 27.6397 0.587283 27.8212 0.690126 27.9609C0.792968 28.1006 0.939112 28.2235 1.12856 28.3296C1.32342 28.4302 1.62112 28.5642 2.02166 28.7318C2.4222 28.8994 2.74426 29.0615 2.98784 29.2179C3.23682 29.3687 3.43168 29.5475 3.57241 29.7542C3.71314 29.9609 3.78351 30.2095 3.78351 30.5C3.78351 30.9525 3.62113 31.3156 3.29636 31.5894C2.9716 31.8631 2.51693 32 1.93235 32ZM6.49558 31.6061C6.74998 31.6061 6.96649 31.5475 7.14511 31.4302C7.32914 31.3073 7.47258 31.1397 7.57542 30.9274C7.60249 30.8771 7.63767 30.8631 7.68097 30.8855L7.89207 30.9944C7.94078 31.0223 7.95431 31.0587 7.93266 31.1034C7.81358 31.3771 7.62414 31.595 7.36433 31.757C7.10993 31.919 6.80952 32 6.4631 32C6.08421 32 5.76215 31.905 5.49693 31.7151C5.2317 31.5251 5.05038 31.2654 4.95295 30.9358C4.90964 30.7961 4.87987 30.6397 4.86364 30.4665C4.8474 30.2933 4.83928 30.0754 4.83928 29.8128C4.83928 29.5391 4.84198 29.3324 4.8474 29.1927C4.85822 29.0531 4.87717 28.9246 4.90423 28.8073C4.99083 28.4553 5.16675 28.1732 5.43197 27.9609C5.70261 27.7486 6.03279 27.6425 6.42251 27.6425C6.86635 27.6425 7.22089 27.7626 7.48611 28.0028C7.75134 28.2374 7.91643 28.5642 7.98138 28.9832C7.99762 29.0894 8.00844 29.2151 8.01385 29.3603C8.01927 29.5 8.02197 29.676 8.02197 29.8883C8.02197 29.9441 7.99491 29.9721 7.94078 29.9721H5.29395C5.2723 29.9721 5.26147 29.9832 5.26147 30.0056C5.26147 30.3631 5.275 30.6006 5.30207 30.7179C5.36161 30.9916 5.49422 31.2095 5.6999 31.3715C5.911 31.5279 6.17623 31.6061 6.49558 31.6061ZM5.31831 28.9078C5.29124 29.014 5.2723 29.2318 5.26147 29.5615C5.26147 29.5838 5.2723 29.595 5.29395 29.595H7.55918C7.58084 29.595 7.59166 29.5838 7.59166 29.5615C7.59166 29.2821 7.57813 29.0726 7.55106 28.933C7.49152 28.6648 7.36162 28.4497 7.16135 28.2877C6.96108 28.1201 6.7148 28.0363 6.42251 28.0363C6.13022 28.0363 5.88665 28.1173 5.69179 28.2793C5.49693 28.4358 5.37243 28.6453 5.31831 28.9078ZM10.8821 27.6508C11.2989 27.6508 11.6345 27.7821 11.8889 28.0447C12.1487 28.3073 12.2786 28.6536 12.2786 29.0838V31.8492C12.2786 31.905 12.2515 31.933 12.1974 31.933H11.9295C11.8753 31.933 11.8483 31.905 11.8483 31.8492V29.1676C11.8483 28.838 11.7508 28.5698 11.556 28.3631C11.3611 28.1508 11.1067 28.0447 10.7928 28.0447C10.468 28.0447 10.2055 28.148 10.0052 28.3547C9.80497 28.5559 9.70483 28.8212 9.70483 29.1508V31.8492C9.70483 31.905 9.67777 31.933 9.62364 31.933H9.35571C9.30158 31.933 9.27452 31.905 9.27452 31.8492V27.7933C9.27452 27.7374 9.30158 27.7095 9.35571 27.7095H9.62364C9.67777 27.7095 9.70483 27.7374 9.70483 27.7933V28.2039C9.70483 28.2207 9.70754 28.2318 9.71295 28.2374C9.72378 28.2374 9.73189 28.2318 9.73731 28.2207C9.85639 28.0363 10.0134 27.8966 10.2082 27.8017C10.4031 27.7011 10.6277 27.6508 10.8821 27.6508ZM15.3404 28.0028C15.3404 28.0587 15.3133 28.0866 15.2592 28.0866H14.3093C14.2876 28.0866 14.2768 28.0978 14.2768 28.1201V30.7682C14.2768 31.0531 14.339 31.2542 14.4635 31.3715C14.588 31.4832 14.7883 31.5391 15.0644 31.5391H15.2511C15.3052 31.5391 15.3323 31.567 15.3323 31.6229V31.8492C15.3323 31.905 15.3052 31.933 15.2511 31.933L15.0075 31.9413C14.6286 31.9413 14.3418 31.8659 14.1469 31.7151C13.9574 31.5642 13.86 31.2877 13.8546 30.8855V28.1201C13.8546 28.0978 13.8438 28.0866 13.8221 28.0866H13.335C13.2809 28.0866 13.2538 28.0587 13.2538 28.0028V27.7933C13.2538 27.7374 13.2809 27.7095 13.335 27.7095H13.8221C13.8438 27.7095 13.8546 27.6983 13.8546 27.676V26.7207C13.8546 26.6648 13.8817 26.6369 13.9358 26.6369H14.1956C14.2497 26.6369 14.2768 26.6648 14.2768 26.7207V27.676C14.2768 27.6983 14.2876 27.7095 14.3093 27.7095H15.2592C15.3133 27.7095 15.3404 27.7374 15.3404 27.7933V28.0028ZM18.0958 27.676C18.2799 27.676 18.4368 27.7095 18.5667 27.7765C18.61 27.7933 18.6263 27.8296 18.6155 27.8855L18.5424 28.1536C18.5261 28.2095 18.491 28.2263 18.4368 28.2039C18.3286 28.1592 18.1933 28.1397 18.0309 28.1453C17.7278 28.1508 17.4761 28.2709 17.2758 28.5056C17.0809 28.7346 16.9835 29.0168 16.9835 29.352V31.8492C16.9835 31.905 16.9564 31.933 16.9023 31.933H16.6344C16.5803 31.933 16.5532 31.905 16.5532 31.8492V27.7933C16.5532 27.7374 16.5803 27.7095 16.6344 27.7095H16.9023C16.9564 27.7095 16.9835 27.7374 16.9835 27.7933V28.3631C16.9835 28.3799 16.9862 28.3911 16.9916 28.3966C17.0025 28.3966 17.0106 28.3883 17.016 28.3715C17.1297 28.1536 17.2758 27.9832 17.4544 27.8603C17.6385 27.7374 17.8523 27.676 18.0958 27.676ZM20.9736 31.6061C21.228 31.6061 21.4445 31.5475 21.6231 31.4302C21.8072 31.3073 21.9506 31.1397 22.0534 30.9274C22.0805 30.8771 22.1157 30.8631 22.159 30.8855L22.3701 30.9944C22.4188 31.0223 22.4323 31.0587 22.4107 31.1034C22.2916 31.3771 22.1022 31.595 21.8424 31.757C21.588 31.919 21.2875 32 20.9411 32C20.5622 32 20.2402 31.905 19.975 31.7151C19.7097 31.5251 19.5284 31.2654 19.431 30.9358C19.3877 30.7961 19.3579 30.6397 19.3417 30.4665C19.3254 30.2933 19.3173 30.0754 19.3173 29.8128C19.3173 29.5391 19.32 29.3324 19.3254 29.1927C19.3362 29.0531 19.3552 28.9246 19.3823 28.8073C19.4689 28.4553 19.6448 28.1732 19.91 27.9609C20.1806 27.7486 20.5108 27.6425 20.9005 27.6425C21.3444 27.6425 21.6989 27.7626 21.9641 28.0028C22.2294 28.2374 22.3945 28.5642 22.4594 28.9832C22.4756 29.0894 22.4865 29.2151 22.4919 29.3603C22.4973 29.5 22.5 29.676 22.5 29.8883C22.5 29.9441 22.4729 29.9721 22.4188 29.9721H19.772C19.7503 29.9721 19.7395 29.9832 19.7395 30.0056C19.7395 30.3631 19.753 30.6006 19.7801 30.7179C19.8396 30.9916 19.9722 31.2095 20.1779 31.3715C20.389 31.5279 20.6543 31.6061 20.9736 31.6061ZM19.7963 28.9078C19.7693 29.014 19.7503 29.2318 19.7395 29.5615C19.7395 29.5838 19.7503 29.595 19.772 29.595H22.0372C22.0589 29.595 22.0697 29.5838 22.0697 29.5615C22.0697 29.2821 22.0562 29.0726 22.0291 28.933C21.9696 28.6648 21.8396 28.4497 21.6394 28.2877C21.4391 28.1201 21.1928 28.0363 20.9005 28.0363C20.6082 28.0363 20.3647 28.1173 20.1698 28.2793C19.975 28.4358 19.8505 28.6453 19.7963 28.9078Z" fill="#F1F2F2"/>
<path d="M2.2521 23.9496C2.16993 23.9496 2.10644 23.929 2.06162 23.888C2.02054 23.8431 2 23.7796 2 23.6975V20.2521C2 20.1699 2.02054 20.1083 2.06162 20.0672C2.10644 20.0224 2.16993 20 2.2521 20H3.33333C3.97199 20 4.46499 20.1681 4.81232 20.5042C5.15966 20.8403 5.33333 21.3296 5.33333 21.972C5.33333 22.2932 5.28852 22.577 5.19888 22.8235C5.11298 23.0663 4.98413 23.2717 4.81232 23.4398C4.64052 23.6078 4.43137 23.7348 4.18487 23.8207C3.93838 23.9066 3.65453 23.9496 3.33333 23.9496H2.2521ZM2.45938 23.5574H3.29972C3.56116 23.5574 3.78712 23.5238 3.97759 23.4566C4.1718 23.3894 4.3324 23.2904 4.45938 23.1597C4.5901 23.0289 4.68721 22.8646 4.7507 22.6667C4.81419 22.465 4.84594 22.2334 4.84594 21.972C4.84594 21.4454 4.71709 21.0514 4.45938 20.7899C4.20168 20.5247 3.81513 20.3922 3.29972 20.3922H2.45938V23.5574Z" fill="#A6A7AD"/>
<path d="M7.35119 24C7.06361 24 6.81524 23.944 6.60609 23.8319C6.40068 23.7162 6.24008 23.5537 6.1243 23.3445C6.01225 23.1354 5.95623 22.8852 5.95623 22.5938C5.95623 22.31 6.01225 22.0635 6.1243 21.8543C6.23634 21.6415 6.38947 21.4753 6.58368 21.3557C6.78163 21.2362 7.00945 21.1765 7.26716 21.1765C7.45016 21.1765 7.6145 21.2082 7.76015 21.2717C7.90581 21.3315 8.02906 21.4192 8.1299 21.535C8.23448 21.6508 8.31291 21.7908 8.3652 21.9552C8.42122 22.1195 8.44923 22.3044 8.44923 22.5098C8.44923 22.5696 8.43242 22.6144 8.39881 22.6443C8.3652 22.6704 8.31664 22.6835 8.25315 22.6835H6.30357V22.3866H8.14671L8.05707 22.4594C8.05707 22.2577 8.02719 22.0878 7.96744 21.9496C7.90768 21.8077 7.81991 21.6993 7.70413 21.6247C7.59209 21.55 7.45016 21.5126 7.27836 21.5126C7.08788 21.5126 6.92542 21.5574 6.79097 21.6471C6.66025 21.733 6.56127 21.8543 6.49405 22.0112C6.42682 22.1643 6.39321 22.3436 6.39321 22.549V22.5826C6.39321 22.9262 6.47537 23.1877 6.63971 23.3669C6.80777 23.5462 7.04493 23.6359 7.35119 23.6359C7.47817 23.6359 7.60329 23.619 7.72654 23.5854C7.85352 23.5518 7.97677 23.4958 8.09629 23.4174C8.14858 23.3838 8.19526 23.3688 8.23634 23.3725C8.28116 23.3725 8.31664 23.3856 8.34279 23.4118C8.36893 23.4342 8.38574 23.4641 8.39321 23.5014C8.40441 23.535 8.40068 23.5724 8.382 23.6134C8.36706 23.6545 8.33532 23.69 8.28676 23.7199C8.16352 23.8095 8.01786 23.8786 7.84979 23.9272C7.68172 23.9757 7.51552 24 7.35119 24Z" fill="#A6A7AD"/>
<path d="M10.1152 23.9888C10.0517 23.9888 9.99564 23.972 9.94708 23.9384C9.89853 23.901 9.85745 23.845 9.82384 23.7703L8.85465 21.507C8.8285 21.451 8.81917 21.3987 8.82664 21.3501C8.83411 21.3016 8.85652 21.2624 8.89386 21.2325C8.93121 21.2026 8.9835 21.1877 9.05073 21.1877C9.11048 21.1877 9.15717 21.2007 9.19078 21.2269C9.2244 21.253 9.25427 21.2997 9.28042 21.3669L10.1992 23.6134H10.0479L10.9835 21.3669C11.0096 21.2997 11.0395 21.253 11.0731 21.2269C11.1067 21.2007 11.1553 21.1877 11.2188 21.1877C11.2786 21.1877 11.3234 21.2026 11.3532 21.2325C11.3869 21.2624 11.4055 21.3016 11.4093 21.3501C11.4167 21.395 11.4093 21.4454 11.3869 21.5014L10.4065 23.7703C10.3803 23.845 10.3411 23.901 10.2888 23.9384C10.2403 23.972 10.1824 23.9888 10.1152 23.9888Z" fill="#A6A7AD"/>
<path d="M12.2364 23.9888C12.1617 23.9888 12.1057 23.9683 12.0684 23.9272C12.031 23.8861 12.0123 23.8282 12.0123 23.7535V21.4174C12.0123 21.3427 12.031 21.2866 12.0684 21.2493C12.1057 21.2082 12.1599 21.1877 12.2308 21.1877C12.3018 21.1877 12.3559 21.2082 12.3933 21.2493C12.4344 21.2866 12.4549 21.3427 12.4549 21.4174V21.8992L12.3933 21.8319C12.4717 21.6153 12.5987 21.4528 12.7742 21.3445C12.9535 21.2325 13.1589 21.1765 13.3905 21.1765C13.6071 21.1765 13.7864 21.2157 13.9283 21.2941C14.074 21.3725 14.1823 21.4921 14.2532 21.6527C14.3242 21.8095 14.3597 22.0093 14.3597 22.2521V23.7535C14.3597 23.8282 14.3391 23.8861 14.2981 23.9272C14.2607 23.9683 14.2066 23.9888 14.1356 23.9888C14.0609 23.9888 14.003 23.9683 13.9619 23.9272C13.9246 23.8861 13.9059 23.8282 13.9059 23.7535V22.2801C13.9059 22.0261 13.8555 21.8413 13.7546 21.7255C13.6575 21.606 13.5007 21.5462 13.2841 21.5462C13.0338 21.5462 12.834 21.6247 12.6846 21.7815C12.539 21.9346 12.4661 22.1401 12.4661 22.3978V23.7535C12.4661 23.9104 12.3896 23.9888 12.2364 23.9888Z" fill="#A6A7AD"/>
<path d="M16.4513 24C16.1637 24 15.9154 23.944 15.7062 23.8319C15.5008 23.7162 15.3402 23.5537 15.2244 23.3445C15.1124 23.1354 15.0564 22.8852 15.0564 22.5938C15.0564 22.31 15.1124 22.0635 15.2244 21.8543C15.3365 21.6415 15.4896 21.4753 15.6838 21.3557C15.8818 21.2362 16.1096 21.1765 16.3673 21.1765C16.5503 21.1765 16.7146 21.2082 16.8603 21.2717C17.006 21.3315 17.1292 21.4192 17.23 21.535C17.3346 21.6508 17.413 21.7908 17.4653 21.9552C17.5214 22.1195 17.5494 22.3044 17.5494 22.5098C17.5494 22.5696 17.5326 22.6144 17.4989 22.6443C17.4653 22.6704 17.4168 22.6835 17.3533 22.6835H15.4037V22.3866H17.2468L17.1572 22.4594C17.1572 22.2577 17.1273 22.0878 17.0676 21.9496C17.0078 21.8077 16.92 21.6993 16.8043 21.6247C16.6922 21.55 16.5503 21.5126 16.3785 21.5126C16.188 21.5126 16.0256 21.5574 15.8911 21.6471C15.7604 21.733 15.6614 21.8543 15.5942 22.0112C15.527 22.1643 15.4933 22.3436 15.4933 22.549V22.5826C15.4933 22.9262 15.5755 23.1877 15.7398 23.3669C15.9079 23.5462 16.1451 23.6359 16.4513 23.6359C16.5783 23.6359 16.7034 23.619 16.8267 23.5854C16.9537 23.5518 17.0769 23.4958 17.1964 23.4174C17.2487 23.3838 17.2954 23.3688 17.3365 23.3725C17.3813 23.3725 17.4168 23.3856 17.4429 23.4118C17.4691 23.4342 17.4859 23.4641 17.4933 23.5014C17.5046 23.535 17.5008 23.5724 17.4821 23.6134C17.4672 23.6545 17.4355 23.69 17.3869 23.7199C17.2637 23.8095 17.118 23.8786 16.9499 23.9272C16.7819 23.9757 16.6157 24 16.4513 24Z" fill="#A6A7AD"/>
<path d="M19.3265 24C19.1137 24 18.9344 23.9627 18.7887 23.888C18.6468 23.8095 18.5404 23.6975 18.4694 23.5518C18.3984 23.4024 18.363 23.2213 18.363 23.0084V21.5798H17.9876C17.9241 21.5798 17.8756 21.5649 17.842 21.535C17.8083 21.5014 17.7915 21.4566 17.7915 21.4006C17.7915 21.3445 17.8083 21.3016 17.842 21.2717C17.8756 21.2418 17.9241 21.2269 17.9876 21.2269H18.363V20.5826C18.363 20.5079 18.3835 20.4519 18.4246 20.4146C18.4657 20.3735 18.5217 20.3529 18.5927 20.3529C18.6636 20.3529 18.7178 20.3735 18.7551 20.4146C18.7962 20.4519 18.8167 20.5079 18.8167 20.5826V21.2269H19.5226C19.5861 21.2269 19.6347 21.2418 19.6683 21.2717C19.7019 21.3016 19.7187 21.3445 19.7187 21.4006C19.7187 21.4566 19.7019 21.5014 19.6683 21.535C19.6347 21.5649 19.5861 21.5798 19.5226 21.5798H18.8167V22.9636C18.8167 23.1765 18.8616 23.3389 18.9512 23.451C19.0408 23.5593 19.1865 23.6134 19.3882 23.6134C19.4591 23.6134 19.5189 23.606 19.5674 23.591C19.6197 23.5761 19.6627 23.5686 19.6963 23.5686C19.7299 23.5649 19.7579 23.5761 19.7803 23.6022C19.8027 23.6284 19.8139 23.6732 19.8139 23.7367C19.8139 23.7815 19.8046 23.8226 19.7859 23.8599C19.771 23.8973 19.743 23.9234 19.7019 23.9384C19.6571 23.9533 19.5973 23.9664 19.5226 23.9776C19.4517 23.9925 19.3863 24 19.3265 24Z" fill="#A6A7AD"/>
<defs>
<linearGradient id="paint0_linear_2598_5857" x1="15.3401" y1="9.21746" x2="3.99815" y2="9.21746" gradientUnits="userSpaceOnUse">
<stop stop-color="#F9575E"/>
<stop offset="0.27" stop-color="#F8555B"/>
<stop offset="0.49" stop-color="#F44F51"/>
<stop offset="0.68" stop-color="#EE4540"/>
<stop offset="0.87" stop-color="#E63728"/>
<stop offset="1" stop-color="#DE2A13"/>
</linearGradient>
<linearGradient id="paint1_linear_2598_5857" x1="-34012.1" y1="28518.8" x2="-34316.4" y2="28444.2" gradientUnits="userSpaceOnUse">
<stop stop-color="#F9575E"/>
<stop offset="0.27" stop-color="#F8555B"/>
<stop offset="0.49" stop-color="#F44F51"/>
<stop offset="0.68" stop-color="#EE4540"/>
<stop offset="0.87" stop-color="#E63728"/>
<stop offset="1" stop-color="#DE2A13"/>
</linearGradient>
</defs>
</svg>
