<svg width="116" height="32" viewBox="0 0 116 32" fill="none" xmlns="http://www.w3.org/2000/svg">
<path d="M12.9921 31.9907L4.32693 23.2986C1.55644 20.5196 0 16.7504 0 12.8201C0 8.8899 1.55644 5.12066 4.32693 2.34156L6.65591 0.00537109L15.326 8.70233C18.0943 11.4819 19.6489 15.2504 19.648 19.1795C19.6471 23.1084 18.0907 26.8762 15.3211 29.6544L12.9921 31.9907Z" fill="url(#paint0_linear_2980_6057)"/>
<path d="M10.6643 8.70185L19.3393 0L21.6683 2.3362C23.0414 3.71244 24.1308 5.34667 24.8741 7.14549C25.6174 8.94432 26 10.8724 26 12.8197C26 14.7669 25.6174 16.695 24.8741 18.4939C24.1308 20.2926 23.0414 21.9268 21.6683 23.3031L12.9981 32L10.6643 29.659C7.89376 26.8798 6.33731 23.1106 6.33731 19.1804C6.33731 15.2502 7.89376 11.4809 10.6643 8.70185Z" fill="url(#paint1_linear_2980_6057)"/>
<path d="M45.6851 31.616C44.3325 31.616 43.1533 31.3993 42.1475 30.966C41.1417 30.5327 40.3613 29.926 39.8064 29.146C39.2688 28.366 39 27.4473 39 26.39V25.74C39 25.6533 39.026 25.584 39.078 25.532C39.1474 25.4627 39.2254 25.428 39.3121 25.428H41.6272C41.7139 25.428 41.7833 25.4627 41.8353 25.532C41.9047 25.584 41.9394 25.6533 41.9394 25.74V26.234C41.9394 27.0313 42.2949 27.6987 43.0059 28.236C43.7169 28.756 44.688 29.016 45.9192 29.016C46.9771 29.016 47.7748 28.7907 48.3123 28.34C48.8499 27.8893 49.1187 27.3087 49.1187 26.598C49.1187 26.1127 48.9713 25.7053 48.6765 25.376C48.3817 25.0293 47.9568 24.7173 47.4019 24.44C46.8643 24.1627 46.0493 23.816 44.9568 23.4C43.7255 22.9493 42.7284 22.5247 41.9654 22.126C41.2024 21.7273 40.5607 21.19 40.0405 20.514C39.5376 19.8207 39.2861 18.9627 39.2861 17.94C39.2861 16.4147 39.8411 15.21 40.9509 14.326C42.0608 13.442 43.5435 13 45.399 13C46.6996 13 47.8441 13.2253 48.8326 13.676C49.8384 14.1267 50.6187 14.7593 51.1737 15.574C51.7286 16.3713 52.0061 17.2987 52.0061 18.356V18.798C52.0061 18.8847 51.9714 18.9627 51.902 19.032C51.85 19.084 51.7806 19.11 51.6939 19.11H49.3528C49.2661 19.11 49.1881 19.084 49.1187 19.032C49.0667 18.9627 49.0407 18.8847 49.0407 18.798V18.512C49.0407 17.6973 48.7025 17.0127 48.0262 16.458C47.3672 15.886 46.4481 15.6 45.2689 15.6C44.3151 15.6 43.5695 15.7993 43.0319 16.198C42.5116 16.5967 42.2515 17.16 42.2515 17.888C42.2515 18.408 42.3902 18.8327 42.6677 19.162C42.9452 19.4913 43.3614 19.7947 43.9163 20.072C44.4712 20.332 45.3296 20.67 46.4915 21.086C47.7227 21.554 48.7025 21.9787 49.4309 22.36C50.1765 22.7413 50.8095 23.2787 51.3297 23.972C51.8673 24.648 52.1361 25.4973 52.1361 26.52C52.1361 28.08 51.5552 29.3193 50.3933 30.238C49.2488 31.1567 47.6794 31.616 45.6851 31.616Z" fill="#484848"/>
<path d="M66.3601 23.27C66.4294 23.7033 66.4641 24.1887 66.4641 24.726L66.4381 25.532C66.4381 25.74 66.3341 25.844 66.126 25.844H57.9842C57.8975 25.844 57.8541 25.8873 57.8541 25.974C57.9061 26.546 57.9842 26.936 58.0882 27.144C58.5044 28.392 59.5189 29.0247 61.1316 29.042C62.3109 29.042 63.2473 28.5567 63.9409 27.586C64.0103 27.482 64.097 27.43 64.2011 27.43C64.2704 27.43 64.3311 27.456 64.3832 27.508L65.9959 28.834C66.152 28.9553 66.178 29.094 66.0739 29.25C65.5364 30.0127 64.8167 30.602 63.9149 31.018C63.0305 31.434 62.0421 31.642 60.9496 31.642C59.5969 31.642 58.4437 31.3387 57.4899 30.732C56.5535 30.1253 55.8685 29.276 55.435 28.184C55.0361 27.248 54.8367 25.948 54.8367 24.284C54.8367 23.2787 54.9408 22.464 55.1489 21.84C55.4957 20.6267 56.146 19.6733 57.0998 18.98C58.0709 18.2693 59.2328 17.914 60.5854 17.914C64.0016 17.914 65.9265 19.6993 66.3601 23.27ZM60.5854 20.514C59.9438 20.514 59.4062 20.6787 58.9726 21.008C58.5564 21.32 58.2616 21.762 58.0882 22.334C57.9842 22.6287 57.9148 23.01 57.8801 23.478C57.8454 23.5647 57.8801 23.608 57.9842 23.608H63.2646C63.3513 23.608 63.3947 23.5647 63.3947 23.478C63.36 23.0447 63.308 22.7153 63.2386 22.49C63.0825 21.866 62.7704 21.3807 62.3022 21.034C61.8513 20.6873 61.279 20.514 60.5854 20.514Z" fill="#484848"/>
<path d="M75.8549 17.914C77.2596 17.914 78.3781 18.33 79.2105 19.162C80.0602 19.994 80.4851 21.1293 80.4851 22.568V31.096C80.4851 31.1827 80.4504 31.2607 80.381 31.33C80.329 31.382 80.2596 31.408 80.1729 31.408H77.7798C77.6931 31.408 77.6151 31.382 77.5457 31.33C77.4937 31.2607 77.4677 31.1827 77.4677 31.096V23.192C77.4677 22.3947 77.2422 21.7533 76.7913 21.268C76.3405 20.7653 75.7422 20.514 74.9965 20.514C74.2508 20.514 73.6439 20.7567 73.1757 21.242C72.7248 21.7273 72.4993 22.3687 72.4993 23.166V31.096C72.4993 31.1827 72.4647 31.2607 72.3953 31.33C72.3433 31.382 72.2739 31.408 72.1872 31.408H69.7941C69.7074 31.408 69.6293 31.382 69.56 31.33C69.508 31.2607 69.4819 31.1827 69.4819 31.096V18.434C69.4819 18.3473 69.508 18.278 69.56 18.226C69.6293 18.1567 69.7074 18.122 69.7941 18.122H72.1872C72.2739 18.122 72.3433 18.1567 72.3953 18.226C72.4647 18.278 72.4993 18.3473 72.4993 18.434V19.266C72.4993 19.318 72.5167 19.3527 72.5514 19.37C72.5861 19.3873 72.6121 19.37 72.6294 19.318C73.3404 18.382 74.4156 17.914 75.8549 17.914Z" fill="#484848"/>
<path d="M90.9405 20.254C90.9405 20.3407 90.9058 20.4187 90.8365 20.488C90.7844 20.54 90.7151 20.566 90.6284 20.566H87.9751C87.8884 20.566 87.8451 20.6093 87.8451 20.696V26.962C87.8451 27.6207 87.9838 28.0973 88.2613 28.392C88.5561 28.6867 89.0156 28.834 89.6399 28.834H90.4203C90.507 28.834 90.5763 28.8687 90.6284 28.938C90.6977 28.99 90.7324 29.0593 90.7324 29.146V31.096C90.7324 31.2867 90.6284 31.3993 90.4203 31.434L89.0676 31.46C87.6977 31.46 86.6745 31.226 85.9982 30.758C85.3219 30.29 84.9751 29.406 84.9577 28.106V20.696C84.9577 20.6093 84.9144 20.566 84.8277 20.566H83.345C83.2583 20.566 83.1802 20.54 83.1109 20.488C83.0588 20.4187 83.0328 20.3407 83.0328 20.254V18.434C83.0328 18.3473 83.0588 18.278 83.1109 18.226C83.1802 18.1567 83.2583 18.122 83.345 18.122H84.8277C84.9144 18.122 84.9577 18.0787 84.9577 17.992V14.95C84.9577 14.8633 84.9837 14.794 85.0358 14.742C85.1051 14.6727 85.1832 14.638 85.2699 14.638H87.5329C87.6196 14.638 87.689 14.6727 87.741 14.742C87.8104 14.794 87.8451 14.8633 87.8451 14.95V17.992C87.8451 18.0787 87.8884 18.122 87.9751 18.122H90.6284C90.7151 18.122 90.7844 18.1567 90.8365 18.226C90.9058 18.278 90.9405 18.3473 90.9405 18.434V20.254Z" fill="#484848"/>
<path d="M100.071 17.966C100.626 17.966 101.112 18.0787 101.528 18.304C101.667 18.3733 101.719 18.5033 101.684 18.694L101.242 21.034C101.225 21.242 101.103 21.3027 100.878 21.216C100.618 21.1293 100.314 21.086 99.9673 21.086C99.7419 21.086 99.5685 21.0947 99.4471 21.112C98.7188 21.1467 98.1118 21.4067 97.6262 21.892C97.1407 22.36 96.8979 22.9753 96.8979 23.738V31.096C96.8979 31.1827 96.8632 31.2607 96.7939 31.33C96.7418 31.382 96.6725 31.408 96.5858 31.408H94.1926C94.1059 31.408 94.0279 31.382 93.9585 31.33C93.9065 31.2607 93.8805 31.1827 93.8805 31.096V18.434C93.8805 18.3473 93.9065 18.278 93.9585 18.226C94.0279 18.1567 94.1059 18.122 94.1926 18.122H96.5858C96.6725 18.122 96.7418 18.1567 96.7939 18.226C96.8632 18.278 96.8979 18.3473 96.8979 18.434V19.604C96.8979 19.6733 96.9066 19.7167 96.9239 19.734C96.9586 19.734 96.9933 19.708 97.028 19.656C97.7563 18.5293 98.7708 17.966 100.071 17.966Z" fill="#484848"/>
<path d="M114.878 23.27C114.947 23.7033 114.982 24.1887 114.982 24.726L114.956 25.532C114.956 25.74 114.852 25.844 114.644 25.844H106.502C106.415 25.844 106.372 25.8873 106.372 25.974C106.424 26.546 106.502 26.936 106.606 27.144C107.022 28.392 108.037 29.0247 109.649 29.042C110.829 29.042 111.765 28.5567 112.459 27.586C112.528 27.482 112.615 27.43 112.719 27.43C112.788 27.43 112.849 27.456 112.901 27.508L114.514 28.834C114.67 28.9553 114.696 29.094 114.592 29.25C114.054 30.0127 113.334 30.602 112.433 31.018C111.548 31.434 110.56 31.642 109.467 31.642C108.115 31.642 106.961 31.3387 106.008 30.732C105.071 30.1253 104.386 29.276 103.953 28.184C103.554 27.248 103.354 25.948 103.354 24.284C103.354 23.2787 103.458 22.464 103.667 21.84C104.013 20.6267 104.664 19.6733 105.617 18.98C106.589 18.2693 107.75 17.914 109.103 17.914C112.519 17.914 114.444 19.6993 114.878 23.27ZM109.103 20.514C108.461 20.514 107.924 20.6787 107.49 21.008C107.074 21.32 106.779 21.762 106.606 22.334C106.502 22.6287 106.433 23.01 106.398 23.478C106.363 23.5647 106.398 23.608 106.502 23.608H111.782C111.869 23.608 111.912 23.5647 111.912 23.478C111.878 23.0447 111.826 22.7153 111.756 22.49C111.6 21.866 111.288 21.3807 110.82 21.034C110.369 20.6873 109.797 20.514 109.103 20.514Z" fill="#484848"/>
<path d="M80.12 8.4C80.04 8.4 80 8.36 80 8.28V0.12C80 0.04 80.04 0 80.12 0H82.952C83.744 0 84.372 0.208 84.836 0.624001C85.308 1.04 85.544 1.604 85.544 2.316V6.084C85.544 6.796 85.308 7.36 84.836 7.776C84.372 8.192 83.744 8.4 82.952 8.4H80.12ZM80.852 7.608C80.852 7.64 80.868 7.656 80.9 7.656H82.988C83.508 7.656 83.92 7.504 84.224 7.2C84.536 6.896 84.692 6.488 84.692 5.976V2.436C84.692 1.916 84.54 1.504 84.236 1.2C83.932 0.896 83.516 0.744 82.988 0.744H80.9C80.868 0.744 80.852 0.760001 80.852 0.792001V7.608Z" fill="#7A7B85"/>
<path d="M92.026 4.344C92.058 4.568 92.074 4.848 92.074 5.184V5.568C92.074 5.648 92.034 5.688 91.954 5.688H88.078C88.046 5.688 88.03 5.704 88.03 5.736C88.046 6.176 88.07 6.46 88.102 6.588C88.19 6.948 88.378 7.232 88.666 7.44C88.954 7.648 89.322 7.752 89.77 7.752C90.106 7.752 90.402 7.676 90.658 7.524C90.914 7.372 91.114 7.156 91.258 6.876C91.306 6.804 91.362 6.788 91.426 6.828L91.894 7.104C91.958 7.144 91.974 7.2 91.942 7.272C91.742 7.656 91.442 7.96 91.042 8.184C90.642 8.4 90.182 8.508 89.662 8.508C89.094 8.5 88.618 8.364 88.234 8.1C87.85 7.836 87.574 7.468 87.406 6.996C87.262 6.612 87.19 6.06 87.19 5.34C87.19 5.004 87.194 4.732 87.202 4.524C87.218 4.308 87.25 4.116 87.298 3.948C87.434 3.428 87.706 3.012 88.114 2.7C88.53 2.388 89.03 2.232 89.614 2.232C90.342 2.232 90.902 2.416 91.294 2.784C91.686 3.152 91.93 3.672 92.026 4.344ZM89.614 2.976C89.222 2.976 88.894 3.08 88.63 3.288C88.374 3.488 88.206 3.76 88.126 4.104C88.078 4.272 88.046 4.544 88.03 4.92C88.03 4.952 88.046 4.968 88.078 4.968H91.186C91.218 4.968 91.234 4.952 91.234 4.92C91.218 4.56 91.194 4.304 91.162 4.152C91.074 3.792 90.894 3.508 90.622 3.3C90.358 3.084 90.022 2.976 89.614 2.976Z" fill="#7A7B85"/>
<path d="M95.2841 8.4C95.2121 8.4 95.1641 8.368 95.1401 8.304L93.1721 2.46L93.1601 2.412C93.1601 2.356 93.1961 2.328 93.2681 2.328H93.9521C94.0241 2.328 94.0721 2.36 94.0961 2.424L95.5961 7.128C95.6041 7.144 95.6161 7.152 95.6321 7.152C95.6481 7.152 95.6601 7.144 95.6681 7.128L97.1681 2.424C97.1921 2.36 97.2401 2.328 97.3121 2.328L97.9961 2.34C98.0841 2.34 98.1161 2.384 98.0921 2.472L96.1241 8.304C96.1001 8.368 96.0521 8.4 95.9801 8.4H95.2841Z" fill="#7A7B85"/>
<path d="M102.071 2.244C102.711 2.244 103.219 2.432 103.595 2.808C103.979 3.184 104.171 3.688 104.171 4.32V8.28C104.171 8.36 104.131 8.4 104.051 8.4H103.439C103.359 8.4 103.319 8.36 103.319 8.28V4.488C103.319 4.048 103.183 3.688 102.911 3.408C102.647 3.128 102.303 2.988 101.879 2.988C101.439 2.988 101.083 3.124 100.811 3.396C100.539 3.668 100.403 4.024 100.403 4.464V8.28C100.403 8.36 100.363 8.4 100.283 8.4H99.6714C99.5914 8.4 99.5514 8.36 99.5514 8.28V2.448C99.5514 2.368 99.5914 2.328 99.6714 2.328H100.283C100.363 2.328 100.403 2.368 100.403 2.448V2.964C100.403 2.98 100.407 2.992 100.415 3C100.431 3.008 100.443 3.004 100.451 2.988C100.803 2.492 101.343 2.244 102.071 2.244Z" fill="#7A7B85"/>
<path d="M110.714 4.344C110.746 4.568 110.762 4.848 110.762 5.184V5.568C110.762 5.648 110.722 5.688 110.642 5.688H106.766C106.734 5.688 106.718 5.704 106.718 5.736C106.734 6.176 106.758 6.46 106.79 6.588C106.878 6.948 107.066 7.232 107.354 7.44C107.642 7.648 108.01 7.752 108.458 7.752C108.794 7.752 109.09 7.676 109.346 7.524C109.602 7.372 109.802 7.156 109.946 6.876C109.994 6.804 110.05 6.788 110.114 6.828L110.582 7.104C110.646 7.144 110.662 7.2 110.63 7.272C110.43 7.656 110.13 7.96 109.73 8.184C109.33 8.4 108.87 8.508 108.35 8.508C107.782 8.5 107.306 8.364 106.922 8.1C106.538 7.836 106.262 7.468 106.094 6.996C105.95 6.612 105.878 6.06 105.878 5.34C105.878 5.004 105.882 4.732 105.89 4.524C105.906 4.308 105.938 4.116 105.986 3.948C106.122 3.428 106.394 3.012 106.802 2.7C107.218 2.388 107.718 2.232 108.302 2.232C109.03 2.232 109.59 2.416 109.982 2.784C110.374 3.152 110.618 3.672 110.714 4.344ZM108.302 2.976C107.91 2.976 107.582 3.08 107.318 3.288C107.062 3.488 106.894 3.76 106.814 4.104C106.766 4.272 106.734 4.544 106.718 4.92C106.718 4.952 106.734 4.968 106.766 4.968H109.874C109.906 4.968 109.922 4.952 109.922 4.92C109.906 4.56 109.882 4.304 109.85 4.152C109.762 3.792 109.582 3.508 109.31 3.3C109.046 3.084 108.71 2.976 108.302 2.976Z" fill="#7A7B85"/>
<path d="M115.219 2.916C115.219 2.996 115.178 3.036 115.098 3.036H113.743C113.711 3.036 113.694 3.052 113.694 3.084V6.624C113.694 7.008 113.778 7.28 113.946 7.44C114.122 7.592 114.395 7.668 114.763 7.668H115.062C115.143 7.668 115.182 7.708 115.182 7.788V8.28C115.182 8.36 115.143 8.4 115.062 8.4C114.967 8.408 114.818 8.412 114.618 8.412C114.042 8.412 113.607 8.304 113.311 8.088C113.015 7.872 112.867 7.472 112.867 6.888V3.084C112.867 3.052 112.851 3.036 112.819 3.036H112.087C112.007 3.036 111.966 2.996 111.966 2.916V2.448C111.966 2.368 112.007 2.328 112.087 2.328H112.819C112.851 2.328 112.867 2.312 112.867 2.28V0.888C112.867 0.808 112.906 0.768 112.986 0.768H113.575C113.655 0.768 113.694 0.808 113.694 0.888V2.28C113.694 2.312 113.711 2.328 113.743 2.328H115.098C115.178 2.328 115.219 2.368 115.219 2.448V2.916Z" fill="#7A7B85"/>
<defs>
<linearGradient id="paint0_linear_2980_6057" x1="19.6562" y1="16.0005" x2="-0.00319899" y2="16.0005" gradientUnits="userSpaceOnUse">
<stop stop-color="#F9575E"/>
<stop offset="0.27" stop-color="#F8555B"/>
<stop offset="0.49" stop-color="#F44F51"/>
<stop offset="0.68" stop-color="#EE4540"/>
<stop offset="0.87" stop-color="#E63728"/>
<stop offset="1" stop-color="#DE2A13"/>
</linearGradient>
<linearGradient id="paint1_linear_2980_6057" x1="-58961.2" y1="49501.9" x2="-59488.8" y2="49372.8" gradientUnits="userSpaceOnUse">
<stop stop-color="#F9575E"/>
<stop offset="0.27" stop-color="#F8555B"/>
<stop offset="0.49" stop-color="#F44F51"/>
<stop offset="0.68" stop-color="#EE4540"/>
<stop offset="0.87" stop-color="#E63728"/>
<stop offset="1" stop-color="#DE2A13"/>
</linearGradient>
</defs>
</svg>
