<svg width="32px" height="32px" viewBox="0 0 32 32" fill="inherit" xmlns="http://www.w3.org/2000/svg">
<path d="M15.9922 31.9893L7.32696 23.2972C4.55645 20.5182 3 16.7489 3 12.8186C3 8.88844 4.55645 5.11919 7.32696 2.3401L9.65596 0.00390625L18.3261 8.70086C21.0944 11.4804 22.649 15.2489 22.6481 19.1781C22.6473 23.107 21.0909 26.8748 18.3212 29.6529L15.9922 31.9893Z"/>
<path d="M13.6643 8.70185L22.3393 0L24.6683 2.3362C26.0415 3.71244 27.1309 5.34667 27.8742 7.14549C28.6175 8.94432 29.0001 10.8724 29.0001 12.8197C29.0001 14.7669 28.6175 16.695 27.8742 18.4939C27.1309 20.2926 26.0415 21.9268 24.6683 23.3031L15.9981 32L13.6643 29.659C10.8937 26.8798 9.33728 23.1106 9.33728 19.1804C9.33728 15.2502 10.8937 11.4809 13.6643 8.70185Z"/>
</svg>
