<svg width="32px" height="32px" viewBox="0 0 32 32" fill="inherit" xmlns="http://www.w3.org/2000/svg">
<path d="M5.19898 22.6687C5.39207 22.4736 5.65757 22.3599 5.93916 22.3599H31.4754C31.9421 22.3599 32.1754 22.9288 31.8455 23.262L26.801 28.3579C26.6079 28.553 26.3424 28.6668 26.0608 28.6668H0.524576C0.05794 28.6668 -0.175378 28.0979 0.154485 27.7646L5.19898 22.6687Z"/>
<path d="M5.19898 3.64234C5.40012 3.44728 5.66562 3.3335 5.93916 3.3335H31.4754C31.9421 3.3335 32.1754 3.90242 31.8455 4.23565L26.801 9.33157C26.6079 9.52663 26.3424 9.64041 26.0608 9.64041H0.524576C0.05794 9.64041 -0.175378 9.07149 0.154485 8.73827L5.19898 3.64234Z"/>
<path d="M26.801 13.094C26.6079 12.8989 26.3424 12.7852 26.0608 12.7852H0.524576C0.05794 12.7852 -0.175378 13.3541 0.154485 13.6873L5.19898 18.7832C5.39207 18.9783 5.65757 19.0921 5.93916 19.0921H31.4754C31.9421 19.0921 32.1754 18.5232 31.8455 18.1899L26.801 13.094Z"/>
</svg>
