<svg width="115" height="32" viewBox="0 0 115 32" fill="none" xmlns="http://www.w3.org/2000/svg">
<path d="M12.9982 31.9912L4.32895 23.2991C1.55717 20.5201 0 16.7508 0 12.8206C0 8.89039 1.55717 5.12114 4.32895 2.34205L6.65902 0.00585938L15.3332 8.70281C18.1027 11.4824 19.6581 15.2508 19.6572 19.18C19.6563 23.1089 18.0992 26.8767 15.3283 29.6549L12.9982 31.9912Z" fill="url(#paint0_linear_2980_6114)"/>
<path d="M10.6693 8.70185L19.3483 0L21.6784 2.3362C23.0522 3.71244 24.1421 5.34667 24.8857 7.14549C25.6294 8.94432 26.0121 10.8724 26.0121 12.8197C26.0121 14.7669 25.6294 16.695 24.8857 18.4939C24.1421 20.2926 23.0522 21.9268 21.6784 23.3031L13.0042 32L10.6693 29.659C7.89748 26.8798 6.3403 23.1106 6.3403 19.1804C6.3403 15.2502 7.89748 11.4809 10.6693 8.70185Z" fill="url(#paint1_linear_2980_6114)"/>
<path d="M45.7033 25.616C44.3507 25.616 43.1715 25.3993 42.1657 24.966C41.1599 24.5327 40.3795 23.926 39.8246 23.146C39.287 22.366 39.0182 21.4473 39.0182 20.39V19.74C39.0182 19.6533 39.0442 19.584 39.0962 19.532C39.1656 19.4627 39.2436 19.428 39.3303 19.428H41.6454C41.7321 19.428 41.8015 19.4627 41.8535 19.532C41.9229 19.584 41.9576 19.6533 41.9576 19.74V20.234C41.9576 21.0313 42.3131 21.6987 43.0241 22.236C43.7351 22.756 44.7062 23.016 45.9374 23.016C46.9952 23.016 47.7929 22.7907 48.3305 22.34C48.8681 21.8893 49.1369 21.3087 49.1369 20.598C49.1369 20.1127 48.9895 19.7053 48.6947 19.376C48.3999 19.0293 47.975 18.7173 47.4201 18.44C46.8825 18.1627 46.0675 17.816 44.975 17.4C43.7437 16.9493 42.7466 16.5247 41.9836 16.126C41.2205 15.7273 40.5789 15.19 40.0587 14.514C39.5558 13.8207 39.3043 12.9627 39.3043 11.94C39.3043 10.4147 39.8592 9.21 40.9691 8.326C42.0789 7.442 43.5616 7 45.4172 7C46.7178 7 47.8623 7.22533 48.8508 7.676C49.8566 8.12667 50.6369 8.75933 51.1919 9.574C51.7468 10.3713 52.0243 11.2987 52.0243 12.356V12.798C52.0243 12.8847 51.9896 12.9627 51.9202 13.032C51.8682 13.084 51.7988 13.11 51.7121 13.11H49.371C49.2843 13.11 49.2063 13.084 49.1369 13.032C49.0849 12.9627 49.0589 12.8847 49.0589 12.798V12.512C49.0589 11.6973 48.7207 11.0127 48.0444 10.458C47.3854 9.886 46.4663 9.6 45.2871 9.6C44.3333 9.6 43.5877 9.79933 43.0501 10.198C42.5298 10.5967 42.2697 11.16 42.2697 11.888C42.2697 12.408 42.4084 12.8327 42.6859 13.162C42.9634 13.4913 43.3796 13.7947 43.9345 14.072C44.4894 14.332 45.3478 14.67 46.5097 15.086C47.7409 15.554 48.7207 15.9787 49.449 16.36C50.1947 16.7413 50.8277 17.2787 51.3479 17.972C51.8855 18.648 52.1543 19.4973 52.1543 20.52C52.1543 22.08 51.5734 23.3193 50.4115 24.238C49.267 25.1567 47.6976 25.616 45.7033 25.616Z" fill="#F1F2F2"/>
<path d="M66.3783 17.27C66.4476 17.7033 66.4823 18.1887 66.4823 18.726L66.4563 19.532C66.4563 19.74 66.3523 19.844 66.1442 19.844H58.0024C57.9157 19.844 57.8723 19.8873 57.8723 19.974C57.9243 20.546 58.0024 20.936 58.1064 21.144C58.5226 22.392 59.5371 23.0247 61.1498 23.042C62.329 23.042 63.2655 22.5567 63.9591 21.586C64.0285 21.482 64.1152 21.43 64.2193 21.43C64.2886 21.43 64.3493 21.456 64.4013 21.508L66.0141 22.834C66.1702 22.9553 66.1962 23.094 66.0921 23.25C65.5546 24.0127 64.8349 24.602 63.9331 25.018C63.0487 25.434 62.0603 25.642 60.9677 25.642C59.6151 25.642 58.4619 25.3387 57.5081 24.732C56.5717 24.1253 55.8867 23.276 55.4532 22.184C55.0543 21.248 54.8549 19.948 54.8549 18.284C54.8549 17.2787 54.9589 16.464 55.167 15.84C55.5139 14.6267 56.1642 13.6733 57.118 12.98C58.0891 12.2693 59.2509 11.914 60.6036 11.914C64.0198 11.914 65.9447 13.6993 66.3783 17.27ZM60.6036 14.514C59.9619 14.514 59.4244 14.6787 58.9908 15.008C58.5746 15.32 58.2798 15.762 58.1064 16.334C58.0024 16.6287 57.933 17.01 57.8983 17.478C57.8636 17.5647 57.8983 17.608 58.0024 17.608H63.2828C63.3695 17.608 63.4129 17.5647 63.4129 17.478C63.3782 17.0447 63.3262 16.7153 63.2568 16.49C63.1007 15.866 62.7886 15.3807 62.3204 15.034C61.8695 14.6873 61.2972 14.514 60.6036 14.514Z" fill="#F1F2F2"/>
<path d="M75.8731 11.914C77.2778 11.914 78.3963 12.33 79.2287 13.162C80.0784 13.994 80.5033 15.1293 80.5033 16.568V25.096C80.5033 25.1827 80.4686 25.2607 80.3992 25.33C80.3472 25.382 80.2778 25.408 80.1911 25.408H77.798C77.7113 25.408 77.6333 25.382 77.5639 25.33C77.5119 25.2607 77.4859 25.1827 77.4859 25.096V17.192C77.4859 16.3947 77.2604 15.7533 76.8095 15.268C76.3587 14.7653 75.7604 14.514 75.0147 14.514C74.269 14.514 73.6621 14.7567 73.1939 15.242C72.743 15.7273 72.5175 16.3687 72.5175 17.166V25.096C72.5175 25.1827 72.4829 25.2607 72.4135 25.33C72.3615 25.382 72.2921 25.408 72.2054 25.408H69.8123C69.7256 25.408 69.6475 25.382 69.5782 25.33C69.5261 25.2607 69.5001 25.1827 69.5001 25.096V12.434C69.5001 12.3473 69.5261 12.278 69.5782 12.226C69.6475 12.1567 69.7256 12.122 69.8123 12.122H72.2054C72.2921 12.122 72.3615 12.1567 72.4135 12.226C72.4829 12.278 72.5175 12.3473 72.5175 12.434V13.266C72.5175 13.318 72.5349 13.3527 72.5696 13.37C72.6042 13.3873 72.6303 13.37 72.6476 13.318C73.3586 12.382 74.4338 11.914 75.8731 11.914Z" fill="#F1F2F2"/>
<path d="M90.9587 14.254C90.9587 14.3407 90.924 14.4187 90.8547 14.488C90.8026 14.54 90.7333 14.566 90.6466 14.566H87.9933C87.9066 14.566 87.8633 14.6093 87.8633 14.696V20.962C87.8633 21.6207 88.002 22.0973 88.2795 22.392C88.5743 22.6867 89.0338 22.834 89.6581 22.834H90.4385C90.5252 22.834 90.5945 22.8687 90.6466 22.938C90.7159 22.99 90.7506 23.0593 90.7506 23.146V25.096C90.7506 25.2867 90.6466 25.3993 90.4385 25.434L89.0858 25.46C87.7159 25.46 86.6927 25.226 86.0164 24.758C85.3401 24.29 84.9933 23.406 84.9759 22.106V14.696C84.9759 14.6093 84.9326 14.566 84.8459 14.566H83.3632C83.2765 14.566 83.1984 14.54 83.1291 14.488C83.077 14.4187 83.051 14.3407 83.051 14.254V12.434C83.051 12.3473 83.077 12.278 83.1291 12.226C83.1984 12.1567 83.2765 12.122 83.3632 12.122H84.8459C84.9326 12.122 84.9759 12.0787 84.9759 11.992V8.95C84.9759 8.86333 85.0019 8.794 85.054 8.742C85.1233 8.67267 85.2014 8.638 85.2881 8.638H87.5511C87.6378 8.638 87.7072 8.67267 87.7592 8.742C87.8286 8.794 87.8633 8.86333 87.8633 8.95V11.992C87.8633 12.0787 87.9066 12.122 87.9933 12.122H90.6466C90.7333 12.122 90.8026 12.1567 90.8547 12.226C90.924 12.278 90.9587 12.3473 90.9587 12.434V14.254Z" fill="#F1F2F2"/>
<path d="M100.09 11.966C100.644 11.966 101.13 12.0787 101.546 12.304C101.685 12.3733 101.737 12.5033 101.702 12.694L101.26 15.034C101.243 15.242 101.121 15.3027 100.896 15.216C100.636 15.1293 100.332 15.086 99.9855 15.086C99.7601 15.086 99.5867 15.0947 99.4653 15.112C98.7369 15.1467 98.13 15.4067 97.6444 15.892C97.1589 16.36 96.9161 16.9753 96.9161 17.738V25.096C96.9161 25.1827 96.8814 25.2607 96.812 25.33C96.76 25.382 96.6907 25.408 96.6039 25.408H94.2108C94.1241 25.408 94.0461 25.382 93.9767 25.33C93.9247 25.2607 93.8987 25.1827 93.8987 25.096V12.434C93.8987 12.3473 93.9247 12.278 93.9767 12.226C94.0461 12.1567 94.1241 12.122 94.2108 12.122H96.6039C96.6907 12.122 96.76 12.1567 96.812 12.226C96.8814 12.278 96.9161 12.3473 96.9161 12.434V13.604C96.9161 13.6733 96.9248 13.7167 96.9421 13.734C96.9768 13.734 97.0115 13.708 97.0462 13.656C97.7745 12.5293 98.789 11.966 100.09 11.966Z" fill="#F1F2F2"/>
<path d="M114.896 17.27C114.965 17.7033 115 18.1887 115 18.726L114.974 19.532C114.974 19.74 114.87 19.844 114.662 19.844H106.52C106.433 19.844 106.39 19.8873 106.39 19.974C106.442 20.546 106.52 20.936 106.624 21.144C107.04 22.392 108.055 23.0247 109.668 23.042C110.847 23.042 111.783 22.5567 112.477 21.586C112.546 21.482 112.633 21.43 112.737 21.43C112.806 21.43 112.867 21.456 112.919 21.508L114.532 22.834C114.688 22.9553 114.714 23.094 114.61 23.25C114.072 24.0127 113.353 24.602 112.451 25.018C111.566 25.434 110.578 25.642 109.485 25.642C108.133 25.642 106.98 25.3387 106.026 24.732C105.089 24.1253 104.404 23.276 103.971 22.184C103.572 21.248 103.373 19.948 103.373 18.284C103.373 17.2787 103.477 16.464 103.685 15.84C104.032 14.6267 104.682 13.6733 105.636 12.98C106.607 12.2693 107.769 11.914 109.121 11.914C112.538 11.914 114.462 13.6993 114.896 17.27ZM109.121 14.514C108.48 14.514 107.942 14.6787 107.509 15.008C107.092 15.32 106.798 15.762 106.624 16.334C106.52 16.6287 106.451 17.01 106.416 17.478C106.381 17.5647 106.416 17.608 106.52 17.608H111.801C111.887 17.608 111.931 17.5647 111.931 17.478C111.896 17.0447 111.844 16.7153 111.774 16.49C111.618 15.866 111.306 15.3807 110.838 15.034C110.387 14.6873 109.815 14.514 109.121 14.514Z" fill="#F1F2F2"/>
<defs>
<linearGradient id="paint0_linear_2980_6114" x1="19.6653" y1="16.0009" x2="-0.00320048" y2="16.0009" gradientUnits="userSpaceOnUse">
<stop stop-color="#F9575E"/>
<stop offset="0.27" stop-color="#F8555B"/>
<stop offset="0.49" stop-color="#F44F51"/>
<stop offset="0.68" stop-color="#EE4540"/>
<stop offset="0.87" stop-color="#E63728"/>
<stop offset="1" stop-color="#DE2A13"/>
</linearGradient>
<linearGradient id="paint1_linear_2980_6114" x1="-58988.7" y1="49501.9" x2="-59516.5" y2="49372.7" gradientUnits="userSpaceOnUse">
<stop stop-color="#F9575E"/>
<stop offset="0.27" stop-color="#F8555B"/>
<stop offset="0.49" stop-color="#F44F51"/>
<stop offset="0.68" stop-color="#EE4540"/>
<stop offset="0.87" stop-color="#E63728"/>
<stop offset="1" stop-color="#DE2A13"/>
</linearGradient>
</defs>
</svg>
