<svg width="23" height="32" viewBox="0 0 23 32" fill="none" xmlns="http://www.w3.org/2000/svg">
<path d="M11.4954 18.4297L6.49631 13.4221C4.89795 11.821 4 9.64949 4 7.38519C4 5.12096 4.89795 2.94944 6.49631 1.34836L7.83995 0.00244141L12.8419 5.01289C14.439 6.61423 15.3359 8.78532 15.3354 11.049C15.3349 13.3125 14.437 15.4832 12.8391 17.0837L11.4954 18.4297Z" fill="url(#paint0_linear_2598_5855)"/>
<path d="M10.1525 5.01327L15.1573 0L16.5009 1.34592C17.2932 2.1388 17.9216 3.0803 18.3505 4.11663C18.7793 5.15296 19 6.26377 19 7.38561C19 8.50744 18.7793 9.61825 18.3505 10.6546C17.9216 11.6909 17.2932 12.6323 16.5009 13.4253L11.4989 18.4357L10.1525 17.087C8.55411 15.4859 7.65616 13.3144 7.65616 11.0502C7.65616 8.78585 8.55411 6.61434 10.1525 5.01327Z" fill="url(#paint1_linear_2598_5855)"/>
<path d="M1.93235 32C1.33695 32 0.86604 31.8631 0.519624 31.5894C0.173208 31.3101 0 30.9385 0 30.4749V30.1983C0 30.1425 0.0270639 30.1145 0.0811913 30.1145H0.332884C0.387012 30.1145 0.414076 30.1425 0.414076 30.1983V30.4497C0.414076 30.7961 0.5521 31.0754 0.828151 31.2877C1.1042 31.5 1.48309 31.6061 1.96483 31.6061C2.41409 31.6061 2.75779 31.5112 2.99596 31.3212C3.23412 31.1257 3.3532 30.8575 3.3532 30.5168C3.3532 30.3101 3.29907 30.1313 3.19081 29.9804C3.08797 29.824 2.92559 29.6788 2.70367 29.5447C2.48716 29.4106 2.17863 29.257 1.77809 29.0838C1.35589 28.8994 1.03654 28.7458 0.820032 28.6229C0.608934 28.5 0.438433 28.3464 0.308527 28.162C0.178621 27.9721 0.113668 27.7291 0.113668 27.433C0.113668 26.9749 0.265225 26.6229 0.568339 26.3771C0.876865 26.1257 1.30177 26 1.84304 26C2.43303 26 2.89582 26.1397 3.23141 26.419C3.567 26.6983 3.7348 27.0726 3.7348 27.5419V27.7346C3.7348 27.7905 3.70773 27.8184 3.6536 27.8184H3.38567C3.33155 27.8184 3.30448 27.7905 3.30448 27.7346V27.567C3.30448 27.2151 3.17458 26.933 2.91476 26.7207C2.65495 26.5028 2.28959 26.3939 1.81868 26.3939C1.40731 26.3939 1.09067 26.4832 0.868746 26.662C0.646824 26.8352 0.535863 27.0866 0.535863 27.4162C0.535863 27.6397 0.587283 27.8212 0.690126 27.9609C0.792968 28.1006 0.939112 28.2235 1.12856 28.3296C1.32342 28.4302 1.62112 28.5642 2.02166 28.7318C2.4222 28.8994 2.74426 29.0615 2.98784 29.2179C3.23682 29.3687 3.43168 29.5475 3.57241 29.7542C3.71314 29.9609 3.78351 30.2095 3.78351 30.5C3.78351 30.9525 3.62113 31.3156 3.29636 31.5894C2.9716 31.8631 2.51693 32 1.93235 32ZM6.49558 31.6061C6.74998 31.6061 6.96649 31.5475 7.14511 31.4302C7.32914 31.3073 7.47258 31.1397 7.57542 30.9274C7.60249 30.8771 7.63767 30.8631 7.68097 30.8855L7.89207 30.9944C7.94078 31.0223 7.95431 31.0587 7.93266 31.1034C7.81358 31.3771 7.62414 31.595 7.36433 31.757C7.10993 31.919 6.80952 32 6.4631 32C6.08421 32 5.76215 31.905 5.49693 31.7151C5.2317 31.5251 5.05038 31.2654 4.95295 30.9358C4.90964 30.7961 4.87987 30.6397 4.86364 30.4665C4.8474 30.2933 4.83928 30.0754 4.83928 29.8128C4.83928 29.5391 4.84198 29.3324 4.8474 29.1927C4.85822 29.0531 4.87717 28.9246 4.90423 28.8073C4.99083 28.4553 5.16675 28.1732 5.43197 27.9609C5.70261 27.7486 6.03279 27.6425 6.42251 27.6425C6.86635 27.6425 7.22089 27.7626 7.48611 28.0028C7.75134 28.2374 7.91643 28.5642 7.98138 28.9832C7.99762 29.0894 8.00844 29.2151 8.01385 29.3603C8.01927 29.5 8.02197 29.676 8.02197 29.8883C8.02197 29.9441 7.99491 29.9721 7.94078 29.9721H5.29395C5.2723 29.9721 5.26147 29.9832 5.26147 30.0056C5.26147 30.3631 5.275 30.6006 5.30207 30.7179C5.36161 30.9916 5.49422 31.2095 5.6999 31.3715C5.911 31.5279 6.17623 31.6061 6.49558 31.6061ZM5.31831 28.9078C5.29124 29.014 5.2723 29.2318 5.26147 29.5615C5.26147 29.5838 5.2723 29.595 5.29395 29.595H7.55918C7.58084 29.595 7.59166 29.5838 7.59166 29.5615C7.59166 29.2821 7.57813 29.0726 7.55106 28.933C7.49152 28.6648 7.36162 28.4497 7.16135 28.2877C6.96108 28.1201 6.7148 28.0363 6.42251 28.0363C6.13022 28.0363 5.88665 28.1173 5.69179 28.2793C5.49693 28.4358 5.37243 28.6453 5.31831 28.9078ZM10.8821 27.6508C11.2989 27.6508 11.6345 27.7821 11.8889 28.0447C12.1487 28.3073 12.2786 28.6536 12.2786 29.0838V31.8492C12.2786 31.905 12.2515 31.933 12.1974 31.933H11.9295C11.8753 31.933 11.8483 31.905 11.8483 31.8492V29.1676C11.8483 28.838 11.7508 28.5698 11.556 28.3631C11.3611 28.1508 11.1067 28.0447 10.7928 28.0447C10.468 28.0447 10.2055 28.148 10.0052 28.3547C9.80497 28.5559 9.70483 28.8212 9.70483 29.1508V31.8492C9.70483 31.905 9.67777 31.933 9.62364 31.933H9.35571C9.30158 31.933 9.27452 31.905 9.27452 31.8492V27.7933C9.27452 27.7374 9.30158 27.7095 9.35571 27.7095H9.62364C9.67777 27.7095 9.70483 27.7374 9.70483 27.7933V28.2039C9.70483 28.2207 9.70754 28.2318 9.71295 28.2374C9.72378 28.2374 9.73189 28.2318 9.73731 28.2207C9.85639 28.0363 10.0134 27.8966 10.2082 27.8017C10.4031 27.7011 10.6277 27.6508 10.8821 27.6508ZM15.3404 28.0028C15.3404 28.0587 15.3133 28.0866 15.2592 28.0866H14.3093C14.2876 28.0866 14.2768 28.0978 14.2768 28.1201V30.7682C14.2768 31.0531 14.339 31.2542 14.4635 31.3715C14.588 31.4832 14.7883 31.5391 15.0644 31.5391H15.2511C15.3052 31.5391 15.3323 31.567 15.3323 31.6229V31.8492C15.3323 31.905 15.3052 31.933 15.2511 31.933L15.0075 31.9413C14.6286 31.9413 14.3418 31.8659 14.1469 31.7151C13.9574 31.5642 13.86 31.2877 13.8546 30.8855V28.1201C13.8546 28.0978 13.8438 28.0866 13.8221 28.0866H13.335C13.2809 28.0866 13.2538 28.0587 13.2538 28.0028V27.7933C13.2538 27.7374 13.2809 27.7095 13.335 27.7095H13.8221C13.8438 27.7095 13.8546 27.6983 13.8546 27.676V26.7207C13.8546 26.6648 13.8817 26.6369 13.9358 26.6369H14.1956C14.2497 26.6369 14.2768 26.6648 14.2768 26.7207V27.676C14.2768 27.6983 14.2876 27.7095 14.3093 27.7095H15.2592C15.3133 27.7095 15.3404 27.7374 15.3404 27.7933V28.0028ZM18.0958 27.676C18.2799 27.676 18.4368 27.7095 18.5667 27.7765C18.61 27.7933 18.6263 27.8296 18.6155 27.8855L18.5424 28.1536C18.5261 28.2095 18.491 28.2263 18.4368 28.2039C18.3286 28.1592 18.1933 28.1397 18.0309 28.1453C17.7278 28.1508 17.4761 28.2709 17.2758 28.5056C17.0809 28.7346 16.9835 29.0168 16.9835 29.352V31.8492C16.9835 31.905 16.9564 31.933 16.9023 31.933H16.6344C16.5803 31.933 16.5532 31.905 16.5532 31.8492V27.7933C16.5532 27.7374 16.5803 27.7095 16.6344 27.7095H16.9023C16.9564 27.7095 16.9835 27.7374 16.9835 27.7933V28.3631C16.9835 28.3799 16.9862 28.3911 16.9916 28.3966C17.0025 28.3966 17.0106 28.3883 17.016 28.3715C17.1297 28.1536 17.2758 27.9832 17.4544 27.8603C17.6385 27.7374 17.8523 27.676 18.0958 27.676ZM20.9736 31.6061C21.228 31.6061 21.4445 31.5475 21.6231 31.4302C21.8072 31.3073 21.9506 31.1397 22.0534 30.9274C22.0805 30.8771 22.1157 30.8631 22.159 30.8855L22.3701 30.9944C22.4188 31.0223 22.4323 31.0587 22.4107 31.1034C22.2916 31.3771 22.1022 31.595 21.8424 31.757C21.588 31.919 21.2875 32 20.9411 32C20.5622 32 20.2402 31.905 19.975 31.7151C19.7097 31.5251 19.5284 31.2654 19.431 30.9358C19.3877 30.7961 19.3579 30.6397 19.3417 30.4665C19.3254 30.2933 19.3173 30.0754 19.3173 29.8128C19.3173 29.5391 19.32 29.3324 19.3254 29.1927C19.3362 29.0531 19.3552 28.9246 19.3823 28.8073C19.4689 28.4553 19.6448 28.1732 19.91 27.9609C20.1806 27.7486 20.5108 27.6425 20.9005 27.6425C21.3444 27.6425 21.6989 27.7626 21.9641 28.0028C22.2294 28.2374 22.3945 28.5642 22.4594 28.9832C22.4756 29.0894 22.4865 29.2151 22.4919 29.3603C22.4973 29.5 22.5 29.676 22.5 29.8883C22.5 29.9441 22.4729 29.9721 22.4188 29.9721H19.772C19.7503 29.9721 19.7395 29.9832 19.7395 30.0056C19.7395 30.3631 19.753 30.6006 19.7801 30.7179C19.8396 30.9916 19.9722 31.2095 20.1779 31.3715C20.389 31.5279 20.6543 31.6061 20.9736 31.6061ZM19.7963 28.9078C19.7693 29.014 19.7503 29.2318 19.7395 29.5615C19.7395 29.5838 19.7503 29.595 19.772 29.595H22.0372C22.0589 29.595 22.0697 29.5838 22.0697 29.5615C22.0697 29.2821 22.0562 29.0726 22.0291 28.933C21.9696 28.6648 21.8396 28.4497 21.6394 28.2877C21.4391 28.1201 21.1928 28.0363 20.9005 28.0363C20.6082 28.0363 20.3647 28.1173 20.1698 28.2793C19.975 28.4358 19.8505 28.6453 19.7963 28.9078Z" fill="#484848"/>
<path d="M3.70308 23.9888C3.63212 23.9888 3.5761 23.9683 3.53501 23.9272C3.49393 23.8824 3.47339 23.8226 3.47339 23.7479V20.3978H2.21289C2.14566 20.3978 2.09337 20.3791 2.05602 20.3417C2.01867 20.3044 2 20.2558 2 20.1961C2 20.1326 2.01867 20.084 2.05602 20.0504C2.09337 20.0168 2.14566 20 2.21289 20H5.19888C5.26611 20 5.31839 20.0168 5.35574 20.0504C5.39309 20.084 5.41176 20.1326 5.41176 20.1961C5.41176 20.2596 5.39309 20.31 5.35574 20.3473C5.31839 20.381 5.26611 20.3978 5.19888 20.3978H3.93838V23.7479C3.93838 23.8226 3.91783 23.8824 3.87675 23.9272C3.8394 23.9683 3.78151 23.9888 3.70308 23.9888Z" fill="#7A7B85"/>
<path d="M6.61283 24C6.32525 24 6.07689 23.944 5.86773 23.8319C5.66232 23.7162 5.50172 23.5537 5.38594 23.3445C5.2739 23.1354 5.21787 22.8852 5.21787 22.5938C5.21787 22.31 5.2739 22.0635 5.38594 21.8543C5.49799 21.6415 5.65111 21.4753 5.84533 21.3557C6.04327 21.2362 6.2711 21.1765 6.5288 21.1765C6.71181 21.1765 6.87614 21.2082 7.0218 21.2717C7.16745 21.3315 7.2907 21.4192 7.39154 21.535C7.49612 21.6508 7.57455 21.7908 7.62684 21.9552C7.68286 22.1195 7.71087 22.3044 7.71087 22.5098C7.71087 22.5696 7.69407 22.6144 7.66045 22.6443C7.62684 22.6704 7.57829 22.6835 7.51479 22.6835H5.56521V22.3866H7.40835L7.31872 22.4594C7.31872 22.2577 7.28884 22.0878 7.22908 21.9496C7.16932 21.8077 7.08155 21.6993 6.96577 21.6247C6.85373 21.55 6.71181 21.5126 6.54 21.5126C6.34953 21.5126 6.18706 21.5574 6.05261 21.6471C5.92189 21.733 5.82292 21.8543 5.75569 22.0112C5.68846 22.1643 5.65485 22.3436 5.65485 22.549V22.5826C5.65485 22.9262 5.73702 23.1877 5.90135 23.3669C6.06942 23.5462 6.30658 23.6359 6.61283 23.6359C6.73982 23.6359 6.86493 23.619 6.98818 23.5854C7.11517 23.5518 7.23842 23.4958 7.35793 23.4174C7.41022 23.3838 7.4569 23.3688 7.49799 23.3725C7.54281 23.3725 7.57829 23.3856 7.60443 23.4118C7.63057 23.4342 7.64738 23.4641 7.65485 23.5014C7.66605 23.535 7.66232 23.5724 7.64365 23.6134C7.62871 23.6545 7.59696 23.69 7.54841 23.7199C7.42516 23.8095 7.2795 23.8786 7.11143 23.9272C6.94337 23.9757 6.77717 24 6.61283 24Z" fill="#7A7B85"/>
<path d="M9.28637 24C9.1183 24 8.94837 23.9795 8.77657 23.9384C8.6085 23.8973 8.45164 23.8263 8.30598 23.7255C8.26863 23.6993 8.24249 23.6695 8.22755 23.6359C8.21261 23.5985 8.20701 23.563 8.21074 23.5294C8.21821 23.4921 8.23315 23.4603 8.25556 23.4342C8.2817 23.408 8.31158 23.3931 8.34519 23.3894C8.38254 23.3819 8.42363 23.3894 8.46844 23.4118C8.6141 23.5014 8.75416 23.5649 8.88861 23.6022C9.0268 23.6359 9.16312 23.6527 9.29758 23.6527C9.51046 23.6527 9.67106 23.6134 9.77937 23.535C9.88768 23.4566 9.94183 23.3501 9.94183 23.2157C9.94183 23.1111 9.90635 23.0289 9.83539 22.9692C9.76443 22.9057 9.65238 22.8571 9.49926 22.8235L8.98945 22.7115C8.75416 22.6629 8.57862 22.5789 8.46284 22.4594C8.3508 22.3399 8.29477 22.1849 8.29477 21.9944C8.29477 21.8263 8.33772 21.6825 8.42363 21.563C8.51326 21.4398 8.63838 21.3445 8.79898 21.2773C8.95957 21.2101 9.14632 21.1765 9.3592 21.1765C9.52353 21.1765 9.67853 21.1989 9.82419 21.2437C9.97358 21.2848 10.108 21.352 10.2275 21.4454C10.2649 21.4715 10.2892 21.5033 10.3004 21.5406C10.3153 21.5742 10.3172 21.6097 10.306 21.6471C10.2985 21.6807 10.2817 21.7106 10.2556 21.7367C10.2294 21.7591 10.1977 21.7722 10.1603 21.7759C10.123 21.7796 10.0838 21.7684 10.0427 21.7423C9.93063 21.6676 9.81672 21.6134 9.70094 21.5798C9.58516 21.5425 9.47125 21.5238 9.3592 21.5238C9.15005 21.5238 8.99132 21.5649 8.88301 21.6471C8.7747 21.7292 8.72055 21.8375 8.72055 21.972C8.72055 22.0766 8.75416 22.1625 8.82139 22.2297C8.88861 22.2969 8.99319 22.3455 9.13511 22.3754L9.64491 22.4818C9.88768 22.5341 10.0688 22.6181 10.1883 22.7339C10.3116 22.8459 10.3732 22.9991 10.3732 23.1933C10.3732 23.4398 10.2742 23.6359 10.0763 23.7815C9.87834 23.9272 9.61504 24 9.28637 24Z" fill="#7A7B85"/>
<path d="M12.1299 24C11.917 24 11.7377 23.9627 11.592 23.888C11.4501 23.8095 11.3437 23.6975 11.2727 23.5518C11.2018 23.4024 11.1663 23.2213 11.1663 23.0084V21.5798H10.7909C10.7274 21.5798 10.6789 21.5649 10.6453 21.535C10.6117 21.5014 10.5948 21.4566 10.5948 21.4006C10.5948 21.3445 10.6117 21.3016 10.6453 21.2717C10.6789 21.2418 10.7274 21.2269 10.7909 21.2269H11.1663V20.5826C11.1663 20.5079 11.1868 20.4519 11.2279 20.4146C11.269 20.3735 11.325 20.3529 11.396 20.3529C11.4669 20.3529 11.5211 20.3735 11.5584 20.4146C11.5995 20.4519 11.6201 20.5079 11.6201 20.5826V21.2269H12.3259C12.3894 21.2269 12.438 21.2418 12.4716 21.2717C12.5052 21.3016 12.522 21.3445 12.522 21.4006C12.522 21.4566 12.5052 21.5014 12.4716 21.535C12.438 21.5649 12.3894 21.5798 12.3259 21.5798H11.6201V22.9636C11.6201 23.1765 11.6649 23.3389 11.7545 23.451C11.8441 23.5593 11.9898 23.6134 12.1915 23.6134C12.2624 23.6134 12.3222 23.606 12.3708 23.591C12.423 23.5761 12.466 23.5686 12.4996 23.5686C12.5332 23.5649 12.5612 23.5761 12.5836 23.6022C12.606 23.6284 12.6173 23.6732 12.6173 23.7367C12.6173 23.7815 12.6079 23.8226 12.5892 23.8599C12.5743 23.8973 12.5463 23.9234 12.5052 23.9384C12.4604 23.9533 12.4006 23.9664 12.3259 23.9776C12.255 23.9925 12.1896 24 12.1299 24Z" fill="#7A7B85"/>
<path d="M13.2201 23.9888C13.1454 23.9888 13.0894 23.9683 13.052 23.9272C13.0147 23.8861 12.996 23.8282 12.996 23.7535V21.4174C12.996 21.3427 13.0147 21.2866 13.052 21.2493C13.0894 21.2082 13.1435 21.1877 13.2145 21.1877C13.2855 21.1877 13.3396 21.2082 13.377 21.2493C13.4181 21.2866 13.4386 21.3427 13.4386 21.4174V21.8992L13.377 21.8319C13.4554 21.6153 13.5824 21.4528 13.7579 21.3445C13.9372 21.2325 14.1426 21.1765 14.3742 21.1765C14.5908 21.1765 14.7701 21.2157 14.912 21.2941C15.0576 21.3725 15.166 21.4921 15.2369 21.6527C15.3079 21.8095 15.3434 22.0093 15.3434 22.2521V23.7535C15.3434 23.8282 15.3228 23.8861 15.2817 23.9272C15.2444 23.9683 15.1902 23.9888 15.1193 23.9888C15.0446 23.9888 14.9867 23.9683 14.9456 23.9272C14.9082 23.8861 14.8896 23.8282 14.8896 23.7535V22.2801C14.8896 22.0261 14.8392 21.8413 14.7383 21.7255C14.6412 21.606 14.4843 21.5462 14.2677 21.5462C14.0175 21.5462 13.8177 21.6247 13.6683 21.7815C13.5226 21.9346 13.4498 22.1401 13.4498 22.3978V23.7535C13.4498 23.9104 13.3732 23.9888 13.2201 23.9888Z" fill="#7A7B85"/>
<path d="M17.407 24C17.1194 24 16.871 23.944 16.6619 23.8319C16.4565 23.7162 16.2959 23.5537 16.1801 23.3445C16.0681 23.1354 16.012 22.8852 16.012 22.5938C16.012 22.31 16.0681 22.0635 16.1801 21.8543C16.2921 21.6415 16.4453 21.4753 16.6395 21.3557C16.8374 21.2362 17.0653 21.1765 17.323 21.1765C17.506 21.1765 17.6703 21.2082 17.816 21.2717C17.9616 21.3315 18.0849 21.4192 18.1857 21.535C18.2903 21.6508 18.3687 21.7908 18.421 21.9552C18.477 22.1195 18.505 22.3044 18.505 22.5098C18.505 22.5696 18.4882 22.6144 18.4546 22.6443C18.421 22.6704 18.3724 22.6835 18.309 22.6835H16.3594V22.3866H18.2025L18.1129 22.4594C18.1129 22.2577 18.083 22.0878 18.0232 21.9496C17.9635 21.8077 17.8757 21.6993 17.7599 21.6247C17.6479 21.55 17.506 21.5126 17.3342 21.5126C17.1437 21.5126 16.9812 21.5574 16.8468 21.6471C16.7161 21.733 16.6171 21.8543 16.5499 22.0112C16.4826 22.1643 16.449 22.3436 16.449 22.549V22.5826C16.449 22.9262 16.5312 23.1877 16.6955 23.3669C16.8636 23.5462 17.1007 23.6359 17.407 23.6359C17.534 23.6359 17.6591 23.619 17.7823 23.5854C17.9093 23.5518 18.0326 23.4958 18.1521 23.4174C18.2044 23.3838 18.2511 23.3688 18.2921 23.3725C18.337 23.3725 18.3724 23.3856 18.3986 23.4118C18.4247 23.4342 18.4415 23.4641 18.449 23.5014C18.4602 23.535 18.4565 23.5724 18.4378 23.6134C18.4229 23.6545 18.3911 23.69 18.3426 23.7199C18.2193 23.8095 18.0737 23.8786 17.9056 23.9272C17.7375 23.9757 17.5713 24 17.407 24Z" fill="#7A7B85"/>
<path d="M20.2542 24C20.0413 24 19.862 23.9627 19.7164 23.888C19.5745 23.8095 19.468 23.6975 19.3971 23.5518C19.3261 23.4024 19.2906 23.2213 19.2906 23.0084V21.5798H18.9153C18.8518 21.5798 18.8032 21.5649 18.7696 21.535C18.736 21.5014 18.7192 21.4566 18.7192 21.4006C18.7192 21.3445 18.736 21.3016 18.7696 21.2717C18.8032 21.2418 18.8518 21.2269 18.9153 21.2269H19.2906V20.5826C19.2906 20.5079 19.3112 20.4519 19.3522 20.4146C19.3933 20.3735 19.4493 20.3529 19.5203 20.3529C19.5913 20.3529 19.6454 20.3735 19.6828 20.4146C19.7239 20.4519 19.7444 20.5079 19.7444 20.5826V21.2269H20.4503C20.5138 21.2269 20.5623 21.2418 20.5959 21.2717C20.6296 21.3016 20.6464 21.3445 20.6464 21.4006C20.6464 21.4566 20.6296 21.5014 20.5959 21.535C20.5623 21.5649 20.5138 21.5798 20.4503 21.5798H19.7444V22.9636C19.7444 23.1765 19.7892 23.3389 19.8789 23.451C19.9685 23.5593 20.1141 23.6134 20.3158 23.6134C20.3868 23.6134 20.4465 23.606 20.4951 23.591C20.5474 23.5761 20.5903 23.5686 20.6239 23.5686C20.6576 23.5649 20.6856 23.5761 20.708 23.6022C20.7304 23.6284 20.7416 23.6732 20.7416 23.7367C20.7416 23.7815 20.7323 23.8226 20.7136 23.8599C20.6986 23.8973 20.6706 23.9234 20.6296 23.9384C20.5847 23.9533 20.525 23.9664 20.4503 23.9776C20.3793 23.9925 20.314 24 20.2542 24Z" fill="#7A7B85"/>
<defs>
<linearGradient id="paint0_linear_2598_5855" x1="15.3401" y1="9.21746" x2="3.99815" y2="9.21746" gradientUnits="userSpaceOnUse">
<stop stop-color="#F9575E"/>
<stop offset="0.27" stop-color="#F8555B"/>
<stop offset="0.49" stop-color="#F44F51"/>
<stop offset="0.68" stop-color="#EE4540"/>
<stop offset="0.87" stop-color="#E63728"/>
<stop offset="1" stop-color="#DE2A13"/>
</linearGradient>
<linearGradient id="paint1_linear_2598_5855" x1="-34012.1" y1="28518.8" x2="-34316.4" y2="28444.2" gradientUnits="userSpaceOnUse">
<stop stop-color="#F9575E"/>
<stop offset="0.27" stop-color="#F8555B"/>
<stop offset="0.49" stop-color="#F44F51"/>
<stop offset="0.68" stop-color="#EE4540"/>
<stop offset="0.87" stop-color="#E63728"/>
<stop offset="1" stop-color="#DE2A13"/>
</linearGradient>
</defs>
</svg>
