<svg width="33" height="32" viewBox="0 0 33 32" fill="none" xmlns="http://www.w3.org/2000/svg">
<path d="M9.838 18C9.878 18 9.898 18.02 9.898 18.06V18.318C9.898 18.358 9.878 18.378 9.838 18.378H8.662C8.646 18.378 8.638 18.386 8.638 18.402V22.14C8.638 22.18 8.618 22.2 8.578 22.2H8.272C8.232 22.2 8.212 22.18 8.212 22.14V18.402C8.212 18.386 8.204 18.378 8.188 18.378H7.06C7.02 18.378 7 18.358 7 18.318V18.06C7 18.02 7.02 18 7.06 18H9.838Z" fill="#7A7B85"/>
<path d="M12.6041 20.172C12.6201 20.284 12.6281 20.424 12.6281 20.592V20.784C12.6281 20.824 12.6081 20.844 12.5681 20.844H10.6301C10.6141 20.844 10.6061 20.852 10.6061 20.868C10.6141 21.088 10.6261 21.23 10.6421 21.294C10.6861 21.474 10.7801 21.616 10.9241 21.72C11.0681 21.824 11.2521 21.876 11.4761 21.876C11.6441 21.876 11.7921 21.838 11.9201 21.762C12.0481 21.686 12.1481 21.578 12.2201 21.438C12.2441 21.402 12.2721 21.394 12.3041 21.414L12.5381 21.552C12.5701 21.572 12.5781 21.6 12.5621 21.636C12.4621 21.828 12.3121 21.98 12.1121 22.092C11.9121 22.2 11.6821 22.254 11.4221 22.254C11.1381 22.25 10.9001 22.182 10.7081 22.05C10.5161 21.918 10.3781 21.734 10.2941 21.498C10.2221 21.306 10.1861 21.03 10.1861 20.67C10.1861 20.502 10.1881 20.366 10.1921 20.262C10.2001 20.154 10.2161 20.058 10.2401 19.974C10.3081 19.714 10.4441 19.506 10.6481 19.35C10.8561 19.194 11.1061 19.116 11.3981 19.116C11.7621 19.116 12.0421 19.208 12.2381 19.392C12.4341 19.576 12.5561 19.836 12.6041 20.172ZM11.3981 19.488C11.2021 19.488 11.0381 19.54 10.9061 19.644C10.7781 19.744 10.6941 19.88 10.6541 20.052C10.6301 20.136 10.6141 20.272 10.6061 20.46C10.6061 20.476 10.6141 20.484 10.6301 20.484H12.1841C12.2001 20.484 12.2081 20.476 12.2081 20.46C12.2001 20.28 12.1881 20.152 12.1721 20.076C12.1281 19.896 12.0381 19.754 11.9021 19.65C11.7701 19.542 11.6021 19.488 11.3981 19.488Z" fill="#7A7B85"/>
<path d="M14.4786 22.23C14.2546 22.23 14.0546 22.194 13.8786 22.122C13.7066 22.05 13.5726 21.954 13.4766 21.834C13.3846 21.714 13.3386 21.58 13.3386 21.432V21.36C13.3386 21.32 13.3586 21.3 13.3986 21.3H13.6866C13.7266 21.3 13.7466 21.32 13.7466 21.36V21.408C13.7466 21.54 13.8146 21.656 13.9506 21.756C14.0906 21.852 14.2646 21.9 14.4726 21.9C14.6806 21.9 14.8486 21.854 14.9766 21.762C15.1046 21.666 15.1686 21.546 15.1686 21.402C15.1686 21.302 15.1346 21.22 15.0666 21.156C15.0026 21.092 14.9246 21.042 14.8326 21.006C14.7446 20.97 14.6066 20.924 14.4186 20.868C14.1946 20.804 14.0106 20.74 13.8666 20.676C13.7226 20.612 13.6006 20.524 13.5006 20.412C13.4046 20.296 13.3566 20.15 13.3566 19.974C13.3566 19.718 13.4566 19.514 13.6566 19.362C13.8566 19.21 14.1206 19.134 14.4486 19.134C14.6686 19.134 14.8626 19.17 15.0306 19.242C15.2026 19.314 15.3346 19.414 15.4266 19.542C15.5186 19.666 15.5646 19.806 15.5646 19.962V19.98C15.5646 20.02 15.5446 20.04 15.5046 20.04H15.2226C15.1826 20.04 15.1626 20.02 15.1626 19.98V19.962C15.1626 19.826 15.0966 19.712 14.9646 19.62C14.8366 19.528 14.6626 19.482 14.4426 19.482C14.2386 19.482 14.0746 19.524 13.9506 19.608C13.8266 19.688 13.7646 19.8 13.7646 19.944C13.7646 20.08 13.8246 20.184 13.9446 20.256C14.0646 20.328 14.2506 20.4 14.5026 20.472C14.7346 20.54 14.9226 20.604 15.0666 20.664C15.2106 20.724 15.3346 20.812 15.4386 20.928C15.5426 21.04 15.5946 21.188 15.5946 21.372C15.5946 21.632 15.4926 21.84 15.2886 21.996C15.0846 22.152 14.8146 22.23 14.4786 22.23Z" fill="#7A7B85"/>
<path d="M17.7874 19.458C17.7874 19.498 17.7674 19.518 17.7274 19.518H17.0494C17.0334 19.518 17.0254 19.526 17.0254 19.542V21.312C17.0254 21.504 17.0674 21.64 17.1514 21.72C17.2394 21.796 17.3754 21.834 17.5594 21.834H17.7094C17.7494 21.834 17.7694 21.854 17.7694 21.894V22.14C17.7694 22.18 17.7494 22.2 17.7094 22.2C17.6614 22.204 17.5874 22.206 17.4874 22.206C17.1994 22.206 16.9814 22.152 16.8334 22.044C16.6854 21.936 16.6114 21.736 16.6114 21.444V19.542C16.6114 19.526 16.6034 19.518 16.5874 19.518H16.2214C16.1814 19.518 16.1614 19.498 16.1614 19.458V19.224C16.1614 19.184 16.1814 19.164 16.2214 19.164H16.5874C16.6034 19.164 16.6114 19.156 16.6114 19.14V18.444C16.6114 18.404 16.6314 18.384 16.6714 18.384H16.9654C17.0054 18.384 17.0254 18.404 17.0254 18.444V19.14C17.0254 19.156 17.0334 19.164 17.0494 19.164H17.7274C17.7674 19.164 17.7874 19.184 17.7874 19.224V19.458Z" fill="#7A7B85"/>
<path d="M19.931 19.122C20.251 19.122 20.505 19.216 20.693 19.404C20.885 19.592 20.981 19.844 20.981 20.16V22.14C20.981 22.18 20.961 22.2 20.921 22.2H20.615C20.575 22.2 20.555 22.18 20.555 22.14V20.244C20.555 20.024 20.487 19.844 20.351 19.704C20.219 19.564 20.047 19.494 19.835 19.494C19.615 19.494 19.437 19.562 19.301 19.698C19.165 19.834 19.097 20.012 19.097 20.232V22.14C19.097 22.18 19.077 22.2 19.037 22.2H18.731C18.691 22.2 18.671 22.18 18.671 22.14V19.224C18.671 19.184 18.691 19.164 18.731 19.164H19.037C19.077 19.164 19.097 19.184 19.097 19.224V19.482C19.097 19.49 19.099 19.496 19.103 19.5C19.111 19.504 19.117 19.502 19.121 19.494C19.297 19.246 19.567 19.122 19.931 19.122Z" fill="#7A7B85"/>
<path d="M24.2523 20.172C24.2683 20.284 24.2763 20.424 24.2763 20.592V20.784C24.2763 20.824 24.2563 20.844 24.2163 20.844H22.2783C22.2623 20.844 22.2543 20.852 22.2543 20.868C22.2623 21.088 22.2743 21.23 22.2903 21.294C22.3343 21.474 22.4283 21.616 22.5723 21.72C22.7163 21.824 22.9003 21.876 23.1243 21.876C23.2923 21.876 23.4403 21.838 23.5683 21.762C23.6963 21.686 23.7963 21.578 23.8683 21.438C23.8923 21.402 23.9203 21.394 23.9523 21.414L24.1863 21.552C24.2183 21.572 24.2263 21.6 24.2103 21.636C24.1103 21.828 23.9603 21.98 23.7603 22.092C23.5603 22.2 23.3303 22.254 23.0703 22.254C22.7863 22.25 22.5483 22.182 22.3563 22.05C22.1643 21.918 22.0263 21.734 21.9423 21.498C21.8703 21.306 21.8343 21.03 21.8343 20.67C21.8343 20.502 21.8363 20.366 21.8403 20.262C21.8483 20.154 21.8643 20.058 21.8883 19.974C21.9563 19.714 22.0923 19.506 22.2963 19.35C22.5043 19.194 22.7543 19.116 23.0463 19.116C23.4103 19.116 23.6903 19.208 23.8863 19.392C24.0823 19.576 24.2043 19.836 24.2523 20.172ZM23.0463 19.488C22.8503 19.488 22.6863 19.54 22.5543 19.644C22.4263 19.744 22.3423 19.88 22.3023 20.052C22.2783 20.136 22.2623 20.272 22.2543 20.46C22.2543 20.476 22.2623 20.484 22.2783 20.484H23.8323C23.8483 20.484 23.8563 20.476 23.8563 20.46C23.8483 20.28 23.8363 20.152 23.8203 20.076C23.7763 19.896 23.6863 19.754 23.5503 19.65C23.4183 19.542 23.2503 19.488 23.0463 19.488Z" fill="#7A7B85"/>
<path d="M26.5045 19.458C26.5045 19.498 26.4845 19.518 26.4445 19.518H25.7665C25.7505 19.518 25.7425 19.526 25.7425 19.542V21.312C25.7425 21.504 25.7845 21.64 25.8685 21.72C25.9565 21.796 26.0925 21.834 26.2765 21.834H26.4265C26.4665 21.834 26.4865 21.854 26.4865 21.894V22.14C26.4865 22.18 26.4665 22.2 26.4265 22.2C26.3785 22.204 26.3045 22.206 26.2045 22.206C25.9165 22.206 25.6985 22.152 25.5505 22.044C25.4025 21.936 25.3285 21.736 25.3285 21.444V19.542C25.3285 19.526 25.3205 19.518 25.3045 19.518H24.9385C24.8985 19.518 24.8785 19.498 24.8785 19.458V19.224C24.8785 19.184 24.8985 19.164 24.9385 19.164H25.3045C25.3205 19.164 25.3285 19.156 25.3285 19.14V18.444C25.3285 18.404 25.3485 18.384 25.3885 18.384H25.6825C25.7225 18.384 25.7425 18.404 25.7425 18.444V19.14C25.7425 19.156 25.7505 19.164 25.7665 19.164H26.4445C26.4845 19.164 26.5045 19.184 26.5045 19.224V19.458Z" fill="#7A7B85"/>
<path d="M16.9146 17.004L12.3029 12.3839C10.8284 10.9068 10 8.90332 10 6.81427C10 4.72529 10.8284 2.72184 12.3029 1.24468L13.5424 0.00292969L18.1568 4.62559C19.6301 6.10298 20.4575 8.10603 20.457 10.1945C20.4566 12.2828 19.6282 14.2855 18.1542 15.7621L16.9146 17.004Z" fill="url(#paint0_linear_2980_6091)"/>
<path d="M15.6757 4.62526L20.2927 0L21.5323 1.24175C22.2631 1.97326 22.8429 2.84189 23.2385 3.79802C23.6341 4.75414 23.8377 5.77897 23.8377 6.81398C23.8377 7.84899 23.6341 8.87383 23.2385 9.82997C22.8429 10.7861 22.2631 11.6546 21.5323 12.3862L16.9178 17.0088L15.6757 15.7645C14.2012 14.2873 13.3728 12.2839 13.3728 10.1949C13.3728 8.10585 14.2012 6.10241 15.6757 4.62526Z" fill="url(#paint1_linear_2980_6091)"/>
<path d="M2.89152 31.9885C2.30647 31.9885 1.79642 31.8946 1.36138 31.707C0.926337 31.5194 0.588805 31.2567 0.348783 30.919C0.116261 30.5812 0 30.1834 0 29.7256V29.4442C0 29.4066 0.011251 29.3766 0.0337531 29.3541C0.063756 29.3241 0.0975091 29.3091 0.135013 29.3091H1.13636C1.17386 29.3091 1.20386 29.3241 1.22637 29.3541C1.25637 29.3766 1.27137 29.4066 1.27137 29.4442V29.6581C1.27137 30.0033 1.42513 30.2923 1.73266 30.5249C2.04019 30.7501 2.46023 30.8627 2.99278 30.8627C3.45032 30.8627 3.79536 30.7651 4.02788 30.57C4.2604 30.3748 4.37666 30.1234 4.37666 29.8157C4.37666 29.6055 4.31291 29.4291 4.18539 29.2865C4.05788 29.1364 3.87411 29.0013 3.63409 28.8813C3.40157 28.7612 3.04904 28.6111 2.57649 28.4309C2.04394 28.2358 1.61265 28.0519 1.28262 27.8793C0.95259 27.7067 0.675063 27.474 0.450042 27.1813C0.232522 26.8811 0.123762 26.5096 0.123762 26.0668C0.123762 25.4063 0.363784 24.8847 0.843829 24.5019C1.32387 24.1191 1.96518 23.9277 2.76776 23.9277C3.33031 23.9277 3.82536 24.0253 4.2529 24.2204C4.68794 24.4156 5.02547 24.6895 5.2655 25.0423C5.50552 25.3875 5.62553 25.7891 5.62553 26.2469V26.4383C5.62553 26.4758 5.61053 26.5096 5.58052 26.5396C5.55802 26.5621 5.52802 26.5734 5.49052 26.5734H4.47792C4.44042 26.5734 4.40666 26.5621 4.37666 26.5396C4.35416 26.5096 4.34291 26.4758 4.34291 26.4383V26.3144C4.34291 25.9617 4.19664 25.6652 3.90412 25.425C3.61909 25.1774 3.22155 25.0535 2.71151 25.0535C2.29897 25.0535 1.97644 25.1398 1.74391 25.3125C1.51889 25.4851 1.40638 25.729 1.40638 26.0442C1.40638 26.2694 1.46639 26.4533 1.5864 26.5959C1.70641 26.7385 1.88643 26.8698 2.12645 26.9899C2.36647 27.1025 2.73776 27.2488 3.2403 27.429C3.77285 27.6316 4.19664 27.8155 4.51167 27.9806C4.8342 28.1457 5.10798 28.3784 5.333 28.6786C5.56552 28.9713 5.68178 29.3391 5.68178 29.7819C5.68178 30.4574 5.43051 30.994 4.92796 31.3918C4.43292 31.7896 3.7541 31.9885 2.89152 31.9885Z" fill="#484848"/>
<path d="M11.8341 28.3746C11.8641 28.5623 11.8791 28.7724 11.8791 29.0051L11.8678 29.3541C11.8678 29.4442 11.8228 29.4892 11.7328 29.4892H8.21125C8.17375 29.4892 8.15499 29.508 8.15499 29.5455C8.1775 29.7932 8.21125 29.962 8.25625 30.0521C8.43627 30.5925 8.87506 30.8664 9.57263 30.8739C10.0827 30.8739 10.4877 30.6638 10.7877 30.2435C10.8177 30.1984 10.8552 30.1759 10.9003 30.1759C10.9303 30.1759 10.9565 30.1872 10.979 30.2097L11.6766 30.7839C11.7441 30.8364 11.7553 30.8964 11.7103 30.964C11.4778 31.2942 11.1665 31.5494 10.7765 31.7295C10.394 31.9097 9.96641 31.9997 9.49387 31.9997C8.90882 31.9997 8.41002 31.8684 7.99748 31.6057C7.59244 31.343 7.29616 30.9752 7.10865 30.5024C6.93613 30.0971 6.84987 29.5342 6.84987 28.8137C6.84987 28.3784 6.89488 28.0256 6.98488 27.7555C7.1349 27.2301 7.41618 26.8173 7.82871 26.5171C8.24875 26.2094 8.7513 26.0555 9.33636 26.0555C10.814 26.0555 11.6466 26.8285 11.8341 28.3746ZM9.33636 27.1813C9.05883 27.1813 8.82631 27.2526 8.63879 27.3952C8.45877 27.5303 8.33126 27.7217 8.25625 27.9694C8.21125 28.0969 8.18125 28.2621 8.16625 28.4647C8.15124 28.5022 8.16625 28.521 8.21125 28.521H10.4952C10.5327 28.521 10.5515 28.5022 10.5515 28.4647C10.5365 28.2771 10.514 28.1345 10.484 28.0369C10.4165 27.7667 10.2814 27.5566 10.0789 27.4065C9.88391 27.2563 9.63638 27.1813 9.33636 27.1813Z" fill="#484848"/>
<path d="M15.9409 26.0555C16.5485 26.0555 17.0323 26.2356 17.3923 26.5959C17.7598 26.9561 17.9436 27.4477 17.9436 28.0707V31.7633C17.9436 31.8008 17.9286 31.8346 17.8986 31.8646C17.8761 31.8871 17.8461 31.8984 17.8086 31.8984H16.7735C16.736 31.8984 16.7022 31.8871 16.6722 31.8646C16.6497 31.8346 16.6385 31.8008 16.6385 31.7633V28.3409C16.6385 27.9956 16.541 27.7179 16.3459 27.5078C16.1509 27.2901 15.8921 27.1813 15.5696 27.1813C15.2471 27.1813 14.9846 27.2864 14.782 27.4965C14.587 27.7067 14.4895 27.9844 14.4895 28.3296V31.7633C14.4895 31.8008 14.4745 31.8346 14.4445 31.8646C14.422 31.8871 14.392 31.8984 14.3545 31.8984H13.3194C13.2819 31.8984 13.2481 31.8871 13.2181 31.8646C13.1956 31.8346 13.1844 31.8008 13.1844 31.7633V26.2807C13.1844 26.2431 13.1956 26.2131 13.2181 26.1906C13.2481 26.1606 13.2819 26.1456 13.3194 26.1456H14.3545C14.392 26.1456 14.422 26.1606 14.4445 26.1906C14.4745 26.2131 14.4895 26.2431 14.4895 26.2807V26.6409C14.4895 26.6634 14.497 26.6784 14.512 26.6859C14.527 26.6934 14.5383 26.6859 14.5458 26.6634C14.8533 26.2581 15.3183 26.0555 15.9409 26.0555Z" fill="#484848"/>
<path d="M22.4659 27.0687C22.4659 27.1062 22.4509 27.14 22.4209 27.17C22.3984 27.1926 22.3684 27.2038 22.3309 27.2038H21.1833C21.1458 27.2038 21.127 27.2226 21.127 27.2601V29.9733C21.127 30.2585 21.187 30.4649 21.307 30.5925C21.4346 30.7201 21.6333 30.7839 21.9033 30.7839H22.2409C22.2784 30.7839 22.3084 30.7989 22.3309 30.8289C22.3609 30.8514 22.3759 30.8814 22.3759 30.919V31.7633C22.3759 31.8459 22.3309 31.8946 22.2409 31.9097L21.6558 31.9209C21.0633 31.9209 20.6207 31.8196 20.3282 31.6169C20.0357 31.4143 19.8857 31.0315 19.8782 30.4686V27.2601C19.8782 27.2226 19.8594 27.2038 19.8219 27.2038H19.1806C19.1431 27.2038 19.1093 27.1926 19.0793 27.17C19.0568 27.14 19.0456 27.1062 19.0456 27.0687V26.2807C19.0456 26.2431 19.0568 26.2131 19.0793 26.1906C19.1093 26.1606 19.1431 26.1456 19.1806 26.1456H19.8219C19.8594 26.1456 19.8782 26.1268 19.8782 26.0893V24.7721C19.8782 24.7346 19.8894 24.7045 19.9119 24.682C19.9419 24.652 19.9757 24.637 20.0132 24.637H20.992C21.0295 24.637 21.0595 24.652 21.082 24.682C21.112 24.7045 21.127 24.7346 21.127 24.7721V26.0893C21.127 26.1268 21.1458 26.1456 21.1833 26.1456H22.3309C22.3684 26.1456 22.3984 26.1606 22.4209 26.1906C22.4509 26.2131 22.4659 26.2431 22.4659 26.2807V27.0687Z" fill="#484848"/>
<path d="M26.4153 26.078C26.6553 26.078 26.8653 26.1268 27.0453 26.2244C27.1054 26.2544 27.1279 26.3107 27.1129 26.3932L26.9216 27.4065C26.9141 27.4965 26.8616 27.5228 26.7641 27.4853C26.6516 27.4477 26.5203 27.429 26.3703 27.429C26.2728 27.429 26.1978 27.4327 26.1453 27.4402C25.8302 27.4552 25.5677 27.5678 25.3577 27.778C25.1477 27.9806 25.0427 28.2471 25.0427 28.5773V31.7633C25.0427 31.8008 25.0277 31.8346 24.9977 31.8646C24.9752 31.8871 24.9451 31.8984 24.9076 31.8984H23.8725C23.835 31.8984 23.8013 31.8871 23.7713 31.8646C23.7488 31.8346 23.7375 31.8008 23.7375 31.7633V26.2807C23.7375 26.2431 23.7488 26.2131 23.7713 26.1906C23.8013 26.1606 23.835 26.1456 23.8725 26.1456H24.9076C24.9451 26.1456 24.9752 26.1606 24.9977 26.1906C25.0277 26.2131 25.0427 26.2431 25.0427 26.2807V26.7873C25.0427 26.8173 25.0464 26.8361 25.0539 26.8436C25.0689 26.8436 25.0839 26.8323 25.0989 26.8098C25.4139 26.3219 25.8527 26.078 26.4153 26.078Z" fill="#484848"/>
<path d="M32.8195 28.3746C32.8495 28.5623 32.8645 28.7724 32.8645 29.0051L32.8533 29.3541C32.8533 29.4442 32.8083 29.4892 32.7183 29.4892H29.1967C29.1592 29.4892 29.1404 29.508 29.1404 29.5455C29.1629 29.7932 29.1967 29.962 29.2417 30.0521C29.4217 30.5925 29.8605 30.8664 30.558 30.8739C31.0681 30.8739 31.4731 30.6638 31.7732 30.2435C31.8032 30.1984 31.8407 30.1759 31.8857 30.1759C31.9157 30.1759 31.9419 30.1872 31.9644 30.2097L32.662 30.7839C32.7295 30.8364 32.7408 30.8964 32.6957 30.964C32.4632 31.2942 32.1519 31.5494 31.7619 31.7295C31.3794 31.9097 30.9518 31.9997 30.4793 31.9997C29.8942 31.9997 29.3954 31.8684 28.9829 31.6057C28.5779 31.343 28.2816 30.9752 28.0941 30.5024C27.9216 30.0971 27.8353 29.5342 27.8353 28.8137C27.8353 28.3784 27.8803 28.0256 27.9703 27.7555C28.1203 27.2301 28.4016 26.8173 28.8141 26.5171C29.2342 26.2094 29.7367 26.0555 30.3218 26.0555C31.7994 26.0555 32.632 26.8285 32.8195 28.3746ZM30.3218 27.1813C30.0442 27.1813 29.8117 27.2526 29.6242 27.3952C29.4442 27.5303 29.3167 27.7217 29.2417 27.9694C29.1967 28.0969 29.1667 28.2621 29.1517 28.4647C29.1367 28.5022 29.1517 28.521 29.1967 28.521H31.4806C31.5181 28.521 31.5369 28.5022 31.5369 28.4647C31.5219 28.2771 31.4994 28.1345 31.4694 28.0369C31.4019 27.7667 31.2669 27.5566 31.0643 27.4065C30.8693 27.2563 30.6218 27.1813 30.3218 27.1813Z" fill="#484848"/>
<defs>
<linearGradient id="paint0_linear_2980_6091" x1="20.4614" y1="8.50473" x2="9.9983" y2="8.50473" gradientUnits="userSpaceOnUse">
<stop stop-color="#F9575E"/>
<stop offset="0.27" stop-color="#F8555B"/>
<stop offset="0.49" stop-color="#F44F51"/>
<stop offset="0.68" stop-color="#EE4540"/>
<stop offset="0.87" stop-color="#E63728"/>
<stop offset="1" stop-color="#DE2A13"/>
</linearGradient>
<linearGradient id="paint1_linear_2980_6091" x1="-31370.3" y1="26311.5" x2="-31651" y2="26242.7" gradientUnits="userSpaceOnUse">
<stop stop-color="#F9575E"/>
<stop offset="0.27" stop-color="#F8555B"/>
<stop offset="0.49" stop-color="#F44F51"/>
<stop offset="0.68" stop-color="#EE4540"/>
<stop offset="0.87" stop-color="#E63728"/>
<stop offset="1" stop-color="#DE2A13"/>
</linearGradient>
</defs>
</svg>
